<svg width="51" height="46" viewBox="0 0 51 46" fill="none" xmlns="http://www.w3.org/2000/svg">
<path d="M40.9366 16.7495C41.0314 16.7814 44.681 17.5057 45.0582 24.3428C46.0658 25.1619 45.5302 27.3674 45.5302 27.3674C45.5302 27.3674 43.924 26.9061 44.3348 24.4057C44.4924 21.6645 43.0129 18.5451 41.1252 18.1361C39.2375 17.7261 40.9366 16.7495 40.9366 16.7495Z" fill="#E17130"/>
<path d="M43.1182 19.7341C42.9553 19.4844 42.7791 19.256 42.5923 19.0541V19.0532C42.7791 19.2551 42.9553 19.4835 43.1182 19.7332V19.7341Z" fill="#A5A7A6"/>
<path d="M45.5307 27.3663C45.521 27.3636 44.3062 27.0077 44.269 25.2617C44.6258 25.9948 45.1535 26.5792 45.1535 26.5792C45.1535 26.5792 45.4466 25.2351 44.7754 24.4161C45.111 21.6642 43.0551 18.7237 43.0551 18.7237L43.1179 19.7331C42.955 19.4834 42.7788 19.255 42.592 19.0531C42.4185 18.2075 42.0501 17.5913 41.6357 17.022C42.7381 17.5957 44.7816 19.3205 45.0588 24.3417C45.5466 24.7393 45.6724 25.4609 45.6724 26.1002C45.6724 26.7802 45.5307 27.3663 45.5307 27.3663Z" fill="#DB4E29"/>
<path d="M38.105 26.2223C38.3148 26.4322 40.8321 29.6666 44.6075 32.1458C45.8249 33.0277 46.412 36.7659 45.9082 39.539C46.999 41.2611 47.7543 43.2356 47.7543 43.2356C47.7543 43.2356 49.433 42.5211 48.8035 40.2217C48.3944 40.2535 47.671 39.1822 47.671 39.1822C47.671 39.1822 47.0415 35.5901 47.5134 33.4473C47.9853 31.3055 46.8839 30.2342 45.4681 29.4152C44.0514 28.5953 42.0699 23.9955 42.3213 19.8996C42.5728 15.8036 38.105 26.2223 38.105 26.2223Z" fill="#E17130"/>
<path d="M47.4814 33.6005V33.5997C47.4921 33.5483 47.5018 33.4978 47.5133 33.4474C47.5018 33.4978 47.4921 33.5492 47.4814 33.6005Z" fill="#A5A7A6"/>
<path d="M47.4817 33.5997C47.1453 30.2626 43.995 29.433 43.2229 28.1969C42.7881 28.884 42.6713 29.9208 42.6544 30.7212C42.3986 30.5158 42.1506 30.3095 41.9134 30.105L41.5344 28.1863C41.5344 28.1863 41.5335 28.1394 41.5326 28.0544C41.5317 27.9924 41.5317 27.91 41.5317 27.81C41.5317 26.9901 41.5698 25.0333 41.9125 24.0319C42.1241 23.4086 42.2879 22.8428 42.4092 22.3284C42.8227 25.6505 44.3288 28.7556 45.4683 29.4152C46.6574 30.1032 47.6243 30.9683 47.6243 32.4974C47.6243 32.7887 47.5889 33.1048 47.5136 33.4474C47.5021 33.4979 47.4915 33.5484 47.4817 33.5997Z" fill="#DB4E29"/>
<mask id="mask0_464_1107" style="mask-type:luminance" maskUnits="userSpaceOnUse" x="21" y="25" width="11" height="19">
<path d="M21.5469 25.1599L31.9735 25.1599V43.8705H21.5469V25.1599Z" fill="white"/>
</mask>
<g mask="url(#mask0_464_1107)">
<path d="M31.7854 42.6989C31.7854 42.6989 30.4847 39.561 29.6276 36.8525C30.0871 35.4766 28.6793 33.2843 28.6793 33.2843C28.6793 33.2843 28.1428 30.1995 25.7743 25.7069C25.738 25.6803 25.7025 25.6529 25.668 25.6254C25.6547 25.6254 25.6415 25.6254 25.6282 25.6254C25.1421 25.6272 24.6533 25.5785 24.1708 25.5298C23.3287 25.4457 22.4911 25.3253 21.6509 25.2217C22.9719 27.136 25.421 30.8166 26.5809 33.4136C26.6092 34.9613 27.863 36.3425 27.863 36.3425C27.863 36.3425 29.7471 40.6439 29.7179 42.1429C28.5137 42.4979 27.8948 43.3559 27.8143 43.8385C29.8126 43.8385 31.8828 43.5578 31.8828 43.5578L31.7854 42.6989Z" fill="#E17130"/>
</g>
<path d="M23.0413 27.2866C22.8005 26.9191 22.5668 26.5685 22.3472 26.2427C22.5676 26.5685 22.8005 26.9191 23.0413 27.2866Z" fill="#A5A7A6"/>
<path d="M31.8318 43.0992L29.1109 36.7242C29.1109 36.7242 28.9161 34.3717 28.0767 33.2375C27.6154 31.3055 26.2306 28.2384 26.2306 28.2384C26.2306 28.2384 24.1286 27.6337 23.0413 27.2866C22.8005 26.9191 22.5676 26.5685 22.3472 26.2427C23.0599 26.534 23.9445 26.696 24.9025 26.7421C25.0964 26.7518 25.2938 26.7562 25.4931 26.7562C25.7578 26.7562 26.0261 26.7482 26.2961 26.7323C28.2237 30.6627 28.6797 33.2844 28.6797 33.2844C28.6797 33.2844 29.7191 34.9038 29.72 36.2319C29.72 36.4498 29.6926 36.6596 29.628 36.8526C30.485 39.5611 31.7866 42.699 31.7866 42.699L31.8318 43.0992Z" fill="#DB4E29"/>
<path d="M9.76911 10.0378L9.02979 9.89705C9.02979 9.89705 9.68234 9.4871 10.3544 9.61283C10.1622 9.6757 10.1304 9.81382 10.1304 9.81382C10.1304 9.81382 10.8546 9.9909 11.0122 10.1166C11.169 10.2432 11.7356 11.0941 11.7356 11.0941L11.4116 11.0516C11.4116 11.0516 12.1916 11.6139 12.4121 12.7162C12.1447 12.3063 11.9711 12.1522 11.9711 12.1522L12.5847 13.5042L13.1204 14.2754L12.6166 13.9921L13.3719 14.9847C13.3719 14.9847 12.8999 14.8589 12.9469 14.9059C12.9938 14.9537 13.5135 15.4415 13.5135 15.4415H13.1204C13.1204 15.4415 13.3878 15.9772 13.6393 15.9613C13.6552 16.0719 13.2461 16.1348 13.2461 16.1348L13.6401 16.2765L13.4029 16.4969L13.7491 16.6705C13.7491 16.6705 13.3719 16.7812 13.3878 16.8281C13.4029 16.875 13.9385 17.1902 13.9385 17.1902V17.4576C13.9385 17.4576 15.4172 18.1668 17.1004 17.5524C18.7844 16.9379 16.1255 18.6237 14.6779 18.4502C13.2302 18.2775 12.5068 18.1987 12.1757 18.0092C11.8454 17.8206 9.76911 10.0378 9.76911 10.0378Z" fill="#E17130"/>
<mask id="mask1_464_1107" style="mask-type:luminance" maskUnits="userSpaceOnUse" x="1" y="8" width="42" height="36">
<path d="M1.54004 8.83984L42.8536 8.83984V43.8705H1.54004L1.54004 8.83984Z" fill="white"/>
</mask>
<g mask="url(#mask1_464_1107)">
<path d="M1.58781 12.6216C1.58781 12.6216 1.74453 11.3776 2.59453 10.7153C4.02625 10.2275 6.22916 10.4639 6.27609 10.4639C6.32302 10.4639 7.99114 9.89633 7.99114 9.89633C7.99114 9.89633 10.2038 8.98258 11.3575 11.259C11.6515 11.6875 11.7568 12.8005 11.7568 12.8005C11.7568 12.8005 12.6166 14.4598 12.7219 16.3289C12.7635 17.3161 14.0846 18.2617 15.3436 17.9465C16.6027 17.6313 18.123 16.8442 18.9411 14.6386C19.7282 12.905 21.8674 11.4564 25.4232 11.3617C27.4376 8.96664 30.3639 7.17102 34.6431 12.6216C36.0589 12.9369 39.2685 13.5354 40.9995 16.1819C42.1957 17.7889 43.6115 19.0276 41.9123 24.032C41.4714 25.3194 41.5343 28.1864 41.5343 28.1864L42.6968 34.0779C42.6968 34.0779 40.323 39.324 39.9609 41.3242C40.0716 41.8129 39.458 42.5009 39.458 42.5009L39.6306 43.3828C39.6306 43.3828 38.8125 43.8715 36.0748 43.8715C36.0748 42.9419 37.5331 42.1591 37.58 42.1441C37.6269 42.1282 38.9072 40.6469 38.9072 40.6469C38.9072 40.6469 40.1185 37.2283 39.7094 33.7627C39.7094 33.7627 39.9086 29.1205 37.0974 27.0628C36.552 26.6006 35.9234 24.248 35.9234 24.248C35.9234 24.248 33.2379 24.7102 30.3426 25.8861C27.6155 26.9362 23.7976 27.1044 21.8674 26.0127C21.3645 30.4654 19.8956 33.5316 19.8956 33.5316C19.8956 33.5316 19.8956 35.6744 18.5533 37.0184C17.6723 39.6649 16.9586 42.732 16.9586 42.732L17.0853 43.4882C17.0853 43.4882 14.8345 43.845 12.837 43.845C12.837 42.9941 13.734 42.2379 15.1657 41.8918C16.1565 40.4264 17.1162 36.5199 17.1162 36.5199C17.1162 36.5199 16.7488 35.1706 17.7139 33.6583C18.4276 30.0874 17.9662 24.4163 17.9662 24.4163C17.9662 24.4163 9.2812 26.5581 7.18364 15.7622C5.84047 15.1743 5.08521 14.0401 5.08521 14.0401C5.08521 14.0401 3.98375 14.0401 3.53307 13.3565C2.52635 13.7559 1.7826 13.3654 1.70823 12.874C1.56125 12.727 1.58781 12.6216 1.58781 12.6216Z" fill="#E68F3F"/>
</g>
<mask id="mask2_464_1107" style="mask-type:luminance" maskUnits="userSpaceOnUse" x="1" y="12" width="4" height="2">
<path d="M1.54004 12.0132H4.32025V13.1465H1.54004V12.0132Z" fill="white"/>
</mask>
<g mask="url(#mask2_464_1107)">
<path d="M2.12198 13.1172C2.00333 13.1172 1.8776 13.0844 1.74391 13.0021C1.72708 12.9605 1.71469 12.9171 1.70849 12.8737C1.7076 12.8737 1.7076 12.8728 1.7076 12.8728C1.70672 12.8728 1.70672 12.8719 1.70672 12.8719C1.70583 12.8711 1.70583 12.8711 1.70583 12.8711C1.70495 12.8702 1.70495 12.8702 1.70495 12.8702C1.62615 12.7905 1.5987 12.7241 1.58984 12.6789C1.74125 12.7276 1.93516 12.7701 2.15031 12.7701C2.35484 12.7701 2.57708 12.7312 2.79932 12.6214C3.38813 12.331 3.62276 12.1521 3.82464 12.1521C3.87865 12.1521 3.92912 12.1645 3.9849 12.1911C4.22839 12.3079 4.08229 12.5523 3.58823 12.5523C3.55104 12.5523 3.51208 12.5514 3.47047 12.5479C3.45896 12.5479 3.44745 12.547 3.43682 12.547C3.22167 12.547 3.01714 12.6895 2.80375 12.8321C2.59125 12.9747 2.3699 13.1172 2.12198 13.1172Z" fill="#E17130"/>
</g>
<path d="M2.2168 11.2906C2.2168 11.2906 2.76753 10.7868 3.0907 10.9205C3.41299 11.0542 2.75956 11.2827 2.2168 11.2906Z" fill="#3D1F1C"/>
<path d="M6.6558 11.7998C6.48226 11.7998 6.27064 11.7068 6.03955 11.4084C6.13075 11.0631 6.32997 10.6301 6.79835 10.6301C6.81429 10.6301 6.83111 10.631 6.84705 10.6319C7.20919 10.6372 6.48492 10.7612 6.46455 10.9993C6.4557 11.0427 6.48049 11.0534 6.52919 11.0534C6.55221 11.0534 6.58054 11.0507 6.6133 11.0489C6.64518 11.0463 6.68236 11.0436 6.72221 11.0436C6.88955 11.0436 7.10913 11.087 7.2933 11.3562C7.17288 11.4828 7.12507 11.551 7.12507 11.551C7.12507 11.551 6.9409 11.7998 6.6558 11.7998Z" fill="#E17130"/>
<path d="M9.55413 10.6302C9.55413 10.6302 9.93132 9.57654 11.3896 9.99623C11.5569 10.2167 10.7494 12.3072 9.79496 11.992C8.84048 11.6767 9.55413 10.6302 9.55413 10.6302Z" fill="#E68F3F"/>
<path d="M9.49137 11.2908C9.49137 11.2908 9.78533 10.4895 10.4033 10.4585C10.5822 10.4691 10.6663 11.4944 9.86856 11.4599C9.65871 11.7184 9.44887 11.745 9.49137 11.2908Z" fill="#E17130"/>
<path d="M7.18378 15.7621C6.75878 15.5761 6.3931 15.3353 6.09206 15.0936C6.03451 14.8341 5.92206 14.6146 5.79279 14.4667C5.85122 14.2887 5.86008 14.1506 5.83971 14.0443C6.52237 14.2887 7.34669 14.5189 7.7832 14.5189C7.82482 14.5189 7.86289 14.5163 7.89654 14.5118C8.52607 14.4313 9.11133 13.9558 9.26096 13.4582C9.32914 13.4582 9.39732 13.4573 9.46461 13.4564C9.49914 13.6796 9.45044 14.008 9.19722 14.2498C9.848 14.1338 9.848 14.1338 9.848 14.1338C9.848 14.1338 9.49471 14.8403 8.04175 14.8403C7.99128 14.8403 7.93904 14.8395 7.88591 14.8377C8.17987 15.2999 8.4632 15.3415 8.4632 15.3415C8.4632 15.3415 8.42159 15.3441 8.3543 15.3441C8.14445 15.3441 7.68138 15.3202 7.43524 15.121C7.34315 15.2742 7.69732 15.616 7.68846 15.616C7.68846 15.616 7.68758 15.6151 7.68669 15.6151C7.6557 15.5938 7.00492 15.415 6.5755 15.0165C6.533 15.1839 7.18024 15.7585 7.18378 15.7621ZM4.33893 13.9133C4.0432 13.8186 3.72799 13.6512 3.5332 13.3573C3.5332 13.3573 4.08747 13.1758 4.60633 13.166C4.52841 13.4529 4.43898 13.7114 4.33893 13.9133ZM6.30279 13.8088C6.30279 13.8088 5.8769 13.6698 5.46607 13.568C5.46961 13.5228 5.47315 13.4662 5.47669 13.4042C5.92117 13.6176 6.30279 13.8088 6.30279 13.8088Z" fill="#E17130"/>
<path d="M25.4935 26.7563C25.2943 26.7563 25.0968 26.7519 24.9029 26.7421C23.7917 26.6881 22.7779 26.4791 22.0191 26.0931C21.9678 26.0674 21.9173 26.04 21.8677 26.0125C21.8677 26.0125 21.4551 24.8969 21.6233 23.3616C22.2095 23.4032 22.7912 23.436 23.3667 23.4625C23.3738 23.4749 23.3809 23.4864 23.388 23.4988C23.3995 23.5697 23.4119 23.6458 23.4234 23.7273C23.2472 23.7831 23.0391 24.1638 23.349 24.5179C23.349 24.5188 23.3481 24.5197 23.3472 24.5215C22.9603 25.2794 23.3649 26.094 23.3649 26.094C23.3649 26.094 23.3658 26.094 23.3667 26.094C23.38 26.094 23.4792 26.0975 23.6182 26.0975C23.8714 26.0975 24.2566 26.0869 24.4921 26.0329C24.4921 26.0329 24.4921 26.0329 24.493 26.0329C24.5461 26.0205 24.5921 26.0054 24.6267 25.9886C24.6789 25.6964 24.6568 25.4237 24.5877 25.1847C24.5558 25.0722 24.5124 24.9669 24.4637 24.8703C24.7117 25.0988 24.9472 25.2635 25.1402 25.3502C25.528 25.4025 26.023 25.4397 26.6011 25.4397C26.7906 25.4397 26.9881 25.4352 27.1944 25.4264C27.1359 25.8399 27.2245 26.1763 27.2245 26.1763C27.2245 26.1763 27.2254 26.1772 27.228 26.1772C27.2811 26.1905 27.9381 26.3463 28.3127 26.3463C28.3348 26.3463 28.3569 26.3454 28.3773 26.3446C28.4171 26.3419 28.4517 26.3375 28.4809 26.3295C28.5933 26.0506 28.6252 25.7744 28.6048 25.5229C28.5986 25.4476 28.5871 25.3741 28.573 25.3033C29.5221 25.1749 30.5705 24.9412 31.6586 24.5525C31.4683 24.8659 31.4205 25.2059 31.4222 25.4751C31.0698 25.6008 30.7077 25.7381 30.3429 25.8859C30.3394 25.8877 30.3349 25.8895 30.3314 25.8903C30.3225 25.8939 30.3137 25.8974 30.3048 25.901C29.0936 26.3614 27.6716 26.65 26.2966 26.7324C26.0265 26.7483 25.7582 26.7563 25.4935 26.7563ZM32.7982 25.0218C32.7814 24.9615 32.7619 24.9031 32.7406 24.8482C32.7397 24.8482 32.7397 24.8482 32.7397 24.8473C32.6733 24.68 32.5848 24.5383 32.4883 24.4338C32.514 24.3497 32.5281 24.2745 32.5334 24.2072C33.1833 23.9274 33.8412 23.5883 34.4946 23.181C35.1224 23.1225 35.7245 23.0606 36.2938 22.9959C36.2717 23.0889 36.2478 23.1827 36.2221 23.2775C36.1238 23.3713 36.0477 23.5422 36.0902 23.7388C36.0388 23.9061 35.983 24.0761 35.9228 24.2479C35.9228 24.2479 34.5938 24.4763 32.7982 25.0218ZM22.7602 21.8422C22.4919 21.8351 22.2325 21.8281 21.9828 21.8201C22.1546 21.3482 22.3928 20.8603 22.7177 20.3724C22.6451 20.8789 22.669 21.3729 22.7602 21.8422ZM35.8909 21.3455C36.4142 19.4197 36.4372 18.1987 36.4372 18.1987C36.4372 18.1987 36.764 19.4002 36.586 21.2632C36.354 21.2924 36.1229 21.3189 35.8909 21.3455Z" fill="#E17130"/>
<path d="M39.9716 41.3965C39.9663 41.3733 39.9627 41.3492 39.9609 41.3242C39.9663 41.3474 39.9699 41.3715 39.9716 41.3965Z" fill="#E17130"/>
<path d="M39.961 41.3241C39.9088 40.0854 41.3768 35.6326 42.0904 33.6157C41.0076 29.9571 40.7269 27.199 40.7472 25.0749C40.9128 25.1077 41.0775 25.1316 41.2015 25.1316C41.2165 25.1316 41.2307 25.1316 41.244 25.1307C41.2705 25.1289 41.2935 25.1263 41.3148 25.1219C41.4148 24.9032 41.4644 24.6845 41.4759 24.4764C41.499 24.0514 41.3644 23.6733 41.1846 23.4466C41.3051 23.1367 41.259 22.9446 41.1714 22.8277C41.081 22.7064 40.9447 22.6657 40.9013 22.6551C40.9137 22.5453 40.927 22.4382 40.9403 22.3337C41.6752 22.2053 42.1976 22.1008 42.4729 22.0433C42.3472 22.6321 42.1639 23.2908 41.9124 24.0319C41.5698 25.0333 41.5308 26.9901 41.5308 27.81C41.5308 27.91 41.5317 27.9924 41.5326 28.0544C41.5335 28.1394 41.5344 28.1863 41.5344 28.1863L42.696 34.0778C42.696 34.0778 40.3231 39.3239 39.961 41.3241ZM41.1891 20.5168C41.2201 20.2583 41.2431 20.0183 41.251 19.7952C41.2254 17.9712 39.8698 16.2314 37.8555 15.1175C38.1229 14.7501 38.3672 14.38 38.5806 14.0116C38.5806 14.0108 38.5806 14.0108 38.5806 14.0108C38.5824 14.0081 38.5842 14.0054 38.5851 14.0037C38.5859 14.0028 38.5859 14.0019 38.5859 14.0019C38.5877 13.9992 38.5895 13.9966 38.5904 13.9939C38.5912 13.9931 38.5912 13.9922 38.5921 13.9922C38.593 13.9904 38.5939 13.9877 38.5957 13.986C38.5957 13.9851 38.5966 13.9842 38.5966 13.9833C38.5983 13.9807 38.6001 13.978 38.601 13.9753C39.4935 14.4853 40.3506 15.1901 40.9996 16.1818C41.1563 16.3925 41.3166 16.5962 41.4724 16.8034C41.5273 16.876 41.5822 16.9486 41.6353 17.0221C42.0506 17.5923 42.4189 18.2076 42.5924 19.0532V19.0541C42.6589 19.3799 42.6969 19.7403 42.696 20.1458C42.696 20.1564 42.696 20.1662 42.696 20.1759C42.2002 20.2981 41.6982 20.4114 41.1891 20.5168Z" fill="#E17130"/>
<path d="M15.166 41.8917C16.1568 40.4263 17.1166 36.5199 17.1166 36.5199C17.1166 36.5199 16.8802 35.6522 17.2848 34.5286C17.384 34.2505 17.523 33.9575 17.7142 33.6582C18.4093 30.1794 17.9896 24.7084 17.9675 24.4268C17.9666 24.4198 17.9666 24.4162 17.9666 24.4162C17.9383 23.8841 17.9701 23.4166 18.0348 23.0137C18.2747 23.0438 18.5129 23.073 18.7528 23.0996C18.7528 23.5211 18.7528 23.9478 18.7528 24.3108C18.759 24.4198 18.7652 24.5287 18.7705 24.6367C18.5536 25.1493 18.636 25.6629 18.6368 25.6638C18.6368 25.6638 18.7059 25.6877 18.8122 25.7222C18.9326 30.3804 18.2809 33.8255 18.2809 33.8255C18.2809 33.8255 18.3757 35.5273 17.4938 36.5358C16.5818 40.9151 15.166 41.8917 15.166 41.8917ZM18.7528 21.6679C18.6368 21.6599 18.535 21.6537 18.4465 21.6466C18.6103 21.3013 18.7528 21.1287 18.7528 21.1287C18.7528 21.1287 18.7528 21.3403 18.7528 21.6679Z" fill="#EBAF4D"/>
<path d="M6.25488 11.3934C6.25488 11.3934 6.54353 11.729 6.83217 11.7343C7.12082 11.7396 7.29348 11.466 7.31473 11.4713C7.33509 11.4767 7.66624 11.466 7.8079 11.3403C7.94869 11.2146 7.41921 11.3722 7.20936 11.2907C6.99952 11.2093 6.4966 11.057 6.25488 11.3934Z" fill="#3D1F1C"/>
<path d="M18.0425 22.9649C13.6544 24.1903 10.0366 21.2135 8.33838 19.4268C11.4435 26.0249 17.9664 24.4161 17.9664 24.4161C17.9372 23.8618 17.9726 23.3784 18.0425 22.9649Z" fill="#E17130"/>
<mask id="mask3_464_1107" style="mask-type:luminance" maskUnits="userSpaceOnUse" x="12" y="39" width="37" height="5">
<path d="M12.707 39.8931H48.9737V43.8704H12.707V39.8931Z" fill="white"/>
</mask>
<g mask="url(#mask3_464_1107)">
<path d="M39.4579 42.5004C39.4579 42.5004 39.4596 42.4977 39.4614 42.4951C38.653 42.4455 37.5799 42.1427 37.5799 42.1427C37.533 42.1586 36.0747 42.9413 36.0747 43.871C38.8124 43.871 39.6305 43.3822 39.6305 43.3822L39.4579 42.5004ZM31.7866 42.6987C31.7866 42.6987 31.76 42.6358 31.7131 42.5198C30.5975 42.5083 29.7183 42.1427 29.7183 42.1427C28.515 42.4977 27.8952 43.3557 27.8146 43.8382C29.813 43.8382 31.8831 43.5576 31.8831 43.5576L31.7866 42.6987ZM47.7542 43.2353C47.7542 43.2353 49.433 42.5207 48.8034 40.2213C48.7167 40.2284 48.6157 40.185 48.5103 40.1133C48.165 40.9651 47.6993 41.6088 47.2601 42.0763C47.5736 42.7616 47.7542 43.2353 47.7542 43.2353ZM16.9922 42.5898C16.97 42.6819 16.9585 42.7315 16.9585 42.7315L17.0851 43.4876C17.0851 43.4876 14.8353 43.8444 12.8369 43.8444C12.8369 42.9935 13.7338 42.2374 15.1656 41.8912C15.1656 41.8912 15.827 42.3419 16.9922 42.5898Z" fill="#5C2E29"/>
</g>
<path d="M28.8322 8.4105C28.8322 8.4105 26.6089 8.94264 24.4688 10.6302C21.616 11.1827 18.7482 13.1121 18.0425 16.2641C20.9033 19.627 29.8495 22.4771 29.8495 22.4771C29.8495 22.4771 36.2033 18.1545 38.6019 13.9753C36.8461 12.7375 34.9584 12.1523 34.9584 12.1523C34.9584 12.1523 31.2246 8.03243 28.8322 8.4105Z" fill="#6F9B92"/>
<path d="M28.0521 21.8502C25.287 20.8294 20.0966 18.6787 18.0425 16.265C18.0443 16.2597 18.2284 15.794 18.7057 15.1591C18.8154 15.2317 18.9385 15.3132 19.0713 15.4C18.8987 15.809 18.7154 16.3075 18.5844 16.8299C18.6711 16.9114 18.7597 16.992 18.8518 17.0725C18.9739 16.5333 19.1625 16.0083 19.3423 15.5771C19.5565 15.7161 19.7938 15.8692 20.0497 16.0313C19.885 16.5758 19.7646 17.2062 19.6814 17.7286C19.7761 17.7977 19.8718 17.8659 19.97 17.9332C20.0471 17.4178 20.1648 16.7662 20.326 16.2057C20.5739 16.3624 20.8386 16.5271 21.1158 16.698C20.9883 17.2354 20.8528 17.8544 20.7492 18.444C20.8448 18.5034 20.9413 18.5618 21.0387 18.6202C21.137 18.0412 21.2707 17.4196 21.3991 16.8715C21.6807 17.0424 21.9728 17.2186 22.2748 17.3966C22.1039 17.9624 21.9543 18.5618 21.8312 19.0762C21.9259 19.1285 22.0215 19.1807 22.1172 19.2321C22.2376 18.7256 22.3854 18.1262 22.5537 17.5604C22.8715 17.7463 23.1991 17.9349 23.5329 18.1226C23.4232 18.6415 23.3072 19.2232 23.2089 19.7943C23.3072 19.8421 23.4054 19.8899 23.5037 19.9377C23.5985 19.379 23.7118 18.8026 23.8198 18.2829C24.0642 18.4184 24.3112 18.5538 24.56 18.6875C24.4936 19.2507 24.4609 19.8589 24.4494 20.3787C24.5556 20.4265 24.6619 20.4743 24.7672 20.5212C24.777 20.0219 24.8035 19.4127 24.862 18.8478C25.2046 19.0293 25.5517 19.2073 25.897 19.379C25.8262 19.8749 25.7527 20.4088 25.6907 20.9197C25.7916 20.9622 25.8926 21.0038 25.9926 21.0454C26.0528 20.546 26.1246 20.0183 26.1954 19.526C26.5407 19.6934 26.8851 19.8545 27.226 20.0077C27.1915 20.4894 27.1711 21.0144 27.1587 21.512C27.265 21.5527 27.3695 21.5926 27.4704 21.6315C27.4819 21.1463 27.5014 20.6239 27.5324 20.1423C27.9662 20.33 28.3948 20.5026 28.8091 20.654C28.8056 20.8338 28.8021 21.0144 28.8003 21.195C28.7985 21.419 28.7976 21.6307 28.7985 21.8308C28.5471 21.8378 28.2983 21.844 28.0521 21.8502ZM29.112 21.8201C29.1102 21.466 29.1128 21.1074 29.119 20.7559C29.3926 20.5974 29.66 20.4371 29.9212 20.2742C29.9938 20.7452 30.0797 21.28 30.1621 21.7812C29.8088 21.7962 29.4582 21.8095 29.112 21.8201ZM30.4755 21.7661C30.3852 21.2057 30.2896 20.5974 30.2116 20.09C30.541 19.8793 30.8598 19.6659 31.1688 19.4499C31.252 19.9838 31.3512 20.6496 31.4406 21.3128C31.5336 21.2411 31.6301 21.1676 31.7293 21.0905C31.6372 20.4185 31.5371 19.7589 31.4565 19.2471C31.8444 18.97 32.2162 18.6893 32.5713 18.4086C32.7147 18.8017 32.8768 19.3507 33.0503 20.0254C33.1388 19.951 33.2283 19.8766 33.3177 19.8005C33.1619 19.2037 32.9936 18.6309 32.8289 18.2023C33.1645 17.9314 33.4859 17.6596 33.7923 17.3904C33.9472 17.8712 34.1181 18.4316 34.2633 18.9735C34.3519 18.8947 34.4395 18.815 34.5272 18.7336C34.3696 18.1607 34.1934 17.5967 34.0499 17.1611C34.4094 16.837 34.7476 16.5156 35.0655 16.2022C35.2957 16.6502 35.5038 17.1991 35.6587 17.6489C35.7411 17.5666 35.8225 17.4834 35.904 17.3992C35.742 16.9424 35.5321 16.4085 35.2966 15.9702C35.3001 15.9675 35.3028 15.964 35.3063 15.9604C35.6871 15.6532 36.0218 15.3716 36.2936 15.1379C36.5167 15.4566 36.7602 15.8383 36.9656 16.2385C37.04 16.1517 37.1135 16.0649 37.1852 15.9773C36.9807 15.5921 36.7478 15.2317 36.5353 14.9289C36.8656 14.6403 37.0559 14.4641 37.0559 14.4641L37.8554 15.1175C35.8509 17.8721 32.5288 20.5124 30.8642 21.7475C30.734 21.7537 30.6057 21.7608 30.4755 21.7661Z" fill="#93B8AE"/>
<path d="M29.9212 20.2741C29.9212 20.2732 29.9212 20.2732 29.9212 20.2732C30.0186 20.2121 30.1151 20.151 30.2116 20.09C30.116 20.1519 30.0186 20.213 29.9212 20.2741ZM27.5314 20.1422C27.4305 20.0979 27.3278 20.0528 27.226 20.0076C27.3278 20.0528 27.4305 20.0979 27.5314 20.1413V20.1422ZM31.1687 19.4498C31.1687 19.4498 31.1687 19.4498 31.1687 19.4489C31.2652 19.3816 31.3618 19.3143 31.4565 19.2462V19.247C31.3618 19.3152 31.2652 19.3825 31.1687 19.4498ZM32.5712 18.4085V18.4077C32.658 18.3386 32.7439 18.2704 32.8289 18.2014C32.8289 18.2022 32.8289 18.2022 32.8289 18.2022C32.7439 18.2713 32.658 18.3395 32.5712 18.4085ZM23.8207 18.2828C23.7233 18.2297 23.6285 18.1766 23.5329 18.1226C23.6276 18.1757 23.7242 18.2297 23.8207 18.2828ZM33.7922 17.3903C33.7922 17.3894 33.7922 17.3894 33.7922 17.3894C33.879 17.3133 33.9649 17.2363 34.0499 17.1601C34.0499 17.1601 34.0499 17.1601 34.0499 17.161C33.9649 17.2371 33.879 17.3133 33.7922 17.3903ZM35.0655 16.2021C35.0655 16.2012 35.0655 16.2012 35.0655 16.2012C35.1434 16.1233 35.2204 16.0463 35.2965 15.9701C35.2213 16.0471 35.1434 16.1242 35.0655 16.2021Z" fill="#93B8AE"/>
<path d="M28.7982 21.8308C28.7973 21.6307 28.7982 21.4191 28.7999 21.1951C28.8017 21.0153 28.8052 20.8338 28.8088 20.6541C28.9106 20.6912 29.0107 20.7267 29.1107 20.7612C29.1134 20.7594 29.116 20.7577 29.1187 20.7559C29.1125 21.1074 29.1098 21.466 29.1116 21.821C29.0062 21.8237 28.9017 21.8272 28.7982 21.8308ZM30.1617 21.7803C30.0793 21.2801 29.9935 20.7453 29.9209 20.2742C30.0183 20.2131 30.1157 20.152 30.2113 20.0901C30.2892 20.5974 30.3848 21.2057 30.4751 21.767C30.3707 21.7715 30.2653 21.7759 30.1617 21.7803ZM27.47 21.6316C27.3691 21.5935 27.2646 21.5528 27.1584 21.512C27.1708 21.0144 27.1911 20.4894 27.2257 20.0077C27.3275 20.0529 27.4302 20.098 27.5311 20.1423C27.5001 20.624 27.4815 21.1464 27.47 21.6316ZM31.4402 21.3128C31.3508 20.6496 31.2516 19.9838 31.1684 19.4499C31.2649 19.3826 31.3614 19.3153 31.4562 19.2471C31.5367 19.7589 31.6368 20.4185 31.7289 21.0906C31.6297 21.1676 31.5332 21.242 31.4402 21.3128ZM25.9923 21.0454C25.8922 21.0038 25.7913 20.9622 25.6895 20.9197C25.7523 20.4088 25.8249 19.874 25.8966 19.3791C25.9967 19.4286 26.0959 19.4773 26.195 19.526C26.1242 20.0183 26.0525 20.546 25.9923 21.0454ZM24.7668 20.5212C24.6615 20.4743 24.5552 20.4265 24.449 20.3787C24.4605 19.859 24.4933 19.2507 24.5597 18.6875C24.6597 18.7407 24.7607 18.7947 24.8616 18.8478C24.8032 19.4127 24.7757 20.0219 24.7668 20.5212ZM33.0499 20.0254C32.8773 19.3507 32.7135 18.8018 32.5709 18.4086C32.6577 18.3396 32.7436 18.2714 32.8286 18.2023C32.9933 18.6309 33.1615 19.2037 33.3173 19.8005C33.2279 19.8767 33.1385 19.951 33.0499 20.0254ZM23.5034 19.9378C23.4051 19.8899 23.3068 19.8421 23.2085 19.7943C23.3068 19.2232 23.4228 18.6415 23.5326 18.1227C23.6282 18.1767 23.7238 18.2298 23.8203 18.2838C23.7114 18.8027 23.5981 19.3791 23.5034 19.9378ZM22.1168 19.2321C22.0212 19.1807 21.9255 19.1285 21.8299 19.0762C21.9539 18.5618 22.1035 17.9624 22.2744 17.3966C22.3665 17.4515 22.4595 17.5055 22.5533 17.5604C22.3851 18.1262 22.2372 18.7256 22.1168 19.2321ZM34.2629 18.9735C34.1177 18.4317 33.9468 17.8712 33.7919 17.3904C33.8787 17.3134 33.9646 17.2372 34.0496 17.1611C34.1921 17.5967 34.3692 18.1607 34.5268 18.7345C34.4391 18.815 34.3506 18.8947 34.2629 18.9735ZM21.0384 18.6203C20.941 18.5618 20.8445 18.5034 20.7488 18.4441C20.8524 17.8544 20.9879 17.2355 21.1145 16.698C21.2084 16.7556 21.3031 16.8131 21.3987 16.8716C21.2703 17.4196 21.1366 18.0412 21.0384 18.6203ZM19.9697 17.9332C19.8714 17.8659 19.7758 17.7977 19.681 17.7286C19.7642 17.2062 19.8847 16.5767 20.0493 16.0313C20.1388 16.0889 20.2309 16.1473 20.3256 16.2066C20.1636 16.7662 20.0467 17.4179 19.9697 17.9332ZM35.6584 17.6498C35.5025 17.1992 35.2953 16.6502 35.0642 16.2022C35.143 16.1243 35.221 16.0472 35.2962 15.9702C35.5317 16.4085 35.7416 16.9424 35.9036 17.3993C35.8222 17.4834 35.7398 17.5666 35.6584 17.6498ZM18.8514 17.0725C18.7593 16.992 18.6708 16.9114 18.584 16.8299C18.715 16.3075 18.8983 15.8091 19.071 15.4C19.1568 15.4567 19.2472 15.516 19.3419 15.5771C19.1613 16.0083 18.9736 16.5333 18.8514 17.0725ZM36.9652 16.2385C36.7598 15.8383 36.5163 15.4567 36.2932 15.1379C36.38 15.0635 36.4605 14.9936 36.5349 14.929C36.7474 15.2318 36.9803 15.5921 37.1848 15.9773C37.1131 16.0649 37.0396 16.1517 36.9652 16.2385Z" fill="#B1CDC3"/>
<path d="M16.5816 22.9084C16.3293 22.9084 16.1256 22.7047 16.1256 22.4524C16.1256 22.2 16.3293 21.9955 16.5816 21.9955C16.8331 21.9955 17.0376 22.2 17.0376 22.4524C17.0376 22.7047 16.8331 22.9084 16.5816 22.9084ZM16.5816 21.6174C16.1212 21.6174 15.7476 21.9911 15.7476 22.4524C15.7476 22.9128 16.1212 23.2873 16.5816 23.2873C17.042 23.2873 17.4157 22.9128 17.4157 22.4524C17.4157 21.9911 17.042 21.6174 16.5816 21.6174Z" fill="#687B99"/>
<path d="M14.7983 17.463C14.7983 17.463 15.4801 20.8028 15.7475 21.7272C16.2141 22.1814 16.393 22.2735 16.393 22.2735H16.8127C16.8127 22.2735 17.1057 21.7688 17.1482 21.3704C17.1899 20.971 16.4762 17.2319 16.4762 17.2319C16.4762 17.2319 15.5952 16.8539 14.7983 17.463Z" fill="#B9444B"/>
<path d="M15.9744 24.9413C15.9744 24.9413 16.8758 25.0883 17.3158 24.9413C17.4841 24.0382 17.3158 23.1315 17.3158 23.1315L16.8749 22.8021C16.8749 22.8021 16.449 22.8358 16.3507 22.8021C16.2525 22.7676 15.8478 23.5547 15.8478 23.5547C15.8478 23.5547 15.7026 24.3737 15.9744 24.9413Z" fill="#A43038"/>
<path d="M18.0424 21.6172C18.0424 21.6172 32.0585 22.7833 42.6959 20.1758C43.2236 20.8868 42.6959 21.9944 42.6959 21.9944C42.6959 21.9944 30.8897 24.648 17.914 22.9985C17.1162 22.7355 16.9524 22.7169 16.9524 22.7169L16.8647 22.3362L18.0424 21.6172Z" fill="#B9444B"/>
<path d="M38.593 13.9698C38.593 13.9689 38.593 13.9689 38.593 13.9689C38.5904 13.968 38.5877 13.9662 38.586 13.9645C38.5877 13.9662 38.5904 13.968 38.593 13.9698ZM38.586 13.9645H38.5851C38.5833 13.9627 38.5806 13.9609 38.5789 13.9591C38.5789 13.9591 38.5789 13.9591 38.578 13.9591C38.5806 13.9609 38.5833 13.9627 38.586 13.9645ZM38.5771 13.9583C38.5744 13.9565 38.5727 13.9547 38.57 13.9529C38.5674 13.9512 38.5647 13.9503 38.5629 13.9485C38.5629 13.9485 38.5621 13.9485 38.5621 13.9476C38.5674 13.9512 38.5727 13.9547 38.5771 13.9583ZM38.5621 13.9476C36.878 12.77 35.0859 12.1927 34.9646 12.1538C35.0859 12.1927 36.878 12.7709 38.5621 13.9476Z" fill="#A5A7A6"/>
<path d="M38.5903 13.9935C38.5912 13.9927 38.5912 13.9927 38.5921 13.9918C38.5912 13.9918 38.5912 13.9927 38.5903 13.9935Z" fill="#DB4E29"/>
<path d="M29.1111 19.695C34.2562 16.5704 35.587 13.166 35.587 13.166C35.587 13.166 35.5392 13.0889 34.8238 13.0889C34.5945 13.0889 34.2961 13.0969 33.9091 13.1173C29.923 16.3968 26.7417 16.7492 26.7417 16.7492C26.7417 16.7492 32.9857 12.779 32.6501 11.7998C31.6549 10.291 30.3152 9.1621 29.1651 8.38647C31.5318 8.3971 34.8955 12.084 34.9575 12.1513V12.1522H34.9584C34.9584 12.1522 34.9601 12.153 34.9646 12.1539C35.0859 12.1929 36.8779 12.7702 38.562 13.9478C38.2406 13.7238 37.9157 13.521 37.5996 13.3395C37.5004 13.4688 37.395 13.6033 37.2826 13.7432C37.2179 13.8238 37.1515 13.9062 37.0825 13.9903C36.8806 14.2373 36.6593 14.4967 36.4202 14.7686C36.3494 14.8482 36.2776 14.9288 36.2033 15.0103C36.2033 15.0103 36.2041 15.0103 36.2041 15.0112C35.9279 15.3166 35.6286 15.6345 35.3063 15.9603C33.6577 17.292 31.1449 19.1142 29.1111 19.695Z" fill="#4F7D75"/>
<path d="M38.595 13.9709C38.5941 13.9701 38.5932 13.9701 38.5932 13.9692C38.5932 13.9701 38.5932 13.9701 38.5932 13.9701C38.5932 13.9701 38.5941 13.9701 38.5941 13.9709C38.5941 13.9709 38.5941 13.9709 38.595 13.9709ZM38.5861 13.9647C38.5852 13.9647 38.5852 13.9647 38.5852 13.9638C38.5852 13.9638 38.5852 13.9647 38.5861 13.9647ZM38.579 13.9593C38.5781 13.9593 38.5781 13.9585 38.5772 13.9585C38.5781 13.9585 38.5781 13.9593 38.5781 13.9593C38.579 13.9593 38.579 13.9593 38.579 13.9593ZM38.5629 13.9486C38.562 13.9486 38.562 13.9478 38.562 13.9478C38.562 13.9486 38.5629 13.9486 38.5629 13.9486Z" fill="#BFC0BE"/>
<path d="M35.3062 15.9604C35.6284 15.6346 35.9277 15.3167 36.204 15.0113C36.2332 15.052 36.2633 15.0945 36.2934 15.1379C36.0216 15.3716 35.6869 15.6532 35.3062 15.9604ZM37.8553 15.1175L37.0557 14.4641C37.0557 14.4641 36.8654 14.6403 36.5351 14.9289C36.4953 14.874 36.4572 14.82 36.42 14.7687C36.6591 14.4968 36.8804 14.2374 37.0823 13.9904C37.3913 14.3118 37.6684 14.7014 37.8907 15.0679C37.9571 14.9758 38.0226 14.8829 38.0864 14.7899C37.8774 14.4561 37.6038 14.0727 37.2824 13.7433C37.3949 13.6035 37.5002 13.4689 37.5994 13.3396C37.9155 13.5211 38.2404 13.7239 38.5618 13.9479C38.5618 13.9479 38.5618 13.9488 38.5627 13.9488C38.5645 13.9505 38.5671 13.9514 38.5698 13.9532C38.5725 13.955 38.5742 13.9567 38.5769 13.9585C38.5778 13.9594 38.5778 13.9594 38.5787 13.9594C38.5804 13.9612 38.5831 13.9629 38.5849 13.9647C38.5857 13.9647 38.5857 13.9647 38.5857 13.9647C38.5875 13.9665 38.5902 13.9682 38.5928 13.9691C38.5928 13.97 38.5937 13.9709 38.5946 13.9709C38.5964 13.9727 38.599 13.9744 38.6008 13.9753C38.5999 13.978 38.5981 13.9806 38.5964 13.9833C38.5964 13.9842 38.5955 13.9851 38.5955 13.986C38.5946 13.9877 38.5928 13.9904 38.5919 13.9922C38.591 13.993 38.591 13.993 38.5902 13.9939C38.5893 13.9966 38.5875 13.9992 38.5857 14.0019C38.5857 14.0028 38.5857 14.0028 38.5849 14.0037C38.584 14.0063 38.5822 14.0081 38.5813 14.0107C38.5804 14.0107 38.5804 14.0116 38.5804 14.0116C38.367 14.38 38.1227 14.7501 37.8553 15.1175Z" fill="#77A39B"/>
<path d="M36.2031 15.0104C36.2766 14.929 36.3492 14.8484 36.4201 14.7687C36.3492 14.8484 36.2775 14.929 36.2031 15.0104Z" fill="#77A39B"/>
<path d="M36.2935 15.1379C36.2634 15.0946 36.2333 15.0521 36.2041 15.0113C36.2776 14.929 36.3493 14.8484 36.4201 14.7687C36.4573 14.8201 36.4954 14.8741 36.5352 14.929C36.4609 14.9936 36.3812 15.0636 36.2935 15.1379ZM37.8908 15.068C37.6686 14.7014 37.3914 14.3118 37.0824 13.9904C37.1515 13.9063 37.2179 13.824 37.2825 13.7434C37.6031 14.0719 37.8775 14.4562 38.0865 14.7909C38.0227 14.8829 37.9572 14.9759 37.8908 15.068Z" fill="#9BBFB3"/>
<path d="M18.0425 16.265C18.1337 15.8568 18.2612 15.469 18.4206 15.1025C18.2656 15.4584 18.1408 15.8338 18.0504 16.2287C18.0478 16.2411 18.0451 16.2526 18.0425 16.265ZM20.8909 12.1381C21.74 11.5378 22.7033 11.0951 23.6879 10.8162C22.7033 11.0951 21.7409 11.5378 20.8909 12.1381Z" fill="white"/>
<path d="M18.0508 16.2297C18.1411 15.834 18.2659 15.4585 18.4209 15.1026C18.9477 13.8869 19.8216 12.8997 20.8699 12.1542C20.877 12.1489 20.8832 12.1444 20.8903 12.1391H20.8912C21.7412 11.5379 22.7028 11.0952 23.6882 10.8163C23.9477 10.7428 24.2089 10.6808 24.4692 10.6304C24.9411 10.2585 25.4166 9.94328 25.8708 9.67677C27.4805 8.7338 28.8325 8.41062 28.8325 8.41062C28.8467 8.40885 28.8599 8.4062 28.8732 8.40443C28.9653 8.39203 29.0592 8.38672 29.1548 8.38672C29.1583 8.38672 29.1619 8.38672 29.1654 8.38672C27.6939 8.7825 26.0222 10.8048 26.0222 10.8048L26.9864 12.024L24.4692 11.5193C24.4692 11.5193 24.4692 11.5193 23.4208 12.024C23.9238 12.781 27.9515 14.041 27.9515 14.041C27.9515 14.041 24.3434 13.956 21.9103 12.6349C20.2856 13.3814 19.2824 14.3934 18.706 15.1593C18.6192 15.1017 18.5395 15.0477 18.4678 14.9999C18.2925 15.3868 18.1499 15.7959 18.0508 16.2297Z" fill="#93B8AE"/>
<path d="M18.0425 16.265C18.0451 16.2526 18.0478 16.2411 18.0504 16.2296C18.1496 15.7957 18.2922 15.3867 18.4675 14.9998C18.5392 15.0476 18.6189 15.1007 18.7057 15.1591C18.2284 15.794 18.0443 16.2597 18.0425 16.2641" fill="#B1CDC3"/>
<path d="M19.4986 22.6382C19.403 22.601 19.3464 22.4983 19.3694 22.3947C19.3915 22.2956 19.4792 22.2283 19.5766 22.2283C19.5916 22.2283 19.6076 22.23 19.6226 22.2327C19.7377 22.2584 19.8094 22.3717 19.7838 22.4868C19.7696 22.5532 19.7253 22.6046 19.6695 22.632C19.6722 22.5187 19.6633 22.4301 19.635 22.4009C19.6315 22.3974 19.627 22.3947 19.6235 22.393C19.6138 22.3894 19.6058 22.3876 19.5978 22.3876C19.5836 22.3876 19.5713 22.3938 19.5615 22.4062C19.5349 22.4363 19.519 22.5054 19.5022 22.6134C19.5013 22.6214 19.5004 22.6303 19.4986 22.6382Z" fill="#A43038"/>
<path d="M18.6363 25.6637C18.6363 25.6637 18.4902 24.7632 19.0888 24.1549C18.8984 23.7237 19.2101 23.4227 19.3951 23.4218C19.5129 22.6639 19.4925 22.339 19.6236 22.393C19.7546 22.4479 19.5651 23.451 19.5651 23.451C19.5651 23.451 20.1274 23.5759 19.8237 24.2585C20.0742 24.61 20.2097 25.2892 19.8715 25.9391C19.566 25.9886 18.6363 25.6637 18.6363 25.6637Z" fill="#6F9B92"/>
<path d="M19.7975 25.9444C19.6001 25.9444 19.2681 25.8594 19.0095 25.7833C18.936 25.7611 18.8687 25.7408 18.8121 25.7222C18.7058 25.6876 18.6368 25.6637 18.6368 25.6637C18.6368 25.6637 18.6341 25.6513 18.6323 25.6319L19.0892 25.6717L19.3291 24.9333L19.3752 25.7107L19.539 25.8063C19.539 25.8063 19.771 25.3689 19.7373 24.9147C19.7116 24.5702 19.2521 24.333 19.021 24.232C19.0423 24.2072 19.0626 24.1824 19.0857 24.1585C19.0865 24.1568 19.0883 24.1559 19.0892 24.155C19.0901 24.155 19.1804 24.1745 19.2875 24.1745C19.4133 24.1745 19.562 24.147 19.6178 24.0275C19.7205 23.8061 19.3956 23.4219 19.3956 23.4219C19.4531 23.0509 19.4779 22.7835 19.5027 22.6135C19.5195 22.5055 19.5354 22.4364 19.562 22.4063C19.5718 22.3939 19.5841 22.3877 19.5983 22.3877C19.6063 22.3877 19.6143 22.3895 19.624 22.393C19.6284 22.3948 19.632 22.3974 19.6355 22.401C19.6638 22.4302 19.6727 22.5187 19.67 22.6321C19.6647 22.7985 19.6355 23.0208 19.6098 23.1908C19.5868 23.3404 19.5656 23.4511 19.5656 23.4511C19.5656 23.4511 19.7568 23.4936 19.856 23.6645C19.9268 23.7867 19.9507 23.9744 19.8241 24.2586C19.9383 24.4188 20.0286 24.6473 20.0614 24.9094C20.0995 25.2228 20.0561 25.5858 19.8719 25.9391C19.8569 25.9418 19.8409 25.9435 19.8232 25.9435C19.8152 25.9444 19.8064 25.9444 19.7975 25.9444Z" fill="#4F7D75"/>
<path d="M23.2901 22.9479C23.1874 22.9409 23.1024 22.8594 23.0935 22.754C23.0838 22.6363 23.1706 22.5336 23.2874 22.5238C23.2936 22.5238 23.2989 22.5229 23.3051 22.5229C23.4149 22.5229 23.5079 22.6071 23.5167 22.7186C23.5221 22.7859 23.4964 22.8488 23.4503 22.8913C23.4158 22.7682 23.3769 22.6806 23.3361 22.677C23.3326 22.6761 23.3299 22.6761 23.3273 22.6761C23.322 22.6761 23.3166 22.677 23.3122 22.6779C23.26 22.6912 23.2617 22.7762 23.2901 22.9479Z" fill="#A43038"/>
<path d="M23.3647 26.094C23.3647 26.094 22.9592 25.2768 23.3488 24.518C23.0389 24.1638 23.247 23.7831 23.4232 23.7273C23.3107 22.9685 23.1947 22.6639 23.3364 22.6772C23.4772 22.6896 23.5949 23.7043 23.5949 23.7043C23.5949 23.7043 24.1678 23.6564 24.0819 24.3984C24.4246 24.6587 24.7557 25.267 24.6265 25.9886C24.3493 26.1268 23.3647 26.094 23.3647 26.094Z" fill="#6F9B92"/>
<path d="M23.6177 26.0975C23.4787 26.0975 23.3796 26.094 23.3663 26.094C23.3654 26.094 23.3645 26.094 23.3645 26.094C23.3645 26.094 23.3601 26.0825 23.3521 26.0648L23.8001 25.9665L23.809 25.1891L24.0844 25.9178L24.2694 25.9603C24.2694 25.9603 24.3606 25.4733 24.1933 25.0501C24.0667 24.7287 23.5575 24.6392 23.307 24.6118C23.3194 24.5817 23.3318 24.5516 23.3468 24.5215C23.3477 24.5197 23.3486 24.5188 23.3486 24.5179C23.3512 24.5171 23.7833 24.4807 23.8152 24.239C23.848 23.9964 23.423 23.7264 23.423 23.7264C23.3964 23.5449 23.3689 23.389 23.345 23.258C23.3229 23.134 23.3034 23.0313 23.2901 22.9481C23.2618 22.7763 23.26 22.6913 23.3123 22.678C23.3167 22.6772 23.322 22.6763 23.3273 22.6763C23.33 22.6763 23.3326 22.6763 23.3362 22.6772C23.3769 22.6807 23.4159 22.7684 23.4504 22.8914C23.4982 23.0605 23.5381 23.2969 23.5637 23.4714C23.5832 23.6068 23.5947 23.7042 23.5947 23.7042C23.5947 23.7042 23.6018 23.7034 23.6151 23.7034C23.6691 23.7034 23.817 23.714 23.933 23.8202C24.0383 23.915 24.118 24.0876 24.0817 24.3984C24.2862 24.5534 24.4863 24.8323 24.5873 25.1847C24.6563 25.4237 24.6785 25.6964 24.6262 25.9886C24.5917 26.0054 24.5457 26.0205 24.4925 26.0329C24.4917 26.0329 24.4917 26.0329 24.4917 26.0329C24.2561 26.0869 23.871 26.0975 23.6177 26.0975Z" fill="#4F7D75"/>
<path d="M27.7885 23.0808C27.6893 23.0534 27.6229 22.956 27.6353 22.8506C27.6486 22.7426 27.7406 22.6638 27.846 22.6638C27.8549 22.6638 27.8637 22.6638 27.8726 22.6656C27.9886 22.6798 28.0718 22.786 28.0576 22.902C28.0488 22.9693 28.0107 23.0251 27.9576 23.0578C27.9478 22.9312 27.9275 22.8365 27.8885 22.825C27.8805 22.8223 27.8735 22.8214 27.8673 22.8214C27.8664 22.8214 27.8664 22.8214 27.8655 22.8214C27.8628 22.8214 27.8602 22.8214 27.8566 22.8223C27.8097 22.8329 27.7955 22.9162 27.7885 23.0808Z" fill="#A43038"/>
<path d="M27.2238 26.1762C27.2238 26.1762 26.9918 25.2943 27.5275 24.6293C27.2955 24.2203 27.5762 23.8891 27.7604 23.8705C27.8037 23.1046 27.7515 22.7832 27.8879 22.8249C28.0233 22.8665 27.933 23.8829 27.933 23.8829C27.933 23.8829 28.5041 23.9529 28.2695 24.6621C28.5528 24.9862 28.7538 25.6493 28.4802 26.3293C28.1809 26.409 27.2238 26.1762 27.2238 26.1762Z" fill="#6F9B92"/>
<path d="M28.3125 26.3464C27.938 26.3464 27.281 26.1905 27.2279 26.1773C27.2253 26.1773 27.2244 26.1764 27.2244 26.1764C27.2244 26.1764 27.2217 26.1649 27.2173 26.1454L27.6759 26.1401L27.8424 25.3813L27.9646 26.1507L28.1372 26.2295C28.1372 26.2295 28.3249 25.7717 28.247 25.3228C28.1877 24.9828 27.7078 24.7916 27.4679 24.7137C27.4865 24.6871 27.5042 24.6605 27.5245 24.6349C27.5254 24.6331 27.5272 24.6313 27.5281 24.6296C27.529 24.6296 27.5715 24.6349 27.6317 24.6349C27.7645 24.6349 27.9858 24.6101 28.0416 24.4525C28.1222 24.2214 27.7609 23.8708 27.7609 23.8708C27.7769 23.598 27.7804 23.3811 27.784 23.2173C27.7848 23.1668 27.7866 23.1217 27.7884 23.081C27.7955 22.9163 27.8096 22.833 27.8566 22.8224C27.8592 22.8215 27.8628 22.8215 27.8654 22.8215C27.8663 22.8215 27.8663 22.8215 27.8672 22.8215C27.8734 22.8215 27.8805 22.8224 27.8884 22.8251C27.9274 22.8366 27.9478 22.9313 27.9566 23.0579C27.9663 23.197 27.9637 23.3758 27.9566 23.5308C27.9478 23.7247 27.9336 23.8831 27.9336 23.8831C27.9336 23.8831 28.1107 23.9053 28.2267 24.0461C28.3196 24.1594 28.3736 24.348 28.2692 24.6623C28.4365 24.8536 28.5746 25.1626 28.6047 25.5229C28.6251 25.7744 28.5932 26.0506 28.4808 26.3296C28.4516 26.3375 28.417 26.342 28.3763 26.3446C28.3568 26.3455 28.3347 26.3464 28.3125 26.3464Z" fill="#4F7D75"/>
<path d="M31.9623 22.8675C31.8631 22.8427 31.7932 22.7471 31.8038 22.6418C31.8135 22.5311 31.9056 22.4487 32.0145 22.4487C32.0207 22.4487 32.0278 22.4487 32.034 22.4496C32.1518 22.4602 32.2368 22.5638 32.2261 22.6807C32.2199 22.748 32.1828 22.8056 32.1305 22.8392C32.1199 22.7312 32.1013 22.6471 32.0712 22.6178C32.0668 22.6134 32.0615 22.6099 32.0553 22.6081C32.0482 22.6063 32.0411 22.6054 32.0358 22.6054C31.9791 22.6054 31.9649 22.6896 31.9623 22.8675Z" fill="#A43038"/>
<path d="M31.4866 25.978C31.4866 25.978 31.2289 25.1023 31.746 24.4232C31.5025 24.0204 31.7734 23.6821 31.9576 23.6573C31.9788 22.8906 31.9178 22.5709 32.055 22.6081C32.1913 22.6462 32.1303 23.6653 32.1303 23.6653C32.1303 23.6653 32.7031 23.7184 32.488 24.4338C32.7802 24.7508 33.0006 25.4078 32.7465 26.0949C32.4499 26.1834 31.4866 25.978 31.4866 25.978Z" fill="#6F9B92"/>
<path d="M32.5357 26.117C32.1807 26.117 31.6202 26.0046 31.5068 25.9816C31.506 25.9816 31.5051 25.9816 31.5042 25.9816C31.498 25.9798 31.4927 25.9789 31.49 25.978C31.4874 25.978 31.4865 25.9771 31.4865 25.9771C31.4865 25.9771 31.4829 25.9656 31.4785 25.9461L31.9363 25.9284L32.0815 25.1652L32.2258 25.9302L32.4002 26.0046C32.4002 26.0046 32.5755 25.5415 32.4843 25.0953C32.4162 24.757 31.9301 24.5791 31.6884 24.5082C31.7061 24.4808 31.7229 24.4542 31.7424 24.4277C31.7441 24.4259 31.745 24.425 31.7459 24.4232C31.7468 24.4232 31.776 24.4259 31.8194 24.4259C31.946 24.4259 32.1992 24.4029 32.2541 24.2302C32.3285 23.9973 31.9575 23.6573 31.9575 23.6573C31.9646 23.3926 31.9628 23.1819 31.962 23.0198C31.962 22.9623 31.962 22.9127 31.962 22.8676C31.9646 22.6896 31.9788 22.6055 32.0354 22.6055C32.0416 22.6055 32.0478 22.6064 32.0549 22.6081C32.0611 22.6099 32.0664 22.6134 32.0709 22.6179C32.101 22.6471 32.1196 22.7312 32.1302 22.8401C32.1452 22.9942 32.1461 23.1978 32.1417 23.3643C32.1382 23.5343 32.1302 23.6653 32.1302 23.6653C32.1302 23.6653 32.4171 23.6919 32.5083 23.961C32.5463 24.0717 32.5508 24.2249 32.4879 24.4339C32.5844 24.5383 32.6729 24.68 32.7393 24.8473C32.7393 24.8473 32.7393 24.8482 32.7402 24.8482C32.7615 24.9031 32.781 24.9616 32.7978 25.0218C32.8819 25.3334 32.889 25.7097 32.7464 26.0949C32.7163 26.1037 32.6791 26.1099 32.6366 26.1135C32.6057 26.1153 32.572 26.117 32.5357 26.117Z" fill="#4F7D75"/>
<path d="M36.2775 22.4177C36.1765 22.4018 36.0986 22.3141 36.0986 22.2079C36.0986 22.0901 36.1934 21.9954 36.3111 21.9954C36.428 21.9954 36.5227 22.0901 36.5227 22.2079C36.5227 22.2752 36.4918 22.3354 36.4422 22.3743C36.4192 22.253 36.3882 22.1645 36.3501 22.1521C36.3483 22.1521 36.3474 22.1512 36.3457 22.1512C36.3412 22.1503 36.3368 22.1503 36.3333 22.1503C36.3324 22.1503 36.3315 22.1503 36.3315 22.1503C36.2704 22.1503 36.2633 22.2344 36.2775 22.4177Z" fill="#A43038"/>
<path d="M36.0916 25.5583C36.0916 25.5583 35.7542 24.711 36.2067 23.9867C35.9269 23.6078 36.1651 23.2456 36.3466 23.2049C36.297 22.439 36.2067 22.1265 36.3466 22.1513C36.4856 22.1761 36.5192 23.1969 36.5192 23.1969C36.5192 23.1969 37.0948 23.1969 36.946 23.9292C37.2665 24.2169 37.5463 24.8509 37.3577 25.5583C37.0691 25.6735 36.0916 25.5583 36.0916 25.5583Z" fill="#6F9B92"/>
<path d="M36.9009 25.6097C36.5325 25.6097 36.1066 25.5601 36.0916 25.5584C36.0916 25.5584 36.0872 25.5468 36.0801 25.5283L36.5352 25.468L36.6087 24.6942L36.8229 25.4433L37.0036 25.5008C37.0036 25.5008 37.1355 25.0236 37.0036 24.5879C36.9035 24.2568 36.4041 24.1249 36.1562 24.0771C36.1722 24.0478 36.1863 24.0195 36.204 23.9903C36.2049 23.9894 36.2058 23.9876 36.2058 23.9867C36.2093 23.9867 36.6423 23.9859 36.6946 23.7477C36.7468 23.5095 36.3457 23.2049 36.3457 23.2049C36.3271 22.9074 36.3014 22.679 36.2864 22.5116C36.2828 22.478 36.2802 22.447 36.2784 22.4178C36.2634 22.2345 36.2704 22.1504 36.3315 22.1504C36.3324 22.1504 36.3324 22.1504 36.3333 22.1504C36.3368 22.1504 36.3413 22.1504 36.3457 22.1513C36.3475 22.1513 36.3484 22.1522 36.3501 22.1522C36.3882 22.1637 36.4192 22.2531 36.4422 22.3744C36.4767 22.5506 36.4971 22.795 36.5077 22.9712C36.5157 23.1022 36.5184 23.197 36.5184 23.197C36.5184 23.197 36.768 23.197 36.8964 23.4059C36.9628 23.5139 36.9965 23.6786 36.946 23.9292C36.9469 23.9301 36.9487 23.931 36.9496 23.9318C36.9584 23.9398 36.9682 23.9487 36.977 23.9584C36.9779 23.9584 36.9779 23.9593 36.9788 23.9602C36.9814 23.9628 36.9841 23.9655 36.9876 23.9682C36.9956 23.9761 37.0036 23.9841 37.0115 23.9929C37.0133 23.9947 37.0151 23.9974 37.0168 23.9983C37.1178 24.108 37.2116 24.2524 37.2825 24.4206C37.2825 24.4215 37.2834 24.4215 37.2834 24.4215C37.2834 24.4233 37.2842 24.425 37.2851 24.4268V24.4277C37.286 24.4295 37.2869 24.4312 37.2878 24.433C37.4162 24.7447 37.4693 25.1387 37.3568 25.5584C37.3329 25.5681 37.3046 25.5761 37.2718 25.5832C37.1736 25.6026 37.0416 25.6097 36.9009 25.6097Z" fill="#4F7D75"/>
<path d="M40.7818 21.8432C40.6844 21.8113 40.6224 21.7113 40.641 21.6059C40.6587 21.5023 40.7481 21.4297 40.8499 21.4297C40.8615 21.4297 40.8739 21.4306 40.8862 21.4323C41.0014 21.4527 41.0793 21.5625 41.0598 21.6785C41.0483 21.7449 41.0067 21.7989 40.9518 21.829C40.9491 21.7015 40.9332 21.6068 40.8942 21.5926C40.8854 21.5891 40.8783 21.5882 40.8703 21.5882C40.8703 21.5882 40.8703 21.5882 40.8694 21.5882C40.8641 21.5882 40.8588 21.5891 40.8535 21.5908C40.8136 21.6077 40.7959 21.6909 40.7818 21.8432Z" fill="#A43038"/>
<path d="M40.0672 24.9075C40.0672 24.9075 39.8786 24.015 40.4461 23.3775C40.2345 22.9569 40.5311 22.6408 40.7162 22.6311C40.7968 21.8679 40.7605 21.5447 40.8942 21.5925C41.0278 21.6403 40.888 22.6523 40.888 22.6523C40.888 22.6523 41.4546 22.7497 41.1855 23.4466C41.452 23.7848 41.6211 24.4568 41.3147 25.1218C41.0119 25.1864 40.0672 24.9075 40.0672 24.9075Z" fill="#6F9B92"/>
<path d="M41.2006 25.1313C40.9642 25.1313 40.5755 25.0428 40.3196 24.9764C40.3134 24.9746 40.3072 24.9737 40.301 24.972C40.2983 24.9711 40.2957 24.9702 40.293 24.9693C40.2 24.9454 40.1266 24.925 40.0911 24.9144C40.0867 24.9126 40.0823 24.9117 40.0787 24.9109C40.0787 24.9109 40.077 24.91 40.0761 24.91C40.0734 24.9091 40.0708 24.9091 40.0699 24.9082C40.0681 24.9073 40.0672 24.9073 40.0672 24.9073C40.0672 24.9073 40.0646 24.8949 40.061 24.8754L40.5197 24.8932L40.7233 24.1432L40.8074 24.9179L40.9757 25.0056C40.9757 25.0056 41.1864 24.5567 41.1306 24.1051C41.0881 23.7625 40.6171 23.5473 40.3816 23.4579C40.4019 23.4322 40.4214 23.4057 40.4435 23.3809C40.4444 23.3791 40.4453 23.3782 40.4462 23.3773C40.4462 23.3773 40.5126 23.3888 40.5994 23.3888C40.7331 23.3888 40.9119 23.3623 40.9677 23.225C41.0598 22.9992 40.7162 22.6309 40.7162 22.6309C40.749 22.321 40.7623 22.0837 40.7756 21.9137C40.7782 21.8889 40.7791 21.8659 40.7818 21.8438C40.7959 21.6906 40.8128 21.6083 40.8535 21.5914C40.8588 21.5888 40.8632 21.5879 40.8694 21.5879H40.8703C40.8774 21.5879 40.8854 21.5888 40.8942 21.5923C40.9332 21.6065 40.9482 21.7012 40.9509 21.8287C40.9544 21.9784 40.9403 22.1732 40.9243 22.3361C40.9066 22.5132 40.888 22.6522 40.888 22.6522C40.888 22.6522 40.8924 22.653 40.9013 22.6548C40.9447 22.6654 41.0801 22.7062 41.1713 22.8275C41.259 22.9443 41.305 23.1365 41.1846 23.4464C41.3644 23.673 41.499 24.0511 41.4759 24.4761C41.4644 24.6842 41.4148 24.9029 41.3148 25.1216C41.2935 25.126 41.2705 25.1287 41.244 25.1304C41.2307 25.1313 41.2165 25.1313 41.2006 25.1313Z" fill="#4F7D75"/>
<path d="M5.08002 10.1644C5.08002 10.1644 4.86044 13.0358 4.27783 14.0257C4.63997 14.2604 5.08002 14.2126 5.08002 14.2126C5.08002 14.2126 5.97695 11.6608 5.88309 10.1644C5.30049 10.0378 5.08002 10.1644 5.08002 10.1644Z" fill="#B9444B"/>
<path d="M6.88975 16.1508C6.93668 16.1508 10.6182 15.2211 12.1757 12.9837C11.7569 12.8004 11.6568 12.9049 11.6568 12.9049C11.6568 12.9049 9.13428 15.0954 6.69053 15.6621C6.68522 16.088 6.88975 16.1508 6.88975 16.1508Z" fill="#A43038"/>
<path d="M5.33272 12.0237C5.33272 12.0237 9.596 12.5275 12.1761 11.6448C12.5701 12.2593 12.5852 13.1659 12.5852 13.1659C12.5852 13.1659 9.03022 13.8973 5.15918 13.0473C5.39559 12.2911 5.33272 12.0237 5.33272 12.0237Z" fill="#B9444B"/>
<path d="M5.11528 12.4003C5.11528 12.4003 1.6294 22.2736 5.04002 23.7522C8.45065 25.2308 14.4918 16.2509 14.4918 16.2509C14.4918 16.2509 14.6494 15.8419 14.1456 15.7471C13.7056 16.5192 7.28632 25.199 5.11528 23.1351C2.94335 21.072 4.72924 15.2203 5.6182 12.7243C5.49247 12.0921 5.11528 12.4003 5.11528 12.4003Z" fill="#A43038"/>
<path d="M5.31287 12.8852C5.2137 12.8569 5.14729 12.7604 5.15969 12.655C5.17297 12.547 5.26417 12.4673 5.37042 12.4673C5.37927 12.4673 5.38724 12.4682 5.3961 12.4691C5.51297 12.4832 5.59531 12.5895 5.58115 12.7063C5.57318 12.7736 5.53422 12.8294 5.4811 12.8622C5.47313 12.7524 5.45719 12.6674 5.42797 12.6382C5.42266 12.6337 5.41823 12.6302 5.41292 12.6284C5.40495 12.6267 5.39787 12.6249 5.39078 12.6249C5.37839 12.6249 5.36776 12.6293 5.35891 12.6391C5.32969 12.6692 5.31818 12.7497 5.31287 12.8852Z" fill="#88202A"/>
<path d="M4.74617 15.98C4.74617 15.98 4.51419 15.0981 5.05076 14.434C4.81966 14.0241 5.10034 13.6938 5.28451 13.6743C5.32878 12.9093 5.27654 12.5879 5.41289 12.6295C5.54836 12.6703 5.45716 13.6876 5.45716 13.6876C5.45716 13.6876 6.02826 13.7576 5.79273 14.4668C6.07607 14.7917 6.27617 15.4549 6.00258 16.134C5.70331 16.2137 4.74617 15.98 4.74617 15.98Z" fill="#6F9B92"/>
<path d="M5.89795 16.149C5.93779 16.1463 5.97321 16.1419 6.00243 16.1339C5.97321 16.1419 5.93868 16.1463 5.89795 16.149Z" fill="#A5A7A6"/>
<path d="M5.8112 13.9524C5.71203 13.7187 5.45703 13.6877 5.45703 13.6877C5.45703 13.6877 5.71292 13.7187 5.8112 13.9524Z" fill="#E17130"/>
<path d="M5.48633 13.1153C5.48633 13.1101 5.48633 13.1049 5.4872 13.1006C5.4872 13.1049 5.48633 13.1101 5.48633 13.1153Z" fill="#A43038"/>
<path d="M5.48627 13.1005C5.48716 13.0164 5.48627 12.934 5.48096 12.8623C5.48627 12.934 5.48715 13.0164 5.48715 13.1005H5.48627Z" fill="#88202A"/>
<path d="M5.83492 16.1508C5.44887 16.1508 4.75913 15.9835 4.74585 15.9799C4.74585 15.9799 4.7432 15.9684 4.73877 15.9489L5.19742 15.9445L5.36476 15.1857L5.48606 15.9551L5.65872 16.0339C5.65872 16.0339 5.84731 15.5762 5.76939 15.1273C5.71007 14.7873 5.23018 14.5951 4.99023 14.5172C5.00882 14.4907 5.02742 14.4632 5.04778 14.4375C5.04867 14.4358 5.04955 14.4349 5.05044 14.434C5.05132 14.434 5.09471 14.4393 5.15492 14.4393C5.28861 14.4393 5.50908 14.4145 5.56398 14.256C5.64544 14.0258 5.28419 13.6752 5.28419 13.6752C5.30278 13.3582 5.30455 13.1174 5.30986 12.9465C5.31075 12.9252 5.31163 12.9049 5.31163 12.8854C5.31783 12.7499 5.32846 12.6694 5.35856 12.6393C5.36742 12.6304 5.37804 12.626 5.39044 12.626C5.39752 12.626 5.4046 12.6269 5.41257 12.6295C5.41788 12.6304 5.42231 12.6339 5.42762 12.6384C5.45684 12.6676 5.47278 12.7526 5.48075 12.8624C5.48606 12.9341 5.48695 13.0164 5.48606 13.1006C5.48606 13.1059 5.48606 13.1103 5.48606 13.1156C5.48518 13.2148 5.48075 13.3148 5.47632 13.4043C5.47278 13.4662 5.46924 13.5229 5.4657 13.5681C5.46038 13.6415 5.45684 13.6876 5.45684 13.6876C5.45684 13.6876 5.71184 13.7186 5.81101 13.9523C5.85971 14.0674 5.87033 14.2321 5.79242 14.4668C5.94825 14.6456 6.07841 14.9263 6.11913 15.2565C6.15278 15.5257 6.12533 15.8285 6.00226 16.134C5.97304 16.142 5.93762 16.1464 5.89778 16.149C5.8783 16.1499 5.85705 16.1508 5.83492 16.1508Z" fill="#4F7D75"/>
</svg>
