<svg width="51" height="46" viewBox="0 0 51 46" fill="none" xmlns="http://www.w3.org/2000/svg">
<path d="M22.2792 43.3748C22.6094 43.3748 22.2792 42.5115 21.848 42.5115C21.4159 42.5115 21.1051 43.3748 21.4159 43.3748L22.2792 43.3748Z" fill="#6492B7"/>
<path d="M36.9558 43.3748C37.2852 43.3748 36.9558 42.5115 36.5238 42.5115C36.0926 42.5115 35.7809 43.3748 36.0926 43.3748L36.9558 43.3748Z" fill="#6492B7"/>
<path d="M46.4831 25.4749C45.7296 23.1613 42.033 22.1422 40.5446 25.0127C39.0562 27.8841 39.9886 33.1479 40.5402 35.759C41.0918 38.3701 45.2781 36.3319 46.0289 33.6207C46.7788 30.9105 47.2366 27.7885 46.4831 25.4749Z" fill="#6492B7"/>
<path d="M45.4999 39.525C45.9267 41.4083 45.5327 43.3748 44.9554 43.3748L39.8802 43.3748C39.0098 43.3748 40.4645 41.2817 40.3406 38.5033C40.2166 35.7248 41.5359 33.1314 43.8601 33.7008C46.1834 34.2701 45.0731 37.6418 45.4999 39.525Z" fill="#6492B7"/>
<path d="M30.7071 39.525C31.1338 41.4083 30.7398 43.3748 30.1625 43.3748L25.0873 43.3748C24.2169 43.3748 25.6708 41.2817 25.5468 38.5033C25.4229 35.7248 26.743 33.1314 29.0673 33.7008C31.3906 34.2701 30.2803 37.6418 30.7071 39.525Z" fill="#6492B7"/>
<path d="M24.9824 23.6643C27.3093 24.3939 29.5423 28.411 30.1444 31.6251C30.7474 34.8383 31.4504 38.271 28.772 37.8177C26.0945 37.3644 23.6251 33.1073 22.3581 29.2017C21.0919 25.2953 22.6564 22.9347 24.9824 23.6643Z" fill="#6492B7"/>
<path d="M20.2008 17.6072C22.0593 16.1011 31.1215 14.5826 34.6614 14.8837C38.2013 15.1856 44.2275 20.4698 45.5078 23.3314C46.7881 26.194 46.9395 28.3774 44.1522 31.7668C41.3658 35.1562 36.0179 34.4797 30.5195 33.4996C25.0219 32.5194 21.3368 31.0222 20.2371 27.515C19.1374 24.0088 18.3432 19.1133 20.2008 17.6072Z" fill="#89B0C4"/>
<path d="M19.1987 22.8191C19.3847 24.3978 19.7849 26.0739 20.2373 27.5153C21.337 31.0225 24.884 32.6012 30.3815 33.5813C35.8809 34.5615 40.686 35.4841 43.4724 32.0938C43.8213 31.6697 44.0913 30.5382 44.3508 30.1477C44.3508 30.1477 43.2378 31.4333 39.4057 31.9265C35.5727 32.4197 30.5436 31.1668 26.3972 27.6517C22.2508 24.1366 19.1987 22.8191 19.1987 22.8191Z" fill="#6492B7"/>
<path d="M46.3536 26.1072C45.7612 23.5572 41.4696 21.9466 38.9258 24.8003C36.382 27.654 36.7796 33.148 37.3312 35.7591C37.8819 38.3702 41.853 37.3661 43.6345 33.9015C45.4159 30.4368 46.945 28.6572 46.3536 26.1072Z" fill="#89B0C4"/>
<path d="M24.2659 23.2279C26.5919 23.9574 27.4738 26.5225 28.137 29.5232C28.8001 32.5238 27.0895 37.8921 24.412 37.4388C21.7336 36.9863 22.4969 31.8775 21.2307 27.971C19.9637 24.0655 21.9399 22.4983 24.2659 23.2279Z" fill="#89B0C4"/>
<path d="M42.2915 39.5246C42.7183 41.4078 42.3243 43.3743 41.747 43.3743L36.6718 43.3743C35.8014 43.3743 37.2553 41.2812 37.1313 38.5028C37.0074 35.7243 38.3275 33.131 40.6517 33.7003C42.9751 34.2696 41.8648 37.6413 42.2915 39.5246Z" fill="#89B0C4"/>
<path d="M37.5585 43.3748C37.8879 43.3748 37.5585 42.5115 37.1264 42.5115C36.6952 42.5115 36.3844 43.3748 36.6952 43.3748L37.5585 43.3748Z" fill="#6492B7"/>
<path d="M38.8534 43.3743C39.1837 43.3743 38.8534 42.511 38.4222 42.511C37.9901 42.511 37.6793 43.3743 37.9901 43.3743L38.8534 43.3743Z" fill="#6492B7"/>
<path d="M27.5855 39.525C28.0122 41.4083 27.6182 43.3748 27.0401 43.3748L21.9657 43.3748C21.0954 43.3748 22.5492 41.2817 22.4253 38.5033C22.3013 35.7248 23.6215 33.1314 25.9448 33.7008C28.269 34.2701 27.1587 37.6418 27.5855 39.525Z" fill="#89B0C4"/>
<path d="M22.8831 43.3748C23.2125 43.3748 22.8831 42.5115 22.451 42.5115C22.0198 42.5115 21.7081 43.3748 22.0198 43.3748L22.8831 43.3748Z" fill="#6492B7"/>
<path d="M24.1776 43.375C24.507 43.375 24.1776 42.5117 23.7464 42.5117C23.3143 42.5117 23.0035 43.375 23.3143 43.375L24.1776 43.375Z" fill="#6492B7"/>
<path d="M25.7915 24.5396L41.5811 26.6513L42.5294 19.5591C42.3196 19.3581 42.1044 19.158 41.8831 18.9597C40.9906 18.1602 40.0148 17.396 39.0338 16.7488C38.8107 16.6009 38.5867 16.4593 38.3644 16.3256C37.0363 15.5243 35.7347 14.9753 34.6616 14.8841C33.8869 14.8186 32.8456 14.8398 31.6733 14.9293C31.4343 14.9479 31.189 14.9691 30.9393 14.9921C29.9193 15.0895 28.8258 15.2321 27.7385 15.4083C27.4906 15.4481 27.2427 15.4897 26.9957 15.5331L25.7915 24.5396Z" fill="#FFDE59"/>
<path d="M26.6006 23.9213L40.9629 25.8418L41.8829 18.9594C40.9904 18.1599 40.0146 17.3958 39.0336 16.7486C38.8105 16.6007 38.5865 16.459 38.3642 16.3253C37.0361 15.524 35.7345 14.9751 34.6614 14.8839C33.8867 14.8184 32.8454 14.8396 31.6731 14.929C31.4341 14.9476 31.1888 14.9689 30.9391 14.9919C29.9191 15.0893 28.8256 15.2318 27.7383 15.408L26.6006 23.9213Z" fill="#CB6CE6"/>
<path d="M30.1035 21.2445L38.2865 22.3388L39.0338 16.7483C38.8107 16.6005 38.5867 16.4588 38.3645 16.3251C37.0363 15.5238 35.7348 14.9748 34.6616 14.8836C33.8869 14.8181 32.8457 14.8394 31.6734 14.9288C31.4343 14.9474 31.189 14.9686 30.9393 14.9917L30.1035 21.2445Z" fill="#FFDE59"/>
<path d="M30.9116 20.6267L37.6682 21.5307L38.3642 16.3253C37.036 15.524 35.7345 14.9751 34.6614 14.8839C33.8866 14.8184 32.8454 14.8396 31.6731 14.929L30.9116 20.6267Z" fill="#FF6E00"/>
<path d="M33.6466 23.3105C33.6722 23.1237 33.844 22.9926 34.0308 23.0174C34.2177 23.0422 34.3487 23.214 34.3239 23.4008C34.2991 23.5876 34.1273 23.7196 33.9405 23.6939C33.7528 23.6691 33.6218 23.4973 33.6466 23.3105Z" fill="#FF6E00"/>
<path d="M39.3618 24.0746C39.3813 23.9303 39.5132 23.8294 39.6575 23.8488C39.8018 23.8683 39.9028 24.0002 39.8833 24.1446C39.8638 24.2889 39.7319 24.3898 39.5876 24.3704C39.4432 24.3509 39.3423 24.2189 39.3618 24.0746Z" fill="#FF6E00"/>
<path d="M37.4597 23.8205C37.48 23.6638 37.6243 23.5531 37.7811 23.5744C37.9387 23.5956 38.0485 23.7391 38.0272 23.8967C38.0068 24.0534 37.8625 24.1632 37.7058 24.1428C37.5482 24.1216 37.4384 23.9773 37.4597 23.8205Z" fill="#FF6E00"/>
<path d="M35.4931 23.5576C35.5205 23.3522 35.7091 23.2078 35.9146 23.2353C36.12 23.2627 36.2643 23.4513 36.236 23.6567C36.2085 23.8622 36.0199 24.0065 35.8145 23.979C35.61 23.9516 35.4656 23.763 35.4931 23.5576Z" fill="#FF6E00"/>
<path d="M28.6341 22.6401C28.6544 22.4834 28.5446 22.339 28.3879 22.3178C28.2303 22.2965 28.086 22.4072 28.0656 22.5639C28.0444 22.7207 28.1542 22.865 28.3118 22.8862C28.4685 22.9066 28.6128 22.7968 28.6341 22.6401Z" fill="#FF6E00"/>
<path d="M30.561 22.8978C30.5849 22.7136 30.4556 22.5454 30.2723 22.5206C30.0882 22.4958 29.9199 22.6251 29.8951 22.8084C29.8703 22.9926 29.9996 23.1617 30.1829 23.1865C30.3671 23.2104 30.5362 23.082 30.561 22.8978Z" fill="#FF6E00"/>
<path d="M32.4729 23.1535C32.5004 22.9507 32.3578 22.7648 32.1559 22.7382C31.9532 22.7108 31.7673 22.8534 31.7407 23.0552C31.7132 23.258 31.8558 23.4439 32.0577 23.4705C32.2604 23.4979 32.4464 23.3554 32.4729 23.1535Z" fill="#FF6E00"/>
<path d="M40.4064 18.2477C40.5312 18.2645 40.6189 18.3787 40.6021 18.5036C40.5852 18.6275 40.471 18.7152 40.3462 18.6984C40.2213 18.6824 40.1337 18.5673 40.1505 18.4434C40.1673 18.3185 40.2815 18.2309 40.4064 18.2477Z" fill="#FF6E00"/>
<path d="M39.9068 21.9813C40.0441 21.9999 40.1406 22.1265 40.1229 22.2637C40.1043 22.4019 39.9776 22.4984 39.8404 22.4798C39.7023 22.4612 39.6058 22.3346 39.6244 22.1973C39.643 22.0601 39.7696 21.9627 39.9068 21.9813Z" fill="#FF6E00"/>
<path d="M40.1556 20.1201C40.284 20.137 40.3734 20.2547 40.3566 20.3831C40.3398 20.5106 40.222 20.6009 40.0936 20.5841C39.9653 20.5664 39.8758 20.4486 39.8927 20.3211C39.9104 20.1927 40.0272 20.1024 40.1556 20.1201Z" fill="#FF6E00"/>
<path d="M29.0722 17.1977C28.9438 17.1809 28.8544 17.0631 28.8712 16.9347C28.888 16.8063 29.0058 16.7169 29.1341 16.7337C29.2625 16.7505 29.352 16.8683 29.3351 16.9967C29.3183 17.1251 29.2005 17.2145 29.0722 17.1977Z" fill="#FF6E00"/>
<path d="M29.1436 15.2868C29.1701 15.3665 29.2401 15.4285 29.3295 15.4409C29.4543 15.4568 29.5686 15.37 29.5854 15.2452C29.5863 15.2399 29.5863 15.2346 29.5871 15.2292C29.4402 15.247 29.2923 15.2656 29.1436 15.2868Z" fill="#FF6E00"/>
<path d="M28.6415 20.4172C28.4724 20.3951 28.3175 20.5137 28.2953 20.6819C28.2723 20.8502 28.391 21.0051 28.5592 21.0273C28.7283 21.0503 28.8833 20.9316 28.9054 20.7634C28.9275 20.5952 28.8098 20.4402 28.6415 20.4172Z" fill="#FF6E00"/>
<path d="M28.8853 18.5958C28.7472 18.5772 28.6215 18.6737 28.6029 18.811C28.5843 18.9491 28.6808 19.0748 28.8189 19.0934C28.9562 19.112 29.0828 19.0155 29.1014 18.8782C29.1191 18.7401 29.0226 18.6135 28.8853 18.5958Z" fill="#FF6E00"/>
<mask id="mask0_464_1266" style="mask-type:luminance" maskUnits="userSpaceOnUse" x="42" y="21" width="9" height="13">
<path d="M42.4004 21.5332L50.9597 21.5332L50.9597 33.5465L42.4004 33.5465L42.4004 21.5332Z" fill="white"/>
</mask>
<g mask="url(#mask0_464_1266)">
<path d="M43.8667 21.7106C44.9983 22.0444 46.8789 24.0844 47.5527 26.6769C48.2265 29.2703 48.3824 31.0677 49.2377 31.9752C50.0939 32.8828 51.2608 32.8049 51.2608 32.8049C51.2608 32.8049 51.9152 32.4162 52.8289 32.4746C53.7436 32.5331 54.3456 33.2139 54.3456 33.2139C54.3456 33.2139 53.7046 33.5637 52.4987 33.4858C51.2927 33.4078 49.6591 33.1555 48.6869 32.1638C47.7147 31.1713 47.3969 30.0185 46.7744 27.9307C46.1529 25.8428 44.4591 25.4931 43.2487 24.3527C42.0375 23.2114 42.7343 21.3768 43.8667 21.7106Z" fill="#89B0C4"/>
</g>
<path d="M19.564 23.1891C19.564 23.1891 20.3396 28.5193 23.9742 28.7008C27.608 28.8832 25.8363 22.8225 25.8363 22.8225L19.564 23.1891Z" fill="#6492B7"/>
<path d="M17.8521 25.3462C17.8521 25.3462 18.2 28.4744 15.7315 31.6353C13.2621 34.7971 9.73899 34.7272 7.6317 33.4327C5.52441 32.1382 5.31368 29.7688 5.16316 27.9024C5.01264 26.035 4.4504 26.0333 4.45659 25.7287C4.46191 25.4241 4.9117 25.6419 5.03743 25.3657C5.16316 25.0894 4.87451 24.9132 4.94977 24.7379C5.02503 24.5617 5.44737 24.4652 6.07956 25.5038C6.71175 26.5424 6.14243 29.6838 7.64852 31.0394C9.15461 32.395 12.3439 31.7504 12.9309 28.6798C13.5188 25.6083 13.3019 23.7471 13.1213 21.8497C12.9407 19.9531 15.4544 15.4587 17.7582 14.4201C20.0612 13.3815 22.8122 15.5242 22.8122 15.5242C22.8122 15.5242 26.8966 13.4648 28.4363 14.9717C29.9761 16.4778 27.4659 18.7038 26.9966 21.5832C26.5283 24.4616 27.1117 26.947 24.529 27.2481C21.9453 27.5482 20.2267 24.6874 20.2267 24.6874C20.2267 24.6874 19.7221 25.1771 19.0013 25.34C18.2806 25.5038 17.8521 25.3462 17.8521 25.3462Z" fill="#89B0C4"/>
<path d="M18.9633 24.2684C18.3666 23.8195 17.9053 24.4286 16.957 25.6169C16.0078 26.8042 14.7957 27.316 13.0798 27.0672C11.3638 26.8193 9.6709 25.5195 9.6709 25.5195C9.6709 25.5195 11.061 27.6374 13.1568 27.9986C15.2526 28.3608 16.5913 28.0119 17.838 26.937C19.0838 25.8612 19.561 24.7173 18.9633 24.2684Z" fill="#FFDE59"/>
<path d="M25.4271 25.4636C26.5755 25.2369 26.324 24.85 26.2895 22.4425C26.2558 20.0342 27.7699 17.3381 27.4051 16.5103C27.0403 15.6815 25.5652 16.0259 24.0927 17.2806C22.6212 18.5361 21.1532 19.781 21.5419 21.1472C21.9306 22.5134 24.2778 25.6903 25.4271 25.4636Z" fill="#6492B7"/>
<path d="M16.3682 15.4149C16.8551 15.9789 17.5768 16.3357 18.3807 16.3357C19.5663 16.3357 20.5712 15.5619 20.9157 14.4905C20.7111 14.4135 20.4969 14.3444 20.2755 14.2878C19.4777 14.0841 18.5888 14.0452 17.7574 14.4197C17.4643 14.5525 17.1668 14.7411 16.872 14.974C16.7029 15.1068 16.5346 15.2546 16.3682 15.4149Z" fill="#FFDE59"/>
<path d="M16.8721 14.974C17.2369 15.3972 17.7779 15.6655 18.3808 15.6655C19.2662 15.6655 20.018 15.0873 20.2756 14.2878C19.4779 14.0841 18.5889 14.0452 17.7575 14.4197C17.4644 14.5525 17.1669 14.7411 16.8721 14.974Z" fill="#FF6E00"/>
<path d="M17.8651 19.8413C17.8651 19.8413 16.8938 19.4933 16.3678 20.1822C15.8419 20.8719 16.5423 21.4324 16.8716 21.1207C17.201 20.8082 16.8796 20.5204 17.1098 20.2026C17.3391 19.8838 17.8651 19.8413 17.8651 19.8413Z" fill="#6492B7"/>
</svg>
