<svg width="210" height="145" viewBox="0 0 210 145" fill="none" xmlns="http://www.w3.org/2000/svg">
<rect x="0.72168" y="13" width="85.8763" height="119" rx="12.268" fill="#003E86"/>
<path d="M15.5363 81.2991V67.9158H24.11V69.9481H17.9608V73.5814H23.5219V75.6138H17.9608V81.2991H15.5363ZM26.2142 81.2991V71.2616H28.5799V81.2991H26.2142ZM27.4036 69.837C27.0289 69.837 26.7065 69.7128 26.4364 69.4645C26.1663 69.2118 26.0313 68.909 26.0313 68.5562C26.0313 68.1989 26.1663 67.8961 26.4364 67.6478C26.7065 67.3951 27.0289 67.2688 27.4036 67.2688C27.7826 67.2688 28.105 67.3951 28.3707 67.6478C28.6408 67.8961 28.7759 68.1989 28.7759 68.5562C28.7759 68.909 28.6408 69.2118 28.3707 69.4645C28.105 69.7128 27.7826 69.837 27.4036 69.837ZM35.4561 81.4951C34.4498 81.4951 33.5806 81.286 32.8487 80.8678C32.1212 80.4452 31.5614 79.8483 31.1693 79.0772C30.7772 78.3018 30.5811 77.3891 30.5811 76.3391C30.5811 75.3066 30.7772 74.4005 31.1693 73.6207C31.5657 72.8365 32.119 72.2266 32.8291 71.7909C33.5392 71.3509 34.3735 71.1309 35.332 71.1309C35.9506 71.1309 36.5344 71.2311 37.0833 71.4315C37.6366 71.6275 38.1245 71.9325 38.5471 72.3464C38.974 72.7602 39.3095 73.2874 39.5535 73.9278C39.7974 74.5638 39.9194 75.3219 39.9194 76.2019V76.9273H31.6921V75.3328H37.6518C37.6475 74.8797 37.5494 74.4767 37.3578 74.1238C37.1661 73.7666 36.8981 73.4856 36.554 73.2808C36.2142 73.0761 35.8177 72.9737 35.3646 72.9737C34.8811 72.9737 34.4563 73.0913 34.0903 73.3266C33.7244 73.5575 33.439 73.8624 33.2343 74.2415C33.0339 74.6161 32.9315 75.0278 32.9271 75.4765V76.8685C32.9271 77.4522 33.0339 77.9532 33.2473 78.3715C33.4608 78.7853 33.7592 79.1034 34.1426 79.3256C34.526 79.5434 34.9747 79.6523 35.4888 79.6523C35.833 79.6523 36.1445 79.6044 36.4233 79.5085C36.7021 79.4083 36.9439 79.2624 37.1486 79.0707C37.3534 78.879 37.5081 78.6416 37.6126 78.3584L39.8214 78.6067C39.682 79.1905 39.4162 79.7002 39.0241 80.1359C38.6364 80.5672 38.1398 80.9026 37.5342 81.1422C36.9286 81.3775 36.2359 81.4951 35.4561 81.4951ZM43.9073 81.2991L40.1302 67.9158H42.7375L45.1489 77.7507H45.2731L47.8478 67.9158H50.2199L52.8012 77.7572H52.9188L55.3301 67.9158H57.9375L54.1604 81.2991H51.7687L49.0894 71.9085H48.9848L46.299 81.2991H43.9073ZM59.5141 81.2991V71.2616H61.8797V81.2991H59.5141ZM60.7034 69.837C60.3287 69.837 60.0064 69.7128 59.7363 69.4645C59.4661 69.2118 59.3311 68.909 59.3311 68.5562C59.3311 68.1989 59.4661 67.8961 59.7363 67.6478C60.0064 67.3951 60.3287 67.2688 60.7034 67.2688C61.0824 67.2688 61.4048 67.3951 61.6706 67.6478C61.9407 67.8961 62.0757 68.1989 62.0757 68.5562C62.0757 68.909 61.9407 69.2118 61.6706 69.4645C61.4048 69.7128 61.0824 69.837 60.7034 69.837ZM66.6779 75.4177V81.2991H64.3123V71.2616H66.5733V72.9672H66.6909C66.9218 72.4052 67.29 71.9586 67.7953 71.6275C68.305 71.2964 68.9346 71.1309 69.6839 71.1309C70.3766 71.1309 70.98 71.279 71.494 71.5753C72.0125 71.8715 72.4133 72.3006 72.6964 72.8626C72.984 73.4246 73.1256 74.1064 73.1212 74.908V81.2991H70.7556V75.274C70.7556 74.6031 70.5813 74.0781 70.2328 73.6991C69.8886 73.3201 69.4116 73.1305 68.8017 73.1305C68.3878 73.1305 68.0197 73.222 67.6973 73.405C67.3793 73.5836 67.1288 73.8428 66.9458 74.1827C66.7672 74.5225 66.6779 74.9342 66.6779 75.4177Z" fill="white"/>
<rect x="123.402" y="13" width="85.8763" height="119" rx="12.268" fill="white"/>
<path d="M173.666 36.5891C175.226 36.5891 176.703 36.8374 178.097 37.3341C179.491 37.822 180.724 38.5931 181.796 39.6474C182.876 40.7017 183.721 42.0783 184.331 43.7774C184.95 45.4677 185.263 47.5153 185.272 49.9201C185.281 52.1158 185.006 54.0894 184.449 55.8407C183.9 57.5833 183.111 59.0689 182.083 60.2974C181.064 61.526 179.835 62.467 178.398 63.1205C176.969 63.7652 175.374 64.0876 173.614 64.0876C171.636 64.0876 169.898 63.7086 168.399 62.9506C166.901 62.1925 165.707 61.1731 164.818 59.8923C163.929 58.6114 163.411 57.1869 163.263 55.6185H170.425C170.599 56.4288 170.983 57.017 171.575 57.3829C172.168 57.7401 172.847 57.9188 173.614 57.9188C175.148 57.9188 176.267 57.2566 176.973 55.9322C177.687 54.5991 178.049 52.8216 178.058 50.5998H177.901C177.561 51.4188 177.047 52.1202 176.359 52.704C175.67 53.2877 174.869 53.7365 173.954 54.0501C173.039 54.3638 172.072 54.5206 171.052 54.5206C169.44 54.5206 168.029 54.1591 166.818 53.4359C165.607 52.704 164.661 51.7063 163.982 50.4429C163.302 49.1708 162.958 47.7244 162.949 46.1038C162.94 44.2043 163.389 42.5401 164.295 41.1112C165.202 39.6822 166.461 38.5713 168.072 37.7784C169.684 36.9855 171.549 36.5891 173.666 36.5891ZM173.719 42.0783C172.995 42.0783 172.351 42.2439 171.784 42.575C171.227 42.9061 170.787 43.3548 170.464 43.9212C170.151 44.4875 169.998 45.1279 170.007 45.8424C170.016 46.5569 170.177 47.1973 170.49 47.7636C170.813 48.33 171.248 48.7787 171.797 49.1098C172.355 49.4409 172.995 49.6065 173.719 49.6065C174.25 49.6065 174.742 49.515 175.195 49.332C175.649 49.1403 176.041 48.8746 176.372 48.5348C176.712 48.1862 176.973 47.7854 177.156 47.3323C177.348 46.8705 177.439 46.3739 177.43 45.8424C177.422 45.1279 177.256 44.4875 176.934 43.9212C176.611 43.3548 176.171 42.9061 175.614 42.575C175.056 42.2439 174.424 42.0783 173.719 42.0783Z" fill="#003E86"/>
<path d="M183.899 108.307C182.408 108.307 180.935 107.98 179.584 107.349C178.232 106.717 177.036 105.798 176.079 104.654C177.379 107.6 178.921 110.433 180.688 113.124C181.362 114.144 180.63 115.592 179.412 115.592H167.991C166.77 115.592 166.039 114.144 166.715 113.124C168.482 110.433 170.024 107.6 171.324 104.654C170.212 105.983 168.779 107.007 167.161 107.629C165.543 108.25 163.793 108.449 162.077 108.207C160.36 107.965 158.734 107.289 157.352 106.243C155.969 105.198 154.876 103.817 154.175 102.232C153.475 100.646 153.19 98.9083 153.347 97.1822C153.505 95.456 154.1 93.7985 155.076 92.3662C156.052 90.9339 157.378 89.774 158.927 88.9962C160.476 88.2183 162.197 87.8481 163.929 87.9206C163.475 86.3984 163.383 84.7913 163.66 83.2273C163.937 81.6633 164.576 80.1856 165.525 78.912C166.474 77.6384 167.708 76.6041 169.127 75.8916C170.547 75.1791 172.113 74.8081 173.702 74.8081C175.29 74.8081 176.856 75.1791 178.276 75.8916C179.696 76.6041 180.929 77.6384 181.878 78.912C182.827 80.1856 183.466 81.6633 183.743 83.2273C184.02 84.7913 183.928 86.3984 183.474 87.9206C184.83 87.8644 186.183 88.0793 187.454 88.5528C188.726 89.0262 189.89 89.7486 190.879 90.6777C191.868 91.6068 192.661 92.7239 193.213 93.9635C193.765 95.2031 194.063 96.5404 194.092 97.8969C194.12 99.2534 193.877 100.602 193.378 101.864C192.878 103.125 192.132 104.274 191.183 105.244C190.234 106.213 189.101 106.984 187.85 107.51C186.599 108.036 185.256 108.307 183.899 108.307Z" fill="#003E86"/>
<g filter="url(#filter0_d_198_9818)">
<rect x="64.5156" y="13" width="85.8763" height="119" rx="12.268" fill="white"/>
</g>
<path d="M107.419 64.0876C105.311 64.0876 103.437 63.726 101.799 63.0028C100.17 62.2709 98.8891 61.2646 97.9568 59.9838C97.0245 58.7029 96.554 57.2304 96.5453 55.5662H103.864C103.873 56.0803 104.03 56.5421 104.335 56.9516C104.648 57.3524 105.075 57.6661 105.616 57.8926C106.156 58.1192 106.774 58.2324 107.472 58.2324C108.142 58.2324 108.735 58.1148 109.249 57.8795C109.763 57.6356 110.164 57.3001 110.451 56.8732C110.739 56.4462 110.878 55.9583 110.87 55.4094C110.878 54.8692 110.713 54.39 110.373 53.9717C110.042 53.5535 109.576 53.2268 108.975 52.9915C108.373 52.7562 107.681 52.6386 106.896 52.6386H104.178V47.6199H106.896C107.62 47.6199 108.256 47.5022 108.805 47.267C109.362 47.0317 109.794 46.705 110.099 46.2868C110.412 45.8685 110.565 45.3893 110.556 44.8491C110.565 44.3263 110.438 43.8645 110.177 43.4637C109.916 43.0629 109.55 42.7493 109.079 42.5227C108.617 42.2962 108.081 42.1829 107.472 42.1829C106.809 42.1829 106.217 42.3005 105.694 42.5358C105.18 42.771 104.775 43.0978 104.479 43.516C104.182 43.9342 104.03 44.4135 104.021 44.9537H97.0681C97.0768 43.3156 97.5255 41.8692 98.4142 40.6145C99.3117 39.3599 100.54 38.3753 102.1 37.6608C103.66 36.9463 105.45 36.5891 107.472 36.5891C109.449 36.5891 111.196 36.9245 112.712 37.5955C114.237 38.2664 115.427 39.19 116.28 40.3662C117.143 41.5338 117.57 42.8712 117.561 44.3786C117.579 45.8773 117.065 47.1058 116.019 48.0642C114.982 49.0227 113.667 49.589 112.072 49.7633V49.9724C114.233 50.2077 115.858 50.8699 116.947 51.959C118.036 53.0394 118.572 54.3987 118.555 56.0367C118.563 57.6051 118.093 58.9948 117.143 60.2059C116.202 61.4171 114.891 62.3668 113.209 63.0551C111.536 63.7435 109.606 64.0876 107.419 64.0876Z" fill="#ED1B24"/>
<path d="M107.456 80.6839C109.675 78.6972 112.571 77.636 115.549 77.7183C118.527 77.8007 121.36 79.0204 123.466 81.1268C125.57 83.2308 126.79 86.0601 126.875 89.0346C126.96 92.0092 125.904 94.9036 123.924 97.1247L107.452 113.62L90.9842 97.1247C89.0014 94.9025 87.9446 92.0055 88.0308 89.0286C88.1169 86.0517 89.3394 83.2206 91.4472 81.1167C93.5551 79.0128 96.3884 77.7957 99.3655 77.7152C102.343 77.6347 105.238 78.697 107.456 80.6839Z" fill="#ED1B24"/>
<defs>
<filter id="filter0_d_198_9818" x="52.2476" y="0.731958" width="110.413" height="143.536" filterUnits="userSpaceOnUse" color-interpolation-filters="sRGB">
<feFlood flood-opacity="0" result="BackgroundImageFix"/>
<feColorMatrix in="SourceAlpha" type="matrix" values="0 0 0 0 0 0 0 0 0 0 0 0 0 0 0 0 0 0 127 0" result="hardAlpha"/>
<feOffset/>
<feGaussianBlur stdDeviation="6.13402"/>
<feComposite in2="hardAlpha" operator="out"/>
<feColorMatrix type="matrix" values="0 0 0 0 0 0 0 0 0 0 0 0 0 0 0 0 0 0 0.25 0"/>
<feBlend mode="normal" in2="BackgroundImageFix" result="effect1_dropShadow_198_9818"/>
<feBlend mode="normal" in="SourceGraphic" in2="effect1_dropShadow_198_9818" result="shape"/>
</filter>
</defs>
</svg>
