<svg width="10" height="16" viewBox="0 0 10 16" fill="none" xmlns="http://www.w3.org/2000/svg">
<path d="M9.04502 0.840616C9.25593 1.05158 9.37441 1.33768 9.37441 1.63599C9.37441 1.9343 9.25593 2.2204 9.04502 2.43137L3.47626 8.00013L9.04502 13.5689C9.24995 13.7811 9.36335 14.0653 9.36078 14.3602C9.35822 14.6552 9.2399 14.9374 9.03132 15.1459C8.82273 15.3545 8.54057 15.4728 8.2456 15.4754C7.95063 15.478 7.66645 15.3646 7.45427 15.1597L1.09013 8.79551C0.879223 8.58454 0.760743 8.29844 0.760743 8.00013C0.760743 7.70182 0.879223 7.41573 1.09013 7.20476L7.45427 0.840616C7.66524 0.62971 7.95134 0.51123 8.24965 0.51123C8.54796 0.51123 8.83405 0.62971 9.04502 0.840616Z" fill="white"/>
</svg>
