<svg width="244" height="171" viewBox="0 0 244 171" fill="none" xmlns="http://www.w3.org/2000/svg">
<path d="M54.4529 0L38.4725 8.21847L54.4529 16.8935H152.618L168.598 8.21847L150.335 0H54.4529Z" fill="#FFCF4A"/>
<path d="M21.5793 17.3508L0.119995 42.0062L42.1255 65.2919L44.865 27.8522L21.5793 17.3508Z" fill="#FFCF4A"/>
<path d="M52.1703 65.2919L57.1927 27.8522H148.509L152.162 65.2919H52.1703Z" fill="#FFCF4A"/>
<path d="M181.84 14.6113L156.728 27.8522L161.75 65.2919L206.495 42.0062L181.84 14.6113Z" fill="#FFCF4A"/>
<path d="M203.299 54.7905L161.75 78.9894L118.831 162.544L203.299 54.7905Z" fill="#FFCF4A"/>
<path d="M101.938 170.762L147.139 80.8157H57.1927L101.938 170.762Z" fill="#FFCF4A"/>
<path d="M42.1255 78.9894L6.51214 59.8129L81.8481 156.152L42.1255 78.9894Z" fill="#FFCF4A"/>
<path d="M202.828 142.704L201.233 134.246L200.322 142.704L190.298 144.124L200.322 145.12L201.233 153.578L202.828 145.12L212.851 144.124L202.828 142.704Z" fill="#FFB800"/>
<path d="M233.973 42.8247L232.378 34.3672L231.467 42.8247L221.443 44.2454L231.467 45.2412L232.378 53.6987L233.973 45.2412L243.997 44.2454L233.973 42.8247Z" fill="#FFB800"/>
<path d="M207.147 8.36839L205.938 1.7207L205.248 8.36839L197.65 9.48504L205.248 10.2677L205.938 16.9154L207.147 10.2677L214.744 9.48504L207.147 8.36839Z" fill="#FFB800"/>
</svg>
