<svg width="43" height="43" viewBox="0 0 43 43" fill="none" xmlns="http://www.w3.org/2000/svg">
<circle cx="21.0754" cy="21.6506" r="21.0754" fill="#FFF5DA"/>
<path d="M21 12C26.523 12 31 16.477 31 22C31 27.523 26.523 32 21 32C19.3822 32.0021 17.7883 31.6102 16.356 30.858L12.066 31.975C11.9227 32.0123 11.7721 32.0116 11.6291 31.9728C11.4861 31.934 11.3558 31.8585 11.251 31.7538C11.1462 31.6491 11.0706 31.5188 11.0317 31.3759C10.9927 31.233 10.9918 31.0824 11.029 30.939L12.145 26.65C11.3908 25.2162 10.9978 23.6201 11 22C11 16.477 15.477 12 21 12ZM22.252 23H17.75L17.648 23.007C17.4685 23.0317 17.304 23.1206 17.1849 23.2571C17.0658 23.3937 17.0002 23.5688 17.0002 23.75C17.0002 23.9312 17.0658 24.1063 17.1849 24.2429C17.304 24.3794 17.4685 24.4683 17.648 24.493L17.75 24.5H22.252L22.353 24.493C22.5325 24.4683 22.697 24.3794 22.8161 24.2429C22.9352 24.1063 23.0008 23.9312 23.0008 23.75C23.0008 23.5688 22.9352 23.3937 22.8161 23.2571C22.697 23.1206 22.5325 23.0317 22.353 23.007L22.252 23ZM24.25 19.5H17.75L17.648 19.507C17.4685 19.5317 17.304 19.6206 17.1849 19.7571C17.0658 19.8937 17.0002 20.0688 17.0002 20.25C17.0002 20.4312 17.0658 20.6063 17.1849 20.7429C17.304 20.8794 17.4685 20.9683 17.648 20.993L17.75 21H24.25L24.352 20.993C24.5315 20.9683 24.696 20.8794 24.8151 20.7429C24.9342 20.6063 24.9998 20.4312 24.9998 20.25C24.9998 20.0688 24.9342 19.8937 24.8151 19.7571C24.696 19.6206 24.5315 19.5317 24.352 19.507L24.25 19.5Z" fill="#FFB800"/>
</svg>
