<svg width="36" height="36" viewBox="0 0 36 36" fill="none" xmlns="http://www.w3.org/2000/svg">
<path d="M18 36C27.3888 36 35 28.3888 35 19C35 9.61116 27.3888 2 18 2C8.61116 2 1 9.61116 1 19C1 28.3888 8.61116 36 18 36Z" fill="#F4900C"/>
<path d="M18 34C27.3888 34 35 26.3888 35 17C35 7.61116 27.3888 0 18 0C8.61116 0 1 7.61116 1 17C1 26.3888 8.61116 34 18 34Z" fill="#FFCC4D"/>
<path d="M18 32C25.732 32 32 25.732 32 18C32 10.268 25.732 4 18 4C10.268 4 4 10.268 4 18C4 25.732 10.268 32 18 32Z" fill="#FFE8B6"/>
<path d="M18 32C25.732 32 32 25.5081 32 17.5C32 9.49187 25.732 3 18 3C10.268 3 4 9.49187 4 17.5C4 25.5081 10.268 32 18 32Z" fill="#FFAC33"/>
<path d="M12.75 17.75L16.25 21.25L23.25 13.75" stroke="white" stroke-width="1.5" stroke-linecap="round" stroke-linejoin="round"/>
</svg>
