<svg width="352" height="231" viewBox="0 0 352 231" fill="none" xmlns="http://www.w3.org/2000/svg">
<path fill-rule="evenodd" clip-rule="evenodd" d="M12.7807 139.237C43.6496 135.118 66.0689 128.664 73.8392 121.149C76.1745 118.898 76.8539 115.671 75.665 112.657C70.1027 98.7719 67.0879 73.0407 67.0879 62.9775C67.0879 72.9133 40.1254 81.5753 0 86.2035C5.81712 94.6532 14.5216 103.188 23.6931 108.58C22.122 118.516 17.4938 129.853 12.7807 139.195V139.237Z" fill="url(#paint0_linear_198_10817)"/>
<path fill-rule="evenodd" clip-rule="evenodd" d="M64.3283 77.0745C55.7512 83.8682 34.351 89.6429 5.52018 93.337C4.16143 91.7659 2.84515 90.1949 1.65625 88.6238C31.8034 85.0147 54.3075 79.1551 63.2243 72.1915C65.2624 70.6205 66.5787 68.9645 67.1307 67.2236C67.2156 69.007 67.3854 71.0451 67.5977 73.2106C66.9608 74.5269 65.8569 75.8432 64.2858 77.0745H64.3283Z" fill="url(#paint1_linear_198_10817)"/>
<path fill-rule="evenodd" clip-rule="evenodd" d="M16.6868 130.872C44.541 126.796 64.7948 120.766 72.2254 113.803C73.4143 112.699 74.2211 111.34 74.6032 109.896C74.9429 110.873 75.2826 111.765 75.6223 112.656C75.6647 112.784 75.7072 112.869 75.7497 112.996C75.7497 115.077 74.9429 117.115 73.2869 118.686C65.644 126.032 43.989 132.316 14.1392 136.434C14.9884 134.609 15.8801 132.74 16.6868 130.872Z" fill="url(#paint2_linear_198_10817)"/>
<path fill-rule="evenodd" clip-rule="evenodd" d="M40.0405 88.9633C39.4461 76.1826 51.972 66.7139 66.4511 63.5293C68.4892 81.8299 76.4718 104.164 76.1746 115.841C76.1746 111.128 69.9329 106.5 58.0863 102.381C46.2398 98.2622 39.998 93.6764 39.998 88.9208L40.0405 88.9633Z" fill="url(#paint3_linear_198_10817)"/>
<path fill-rule="evenodd" clip-rule="evenodd" d="M338.98 138.338C308.111 134.219 285.692 127.765 277.922 120.249C275.629 117.999 274.907 114.772 276.096 111.757C281.658 97.8725 284.673 72.1413 284.673 62.0781C284.673 72.0139 311.635 80.6759 351.761 85.3041C345.944 93.7538 337.239 102.288 328.068 107.681C329.639 117.617 334.267 128.954 338.98 138.295V138.338Z" fill="url(#paint4_linear_198_10817)"/>
<path fill-rule="evenodd" clip-rule="evenodd" d="M287.433 76.1751C296.01 82.9688 317.41 88.7435 346.241 92.4376C347.599 90.8665 348.916 89.2955 350.105 87.7244C319.957 84.1153 297.453 78.2557 288.537 71.2921C286.498 69.7211 285.182 68.0651 284.63 66.3242C284.545 68.1076 284.375 70.1457 284.163 72.3112C284.8 73.6275 285.904 74.9438 287.475 76.1751H287.433Z" fill="url(#paint5_linear_198_10817)"/>
<path fill-rule="evenodd" clip-rule="evenodd" d="M335.074 129.973C307.219 125.896 286.966 119.867 279.535 112.903C278.346 111.799 277.539 110.441 277.157 108.997C276.818 109.974 276.478 110.865 276.138 111.757C276.096 111.884 276.053 111.969 276.011 112.097C276.011 114.177 276.818 116.215 278.473 117.786C286.116 125.132 307.771 131.416 337.621 135.535C336.772 133.709 335.88 131.841 335.074 129.973Z" fill="url(#paint6_linear_198_10817)"/>
<path fill-rule="evenodd" clip-rule="evenodd" d="M311.72 88.0639C312.314 75.2832 299.788 65.8144 285.309 62.6299C283.271 80.9305 275.288 103.265 275.586 114.941C275.586 110.228 281.827 105.6 293.674 101.481C305.521 97.4052 311.762 92.777 311.762 88.0214L311.72 88.0639Z" fill="url(#paint7_linear_198_10817)"/>
<rect x="55.3877" y="47.2373" width="240" height="183" rx="5" fill="white"/>
<g filter="url(#filter0_i_198_10817)">
<rect x="79.3877" y="170.237" width="192" height="38.7143" rx="5" fill="#FF0000"/>
<rect x="79.3877" y="170.237" width="192" height="38.7143" rx="5" fill="url(#paint8_radial_198_10817)" fill-opacity="0.7"/>
<g filter="url(#filter1_d_198_10817)">
<path d="M154.109 195.095H150.131V183.874H154.142C155.271 183.874 156.242 184.099 157.057 184.548C157.871 184.993 158.498 185.634 158.936 186.471C159.378 187.307 159.599 188.308 159.599 189.473C159.599 190.642 159.378 191.647 158.936 192.487C158.498 193.327 157.868 193.972 157.046 194.421C156.228 194.87 155.249 195.095 154.109 195.095ZM152.504 193.062H154.01C154.712 193.062 155.302 192.938 155.78 192.689C156.262 192.437 156.624 192.048 156.865 191.522C157.11 190.993 157.232 190.31 157.232 189.473C157.232 188.644 157.11 187.967 156.865 187.441C156.624 186.915 156.264 186.528 155.786 186.279C155.307 186.031 154.717 185.907 154.016 185.907H152.504V193.062ZM165.148 195.259C164.282 195.259 163.537 195.084 162.912 194.733C162.291 194.379 161.813 193.878 161.477 193.232C161.141 192.582 160.973 191.813 160.973 190.925C160.973 190.06 161.141 189.3 161.477 188.646C161.813 187.992 162.286 187.483 162.896 187.117C163.509 186.752 164.229 186.57 165.054 186.57C165.61 186.57 166.127 186.659 166.605 186.838C167.087 187.013 167.507 187.278 167.865 187.632C168.227 187.987 168.508 188.432 168.709 188.969C168.91 189.503 169.01 190.127 169.01 190.843V191.484H161.904V190.038H166.813C166.813 189.702 166.74 189.404 166.594 189.145C166.448 188.885 166.245 188.683 165.986 188.536C165.73 188.387 165.433 188.312 165.093 188.312C164.739 188.312 164.424 188.394 164.15 188.558C163.88 188.719 163.668 188.936 163.515 189.21C163.362 189.481 163.283 189.782 163.279 190.114V191.49C163.279 191.906 163.356 192.266 163.509 192.569C163.667 192.872 163.887 193.106 164.172 193.27C164.457 193.435 164.795 193.517 165.186 193.517C165.445 193.517 165.683 193.48 165.898 193.407C166.114 193.334 166.298 193.225 166.452 193.078C166.605 192.932 166.722 192.753 166.802 192.542L168.961 192.684C168.851 193.203 168.627 193.656 168.287 194.043C167.951 194.426 167.516 194.726 166.983 194.941C166.453 195.153 165.842 195.259 165.148 195.259ZM175.01 186.679V188.432H169.942V186.679H175.01ZM171.092 184.663H173.426V192.509C173.426 192.724 173.459 192.892 173.525 193.013C173.591 193.13 173.682 193.212 173.799 193.259C173.919 193.307 174.058 193.331 174.215 193.331C174.325 193.331 174.434 193.321 174.544 193.303C174.654 193.281 174.738 193.265 174.796 193.254L175.163 194.991C175.046 195.027 174.882 195.069 174.67 195.117C174.458 195.168 174.201 195.199 173.897 195.21C173.335 195.232 172.842 195.157 172.418 194.985C171.998 194.813 171.671 194.547 171.437 194.185C171.204 193.824 171.089 193.367 171.092 192.816V184.663ZM178.93 195.254C178.393 195.254 177.914 195.16 177.494 194.974C177.074 194.784 176.742 194.505 176.497 194.136C176.256 193.763 176.136 193.299 176.136 192.744C176.136 192.277 176.221 191.884 176.393 191.566C176.565 191.249 176.799 190.993 177.094 190.799C177.39 190.606 177.726 190.46 178.102 190.361C178.482 190.262 178.88 190.193 179.297 190.153C179.786 190.102 180.181 190.054 180.48 190.01C180.78 189.963 180.997 189.893 181.132 189.802C181.267 189.711 181.335 189.576 181.335 189.397V189.364C181.335 189.017 181.225 188.748 181.006 188.558C180.791 188.368 180.484 188.274 180.086 188.274C179.666 188.274 179.332 188.367 179.083 188.553C178.835 188.736 178.67 188.966 178.59 189.243L176.431 189.068C176.541 188.557 176.757 188.115 177.078 187.742C177.399 187.366 177.814 187.077 178.322 186.876C178.833 186.672 179.425 186.57 180.097 186.57C180.564 186.57 181.012 186.624 181.439 186.734C181.87 186.844 182.252 187.013 182.584 187.243C182.92 187.474 183.185 187.769 183.379 188.131C183.572 188.489 183.669 188.918 183.669 189.419V195.095H181.456V193.928H181.39C181.255 194.191 181.074 194.423 180.847 194.624C180.621 194.821 180.349 194.976 180.031 195.089C179.713 195.199 179.346 195.254 178.93 195.254ZM179.598 193.643C179.942 193.643 180.245 193.575 180.508 193.44C180.771 193.301 180.977 193.115 181.127 192.881C181.277 192.647 181.351 192.383 181.351 192.087V191.194C181.278 191.241 181.178 191.285 181.05 191.325C180.926 191.362 180.785 191.396 180.628 191.429C180.471 191.459 180.314 191.486 180.157 191.512C180 191.533 179.858 191.554 179.73 191.572C179.456 191.612 179.217 191.676 179.012 191.764C178.807 191.851 178.649 191.97 178.535 192.12C178.422 192.266 178.365 192.448 178.365 192.668C178.365 192.985 178.481 193.228 178.711 193.396C178.944 193.561 179.24 193.643 179.598 193.643ZM185.48 195.095V186.679H187.814V195.095H185.48ZM186.652 185.594C186.305 185.594 186.008 185.479 185.759 185.249C185.515 185.015 185.392 184.736 185.392 184.411C185.392 184.089 185.515 183.814 185.759 183.584C186.008 183.35 186.305 183.233 186.652 183.233C186.999 183.233 187.295 183.35 187.54 183.584C187.788 183.814 187.912 184.089 187.912 184.411C187.912 184.736 187.788 185.015 187.54 185.249C187.295 185.479 186.999 185.594 186.652 185.594ZM192.018 183.874V195.095H189.684V183.874H192.018ZM200.889 189.079L198.752 189.21C198.716 189.028 198.637 188.863 198.517 188.717C198.396 188.568 198.237 188.449 198.04 188.361C197.847 188.27 197.615 188.224 197.344 188.224C196.983 188.224 196.678 188.301 196.429 188.454C196.181 188.604 196.057 188.805 196.057 189.057C196.057 189.258 196.137 189.428 196.298 189.567C196.459 189.705 196.734 189.817 197.125 189.901L198.648 190.208C199.467 190.376 200.077 190.646 200.478 191.018C200.88 191.391 201.081 191.88 201.081 192.487C201.081 193.038 200.918 193.522 200.593 193.939C200.272 194.355 199.83 194.68 199.267 194.914C198.709 195.144 198.064 195.259 197.333 195.259C196.219 195.259 195.332 195.027 194.671 194.563C194.013 194.096 193.628 193.46 193.515 192.657L195.81 192.536C195.88 192.876 196.048 193.135 196.314 193.314C196.581 193.489 196.923 193.577 197.339 193.577C197.748 193.577 198.077 193.499 198.325 193.341C198.577 193.181 198.705 192.974 198.709 192.722C198.705 192.511 198.615 192.337 198.44 192.202C198.265 192.063 197.995 191.957 197.629 191.884L196.172 191.594C195.35 191.429 194.738 191.144 194.336 190.739C193.938 190.334 193.739 189.817 193.739 189.188C193.739 188.648 193.885 188.182 194.178 187.791C194.473 187.401 194.888 187.099 195.421 186.887C195.958 186.675 196.586 186.57 197.306 186.57C198.369 186.57 199.205 186.794 199.815 187.243C200.429 187.693 200.787 188.305 200.889 189.079Z" fill="white" fill-opacity="0.9"/>
<path d="M154.109 195.095H150.131V183.874H154.142C155.271 183.874 156.242 184.099 157.057 184.548C157.871 184.993 158.498 185.634 158.936 186.471C159.378 187.307 159.599 188.308 159.599 189.473C159.599 190.642 159.378 191.647 158.936 192.487C158.498 193.327 157.868 193.972 157.046 194.421C156.228 194.87 155.249 195.095 154.109 195.095ZM152.504 193.062H154.01C154.712 193.062 155.302 192.938 155.78 192.689C156.262 192.437 156.624 192.048 156.865 191.522C157.11 190.993 157.232 190.31 157.232 189.473C157.232 188.644 157.11 187.967 156.865 187.441C156.624 186.915 156.264 186.528 155.786 186.279C155.307 186.031 154.717 185.907 154.016 185.907H152.504V193.062ZM165.148 195.259C164.282 195.259 163.537 195.084 162.912 194.733C162.291 194.379 161.813 193.878 161.477 193.232C161.141 192.582 160.973 191.813 160.973 190.925C160.973 190.06 161.141 189.3 161.477 188.646C161.813 187.992 162.286 187.483 162.896 187.117C163.509 186.752 164.229 186.57 165.054 186.57C165.61 186.57 166.127 186.659 166.605 186.838C167.087 187.013 167.507 187.278 167.865 187.632C168.227 187.987 168.508 188.432 168.709 188.969C168.91 189.503 169.01 190.127 169.01 190.843V191.484H161.904V190.038H166.813C166.813 189.702 166.74 189.404 166.594 189.145C166.448 188.885 166.245 188.683 165.986 188.536C165.73 188.387 165.433 188.312 165.093 188.312C164.739 188.312 164.424 188.394 164.15 188.558C163.88 188.719 163.668 188.936 163.515 189.21C163.362 189.481 163.283 189.782 163.279 190.114V191.49C163.279 191.906 163.356 192.266 163.509 192.569C163.667 192.872 163.887 193.106 164.172 193.27C164.457 193.435 164.795 193.517 165.186 193.517C165.445 193.517 165.683 193.48 165.898 193.407C166.114 193.334 166.298 193.225 166.452 193.078C166.605 192.932 166.722 192.753 166.802 192.542L168.961 192.684C168.851 193.203 168.627 193.656 168.287 194.043C167.951 194.426 167.516 194.726 166.983 194.941C166.453 195.153 165.842 195.259 165.148 195.259ZM175.01 186.679V188.432H169.942V186.679H175.01ZM171.092 184.663H173.426V192.509C173.426 192.724 173.459 192.892 173.525 193.013C173.591 193.13 173.682 193.212 173.799 193.259C173.919 193.307 174.058 193.331 174.215 193.331C174.325 193.331 174.434 193.321 174.544 193.303C174.654 193.281 174.738 193.265 174.796 193.254L175.163 194.991C175.046 195.027 174.882 195.069 174.67 195.117C174.458 195.168 174.201 195.199 173.897 195.21C173.335 195.232 172.842 195.157 172.418 194.985C171.998 194.813 171.671 194.547 171.437 194.185C171.204 193.824 171.089 193.367 171.092 192.816V184.663ZM178.93 195.254C178.393 195.254 177.914 195.16 177.494 194.974C177.074 194.784 176.742 194.505 176.497 194.136C176.256 193.763 176.136 193.299 176.136 192.744C176.136 192.277 176.221 191.884 176.393 191.566C176.565 191.249 176.799 190.993 177.094 190.799C177.39 190.606 177.726 190.46 178.102 190.361C178.482 190.262 178.88 190.193 179.297 190.153C179.786 190.102 180.181 190.054 180.48 190.01C180.78 189.963 180.997 189.893 181.132 189.802C181.267 189.711 181.335 189.576 181.335 189.397V189.364C181.335 189.017 181.225 188.748 181.006 188.558C180.791 188.368 180.484 188.274 180.086 188.274C179.666 188.274 179.332 188.367 179.083 188.553C178.835 188.736 178.67 188.966 178.59 189.243L176.431 189.068C176.541 188.557 176.757 188.115 177.078 187.742C177.399 187.366 177.814 187.077 178.322 186.876C178.833 186.672 179.425 186.57 180.097 186.57C180.564 186.57 181.012 186.624 181.439 186.734C181.87 186.844 182.252 187.013 182.584 187.243C182.92 187.474 183.185 187.769 183.379 188.131C183.572 188.489 183.669 188.918 183.669 189.419V195.095H181.456V193.928H181.39C181.255 194.191 181.074 194.423 180.847 194.624C180.621 194.821 180.349 194.976 180.031 195.089C179.713 195.199 179.346 195.254 178.93 195.254ZM179.598 193.643C179.942 193.643 180.245 193.575 180.508 193.44C180.771 193.301 180.977 193.115 181.127 192.881C181.277 192.647 181.351 192.383 181.351 192.087V191.194C181.278 191.241 181.178 191.285 181.05 191.325C180.926 191.362 180.785 191.396 180.628 191.429C180.471 191.459 180.314 191.486 180.157 191.512C180 191.533 179.858 191.554 179.73 191.572C179.456 191.612 179.217 191.676 179.012 191.764C178.807 191.851 178.649 191.97 178.535 192.12C178.422 192.266 178.365 192.448 178.365 192.668C178.365 192.985 178.481 193.228 178.711 193.396C178.944 193.561 179.24 193.643 179.598 193.643ZM185.48 195.095V186.679H187.814V195.095H185.48ZM186.652 185.594C186.305 185.594 186.008 185.479 185.759 185.249C185.515 185.015 185.392 184.736 185.392 184.411C185.392 184.089 185.515 183.814 185.759 183.584C186.008 183.35 186.305 183.233 186.652 183.233C186.999 183.233 187.295 183.35 187.54 183.584C187.788 183.814 187.912 184.089 187.912 184.411C187.912 184.736 187.788 185.015 187.54 185.249C187.295 185.479 186.999 185.594 186.652 185.594ZM192.018 183.874V195.095H189.684V183.874H192.018ZM200.889 189.079L198.752 189.21C198.716 189.028 198.637 188.863 198.517 188.717C198.396 188.568 198.237 188.449 198.04 188.361C197.847 188.27 197.615 188.224 197.344 188.224C196.983 188.224 196.678 188.301 196.429 188.454C196.181 188.604 196.057 188.805 196.057 189.057C196.057 189.258 196.137 189.428 196.298 189.567C196.459 189.705 196.734 189.817 197.125 189.901L198.648 190.208C199.467 190.376 200.077 190.646 200.478 191.018C200.88 191.391 201.081 191.88 201.081 192.487C201.081 193.038 200.918 193.522 200.593 193.939C200.272 194.355 199.83 194.68 199.267 194.914C198.709 195.144 198.064 195.259 197.333 195.259C196.219 195.259 195.332 195.027 194.671 194.563C194.013 194.096 193.628 193.46 193.515 192.657L195.81 192.536C195.88 192.876 196.048 193.135 196.314 193.314C196.581 193.489 196.923 193.577 197.339 193.577C197.748 193.577 198.077 193.499 198.325 193.341C198.577 193.181 198.705 192.974 198.709 192.722C198.705 192.511 198.615 192.337 198.44 192.202C198.265 192.063 197.995 191.957 197.629 191.884L196.172 191.594C195.35 191.429 194.738 191.144 194.336 190.739C193.938 190.334 193.739 189.817 193.739 189.188C193.739 188.648 193.885 188.182 194.178 187.791C194.473 187.401 194.888 187.099 195.421 186.887C195.958 186.675 196.586 186.57 197.306 186.57C198.369 186.57 199.205 186.794 199.815 187.243C200.429 187.693 200.787 188.305 200.889 189.079Z" fill="url(#paint9_radial_198_10817)" fill-opacity="0.7"/>
</g>
</g>
<path d="M88.2819 91.5851V102.063H87.054L81.3441 93.8363H81.2417V102.063H79.9729V91.5851H81.2008L86.9312 99.8327H87.0335V91.5851H88.2819ZM93.9522 102.227C93.1949 102.227 92.5417 102.06 91.9926 101.726C91.4468 101.388 91.0256 100.917 90.7288 100.314C90.4355 99.7065 90.2888 99.0005 90.2888 98.1955C90.2888 97.3905 90.4355 96.681 90.7288 96.0671C91.0256 95.4497 91.4383 94.9687 91.967 94.6242C92.4991 94.2763 93.1199 94.1024 93.8294 94.1024C94.2387 94.1024 94.6429 94.1706 95.0419 94.307C95.441 94.4435 95.8043 94.6652 96.1317 94.9722C96.4592 95.2757 96.7201 95.6782 96.9145 96.1796C97.109 96.681 97.2062 97.2984 97.2062 98.0318V98.5434H91.1484V97.4997H95.9782C95.9782 97.0562 95.8896 96.6606 95.7122 96.3126C95.5382 95.9647 95.2892 95.6902 94.9652 95.4889C94.6446 95.2877 94.266 95.187 93.8294 95.187C93.3484 95.187 92.9323 95.3064 92.581 95.5452C92.233 95.7805 91.9653 96.0875 91.7777 96.4661C91.5901 96.8448 91.4963 97.2507 91.4963 97.6838V98.3797C91.4963 98.9732 91.5986 99.4763 91.8033 99.889C92.0113 100.298 92.2996 100.61 92.6679 100.825C93.0363 101.037 93.4644 101.143 93.9522 101.143C94.2694 101.143 94.5559 101.098 94.8117 101.009C95.0709 100.917 95.2944 100.781 95.482 100.6C95.6696 100.416 95.8145 100.187 95.9168 99.9146L97.0834 100.242C96.9606 100.638 96.7542 100.986 96.4643 101.286C96.1744 101.583 95.8162 101.814 95.3899 101.982C94.9635 102.145 94.4843 102.227 93.9522 102.227ZM100.823 102.063L98.429 94.2047H99.6979L101.397 100.222H101.478L103.157 94.2047H104.446L106.104 100.201H106.185L107.884 94.2047H109.153L106.758 102.063H105.571L103.852 96.0261H103.73L102.01 102.063H100.823ZM111.957 91.5851V102.063H110.749V91.5851H111.957ZM114.946 105.011C114.741 105.011 114.559 104.993 114.399 104.959C114.238 104.929 114.127 104.898 114.066 104.867L114.373 103.803C114.666 103.878 114.926 103.905 115.151 103.885C115.376 103.864 115.575 103.764 115.749 103.583C115.927 103.406 116.089 103.117 116.235 102.718L116.46 102.104L113.554 94.2047H114.864L117.033 100.467H117.115L119.285 94.2047H120.595L117.259 103.21C117.109 103.615 116.923 103.951 116.701 104.217C116.479 104.487 116.222 104.686 115.928 104.816C115.638 104.946 115.311 105.011 114.946 105.011ZM126.24 102.063V94.2047H127.448V102.063H126.24ZM126.854 92.8949C126.619 92.8949 126.416 92.8147 126.246 92.6544C126.078 92.4941 125.995 92.3014 125.995 92.0763C125.995 91.8511 126.078 91.6584 126.246 91.4981C126.416 91.3378 126.619 91.2576 126.854 91.2576C127.09 91.2576 127.291 91.3378 127.458 91.4981C127.629 91.6584 127.714 91.8511 127.714 92.0763C127.714 92.3014 127.629 92.4941 127.458 92.6544C127.291 92.8147 127.09 92.8949 126.854 92.8949ZM130.867 97.3359V102.063H129.659V94.2047H130.826V95.4326H130.928C131.113 95.0335 131.392 94.7129 131.767 94.4707C132.143 94.2252 132.627 94.1024 133.22 94.1024C133.753 94.1024 134.218 94.2115 134.617 94.4298C135.016 94.6447 135.327 94.9722 135.548 95.4122C135.77 95.8488 135.881 96.4013 135.881 97.0699V102.063H134.674V97.1517C134.674 96.5344 134.513 96.0534 134.193 95.7089C133.872 95.361 133.432 95.187 132.873 95.187C132.487 95.187 132.143 95.2706 131.839 95.4377C131.539 95.6049 131.302 95.8488 131.128 96.1694C130.954 96.49 130.867 96.8789 130.867 97.3359ZM144.232 94.2047L141.326 102.063H140.098L137.192 94.2047H138.502L140.671 100.467H140.753L142.922 94.2047H144.232ZM145.826 102.063V94.2047H147.033V102.063H145.826ZM146.44 92.8949C146.205 92.8949 146.002 92.8147 145.831 92.6544C145.664 92.4941 145.58 92.3014 145.58 92.0763C145.58 91.8511 145.664 91.6584 145.831 91.4981C146.002 91.3378 146.205 91.2576 146.44 91.2576C146.675 91.2576 146.877 91.3378 147.044 91.4981C147.214 91.6584 147.3 91.8511 147.3 92.0763C147.3 92.3014 147.214 92.4941 147.044 92.6544C146.877 92.8147 146.675 92.8949 146.44 92.8949ZM152.663 94.2047V95.228H148.59V94.2047H152.663ZM149.777 92.3219H150.985V99.8123C150.985 100.153 151.034 100.409 151.133 100.58C151.235 100.747 151.365 100.859 151.522 100.917C151.682 100.972 151.851 100.999 152.028 100.999C152.161 100.999 152.271 100.992 152.356 100.979C152.441 100.962 152.509 100.948 152.56 100.938L152.806 102.023C152.724 102.053 152.61 102.084 152.463 102.115C152.317 102.149 152.131 102.166 151.906 102.166C151.564 102.166 151.23 102.092 150.903 101.946C150.579 101.799 150.309 101.576 150.094 101.276C149.883 100.975 149.777 100.597 149.777 100.14V92.3219ZM157.69 102.227C156.932 102.227 156.279 102.06 155.73 101.726C155.184 101.388 154.763 100.917 154.466 100.314C154.173 99.7065 154.026 99.0005 154.026 98.1955C154.026 97.3905 154.173 96.681 154.466 96.0671C154.763 95.4497 155.176 94.9687 155.705 94.6242C156.237 94.2763 156.857 94.1024 157.567 94.1024C157.976 94.1024 158.38 94.1706 158.779 94.307C159.179 94.4435 159.542 94.6652 159.869 94.9722C160.197 95.2757 160.458 95.6782 160.652 96.1796C160.846 96.681 160.944 97.2984 160.944 98.0318V98.5434H154.886V97.4997H159.716C159.716 97.0562 159.627 96.6606 159.45 96.3126C159.276 95.9647 159.027 95.6902 158.703 95.4889C158.382 95.2877 158.003 95.187 157.567 95.187C157.086 95.187 156.67 95.3064 156.318 95.5452C155.971 95.7805 155.703 96.0875 155.515 96.4661C155.328 96.8448 155.234 97.2507 155.234 97.6838V98.3797C155.234 98.9732 155.336 99.4763 155.541 99.889C155.749 100.298 156.037 100.61 156.405 100.825C156.774 101.037 157.202 101.143 157.69 101.143C158.007 101.143 158.293 101.098 158.549 101.009C158.808 100.917 159.032 100.781 159.219 100.6C159.407 100.416 159.552 100.187 159.654 99.9146L160.821 100.242C160.698 100.638 160.492 100.986 160.202 101.286C159.912 101.583 159.554 101.814 159.127 101.982C158.701 102.145 158.222 102.227 157.69 102.227ZM165.748 102.227C165.093 102.227 164.515 102.062 164.014 101.731C163.512 101.397 163.12 100.926 162.837 100.319C162.554 99.7082 162.412 98.9868 162.412 98.1545C162.412 97.3291 162.554 96.6128 162.837 96.0057C163.12 95.3985 163.514 94.9295 164.019 94.5987C164.523 94.2678 165.107 94.1024 165.768 94.1024C166.28 94.1024 166.684 94.1876 166.981 94.3582C167.281 94.5253 167.51 94.7163 167.667 94.9312C167.827 95.1427 167.951 95.3167 168.04 95.4531H168.142V91.5851H169.35V102.063H168.183V100.856H168.04C167.951 100.999 167.825 101.18 167.662 101.398C167.498 101.613 167.264 101.806 166.961 101.976C166.657 102.144 166.253 102.227 165.748 102.227ZM165.912 101.143C166.396 101.143 166.805 101.016 167.14 100.764C167.474 100.508 167.728 100.155 167.902 99.7048C168.076 99.2512 168.163 98.7276 168.163 98.1341C168.163 97.5474 168.078 97.0341 167.907 96.594C167.737 96.1506 167.484 95.8061 167.15 95.5605C166.816 95.3115 166.403 95.187 165.912 95.187C165.4 95.187 164.974 95.3184 164.633 95.581C164.295 95.8402 164.041 96.1933 163.87 96.6401C163.703 97.0835 163.62 97.5815 163.62 98.1341C163.62 98.6935 163.705 99.2017 163.875 99.6588C164.049 100.112 164.305 100.474 164.643 100.743C164.984 101.009 165.407 101.143 165.912 101.143ZM225.83 105.011V94.2047H226.996V95.4531H227.139C227.228 95.3167 227.351 95.1427 227.508 94.9312C227.668 94.7163 227.897 94.5253 228.193 94.3582C228.494 94.1876 228.899 94.1024 229.411 94.1024C230.073 94.1024 230.656 94.2678 231.161 94.5987C231.666 94.9295 232.06 95.3985 232.343 96.0057C232.626 96.6128 232.767 97.3291 232.767 98.1545C232.767 98.9868 232.626 99.7082 232.343 100.319C232.06 100.926 231.667 101.397 231.166 101.731C230.665 102.062 230.086 102.227 229.432 102.227C228.927 102.227 228.523 102.144 228.219 101.976C227.915 101.806 227.682 101.613 227.518 101.398C227.354 101.18 227.228 100.999 227.139 100.856H227.037V105.011H225.83ZM227.017 98.1341C227.017 98.7276 227.104 99.2512 227.278 99.7048C227.452 100.155 227.706 100.508 228.04 100.764C228.374 101.016 228.784 101.143 229.268 101.143C229.773 101.143 230.194 101.009 230.532 100.743C230.873 100.474 231.129 100.112 231.299 99.6588C231.473 99.2017 231.56 98.6935 231.56 98.1341C231.56 97.5815 231.475 97.0835 231.304 96.6401C231.137 96.1933 230.883 95.8402 230.542 95.581C230.204 95.3184 229.78 95.187 229.268 95.187C228.777 95.187 228.364 95.3115 228.03 95.5605C227.695 95.8061 227.443 96.1506 227.272 96.594C227.102 97.0341 227.017 97.5474 227.017 98.1341ZM237.904 102.227C237.147 102.227 236.494 102.06 235.945 101.726C235.399 101.388 234.978 100.917 234.681 100.314C234.388 99.7065 234.241 99.0005 234.241 98.1955C234.241 97.3905 234.388 96.681 234.681 96.0671C234.978 95.4497 235.39 94.9687 235.919 94.6242C236.451 94.2763 237.072 94.1024 237.782 94.1024C238.191 94.1024 238.595 94.1706 238.994 94.307C239.393 94.4435 239.756 94.6652 240.084 94.9722C240.411 95.2757 240.672 95.6782 240.867 96.1796C241.061 96.681 241.158 97.2984 241.158 98.0318V98.5434H235.101V97.4997H239.93C239.93 97.0562 239.842 96.6606 239.664 96.3126C239.49 95.9647 239.241 95.6902 238.917 95.4889C238.597 95.2877 238.218 95.187 237.782 95.187C237.301 95.187 236.884 95.3064 236.533 95.5452C236.185 95.7805 235.917 96.0875 235.73 96.4661C235.542 96.8448 235.448 97.2507 235.448 97.6838V98.3797C235.448 98.9732 235.551 99.4763 235.755 99.889C235.964 100.298 236.252 100.61 236.62 100.825C236.989 101.037 237.417 101.143 237.904 101.143C238.222 101.143 238.508 101.098 238.764 101.009C239.023 100.917 239.247 100.781 239.434 100.6C239.622 100.416 239.767 100.187 239.869 99.9146L241.036 100.242C240.913 100.638 240.706 100.986 240.416 101.286C240.127 101.583 239.768 101.814 239.342 101.982C238.916 102.145 238.436 102.227 237.904 102.227ZM246.188 102.227C245.478 102.227 244.856 102.058 244.32 101.721C243.788 101.383 243.372 100.911 243.072 100.303C242.775 99.6963 242.627 98.9868 242.627 98.175C242.627 97.3564 242.775 96.6418 243.072 96.0312C243.372 95.4207 243.788 94.9466 244.32 94.6089C244.856 94.2712 245.478 94.1024 246.188 94.1024C246.897 94.1024 247.518 94.2712 248.05 94.6089C248.586 94.9466 249.002 95.4207 249.299 96.0312C249.599 96.6418 249.749 97.3564 249.749 98.175C249.749 98.9868 249.599 99.6963 249.299 100.303C249.002 100.911 248.586 101.383 248.05 101.721C247.518 102.058 246.897 102.227 246.188 102.227ZM246.188 101.143C246.727 101.143 247.17 101.004 247.518 100.728C247.866 100.452 248.123 100.089 248.291 99.6383C248.458 99.1881 248.541 98.7003 248.541 98.175C248.541 97.6497 248.458 97.1603 248.291 96.7066C248.123 96.253 247.866 95.8863 247.518 95.6066C247.17 95.3269 246.727 95.187 246.188 95.187C245.649 95.187 245.205 95.3269 244.858 95.6066C244.51 95.8863 244.252 96.253 244.085 96.7066C243.918 97.1603 243.834 97.6497 243.834 98.175C243.834 98.7003 243.918 99.1881 244.085 99.6383C244.252 100.089 244.51 100.452 244.858 100.728C245.205 101.004 245.649 101.143 246.188 101.143ZM251.592 105.011V94.2047H252.759V95.4531H252.902C252.99 95.3167 253.113 95.1427 253.27 94.9312C253.43 94.7163 253.659 94.5253 253.956 94.3582C254.256 94.1876 254.662 94.1024 255.173 94.1024C255.835 94.1024 256.418 94.2678 256.923 94.5987C257.428 94.9295 257.822 95.3985 258.105 96.0057C258.388 96.6128 258.53 97.3291 258.53 98.1545C258.53 98.9868 258.388 99.7082 258.105 100.319C257.822 100.926 257.43 101.397 256.928 101.731C256.427 102.062 255.849 102.227 255.194 102.227C254.689 102.227 254.285 102.144 253.981 101.976C253.678 101.806 253.444 101.613 253.28 101.398C253.117 101.18 252.99 100.999 252.902 100.856H252.799V105.011H251.592ZM252.779 98.1341C252.779 98.7276 252.866 99.2512 253.04 99.7048C253.214 100.155 253.468 100.508 253.802 100.764C254.137 101.016 254.546 101.143 255.03 101.143C255.535 101.143 255.956 101.009 256.294 100.743C256.635 100.474 256.891 100.112 257.061 99.6588C257.235 99.2017 257.322 98.6935 257.322 98.1341C257.322 97.5815 257.237 97.0835 257.067 96.6401C256.899 96.1933 256.645 95.8402 256.304 95.581C255.967 95.3184 255.542 95.187 255.03 95.187C254.539 95.187 254.126 95.3115 253.792 95.5605C253.458 95.8061 253.205 96.1506 253.035 96.594C252.864 97.0341 252.779 97.5474 252.779 98.1341ZM261.579 91.5851V102.063H260.372V91.5851H261.579ZM267.086 102.227C266.328 102.227 265.675 102.06 265.126 101.726C264.58 101.388 264.159 100.917 263.862 100.314C263.569 99.7065 263.422 99.0005 263.422 98.1955C263.422 97.3905 263.569 96.681 263.862 96.0671C264.159 95.4497 264.572 94.9687 265.101 94.6242C265.633 94.2763 266.253 94.1024 266.963 94.1024C267.372 94.1024 267.776 94.1706 268.176 94.307C268.575 94.4435 268.938 94.6652 269.265 94.9722C269.593 95.2757 269.854 95.6782 270.048 96.1796C270.243 96.681 270.34 97.2984 270.34 98.0318V98.5434H264.282V97.4997H269.112C269.112 97.0562 269.023 96.6606 268.846 96.3126C268.672 95.9647 268.423 95.6902 268.099 95.4889C267.778 95.2877 267.4 95.187 266.963 95.187C266.482 95.187 266.066 95.3064 265.715 95.5452C265.367 95.7805 265.099 96.0875 264.911 96.4661C264.724 96.8448 264.63 97.2507 264.63 97.6838V98.3797C264.63 98.9732 264.732 99.4763 264.937 99.889C265.145 100.298 265.433 100.61 265.801 100.825C266.17 101.037 266.598 101.143 267.086 101.143C267.403 101.143 267.689 101.098 267.945 101.009C268.204 100.917 268.428 100.781 268.616 100.6C268.803 100.416 268.948 100.187 269.05 99.9146L270.217 100.242C270.094 100.638 269.888 100.986 269.598 101.286C269.308 101.583 268.95 101.814 268.523 101.982C268.097 102.145 267.618 102.227 267.086 102.227Z" fill="black"/>
<path d="M181.539 88.7659V102.063H178.728V91.4345H178.65L175.605 93.3434V90.8501L178.897 88.7659H181.539ZM184.498 99.726V97.5119L190.05 88.7659H191.959V91.8306H190.829L187.329 97.3691V97.4729H195.218V99.726H184.498ZM190.881 102.063V99.0507L190.933 98.0703V88.7659H193.569V102.063H190.881ZM202.305 102.356C201.189 102.351 200.228 102.076 199.422 101.531C198.622 100.986 198.005 100.196 197.572 99.1611C197.143 98.1266 196.931 96.8821 196.936 95.4277C196.936 93.9776 197.15 92.7417 197.578 91.7202C198.011 90.6986 198.628 89.9216 199.429 89.3892C200.234 88.8524 201.193 88.5841 202.305 88.5841C203.418 88.5841 204.374 88.8524 205.175 89.3892C205.98 89.9259 206.599 90.7051 207.032 91.7267C207.465 92.7439 207.679 93.9776 207.675 95.4277C207.675 96.8864 207.459 98.1331 207.026 99.1676C206.597 100.202 205.983 100.992 205.182 101.538C204.381 102.083 203.422 102.356 202.305 102.356ZM202.305 100.025C203.067 100.025 203.675 99.6416 204.13 98.8754C204.584 98.1093 204.809 96.96 204.805 95.4277C204.805 94.4191 204.701 93.5793 204.493 92.9084C204.29 92.2374 204 91.7332 203.623 91.3955C203.251 91.0579 202.812 90.8891 202.305 90.8891C201.548 90.8891 200.942 91.2678 200.487 92.0253C200.033 92.7829 199.803 93.917 199.799 95.4277C199.799 96.4492 199.901 97.302 200.104 97.9859C200.312 98.6655 200.604 99.1763 200.981 99.5182C201.357 99.8559 201.799 100.025 202.305 100.025ZM214.491 88.5841C215.175 88.5841 215.833 88.6988 216.465 88.9282C217.101 89.1576 217.668 89.5234 218.166 90.0255C218.668 90.5276 219.064 91.1942 219.354 92.0253C219.649 92.8521 219.798 93.8672 219.802 95.0705C219.802 96.2003 219.675 97.2089 219.419 98.0963C219.168 98.9793 218.807 99.7303 218.335 100.349C217.863 100.968 217.294 101.44 216.627 101.765C215.961 102.085 215.216 102.245 214.394 102.245C213.506 102.245 212.723 102.074 212.043 101.732C211.364 101.386 210.816 100.916 210.4 100.323C209.989 99.726 209.74 99.0551 209.654 98.3105H212.426C212.534 98.7953 212.762 99.1719 213.108 99.4403C213.454 99.7044 213.883 99.8364 214.394 99.8364C215.259 99.8364 215.917 99.4598 216.367 98.7066C216.818 97.9491 217.045 96.9124 217.049 95.5965H216.958C216.759 95.9861 216.491 96.3215 216.153 96.6029C215.816 96.8799 215.428 97.0942 214.991 97.2457C214.558 97.3972 214.097 97.4729 213.608 97.4729C212.824 97.4729 212.125 97.289 211.511 96.921C210.896 96.5531 210.411 96.0467 210.056 95.4017C209.701 94.7567 209.524 94.0208 209.524 93.1941C209.52 92.3024 209.725 91.5081 210.141 90.8112C210.556 90.1142 211.136 89.5688 211.881 89.1749C212.63 88.7767 213.5 88.5797 214.491 88.5841ZM214.51 90.7917C214.073 90.7917 213.684 90.8956 213.342 91.1033C213.004 91.3111 212.736 91.5903 212.537 91.9409C212.342 92.2916 212.247 92.6833 212.251 93.1162C212.251 93.5534 212.346 93.9473 212.537 94.2979C212.731 94.6442 212.995 94.9212 213.329 95.129C213.666 95.3324 214.052 95.4342 214.485 95.4342C214.809 95.4342 215.11 95.3736 215.387 95.2523C215.664 95.1311 215.904 94.9645 216.108 94.7524C216.316 94.536 216.478 94.2871 216.595 94.0057C216.712 93.7243 216.77 93.4257 216.77 93.1097C216.766 92.6898 216.666 92.3045 216.471 91.9539C216.277 91.6033 216.008 91.3219 215.666 91.1098C215.324 90.8977 214.939 90.7917 214.51 90.7917Z" fill="#ED1B24"/>
<path d="M115.353 115.759V126.237H114.125L108.415 118.01H108.313V126.237H107.044V115.759H108.272L114.003 124.007H114.105V115.759H115.353ZM121.024 126.401C120.266 126.401 119.613 126.234 119.064 125.9C118.518 125.562 118.097 125.091 117.8 124.487C117.507 123.88 117.36 123.174 117.36 122.369C117.36 121.564 117.507 120.855 117.8 120.241C118.097 119.624 118.51 119.143 119.038 118.798C119.57 118.45 120.191 118.276 120.901 118.276C121.31 118.276 121.714 118.344 122.113 118.481C122.512 118.617 122.876 118.839 123.203 119.146C123.531 119.45 123.792 119.852 123.986 120.353C124.18 120.855 124.278 121.472 124.278 122.206V122.717H118.22V121.673H123.05C123.05 121.23 122.961 120.834 122.784 120.486C122.61 120.139 122.361 119.864 122.037 119.663C121.716 119.461 121.337 119.361 120.901 119.361C120.42 119.361 120.004 119.48 119.652 119.719C119.304 119.954 119.037 120.261 118.849 120.64C118.661 121.019 118.568 121.424 118.568 121.858V122.553C118.568 123.147 118.67 123.65 118.875 124.063C119.083 124.472 119.371 124.784 119.739 124.999C120.108 125.211 120.536 125.316 121.024 125.316C121.341 125.316 121.627 125.272 121.883 125.183C122.142 125.091 122.366 124.955 122.553 124.774C122.741 124.59 122.886 124.361 122.988 124.088L124.155 124.416C124.032 124.812 123.826 125.159 123.536 125.46C123.246 125.756 122.888 125.988 122.461 126.155C122.035 126.319 121.556 126.401 121.024 126.401ZM127.895 126.237L125.5 118.379H126.769L128.468 124.395H128.55L130.228 118.379H131.517L133.175 124.375H133.257L134.955 118.379H136.224L133.83 126.237H132.643L130.924 120.2H130.801L129.082 126.237H127.895ZM144.185 126.421C143.687 126.421 143.236 126.328 142.83 126.14C142.424 125.949 142.101 125.675 141.863 125.316C141.624 124.955 141.504 124.518 141.504 124.007C141.504 123.556 141.593 123.191 141.771 122.912C141.948 122.629 142.185 122.407 142.482 122.247C142.778 122.086 143.106 121.967 143.464 121.888C143.826 121.807 144.189 121.742 144.554 121.694C145.031 121.633 145.419 121.586 145.715 121.556C146.015 121.522 146.234 121.465 146.37 121.387C146.51 121.309 146.58 121.172 146.58 120.978V120.937C146.58 120.432 146.442 120.04 146.166 119.76C145.893 119.48 145.478 119.34 144.922 119.34C144.346 119.34 143.894 119.467 143.566 119.719C143.239 119.971 143.009 120.241 142.876 120.527L141.73 120.118C141.934 119.641 142.207 119.269 142.548 119.003C142.893 118.733 143.268 118.546 143.674 118.44C144.083 118.331 144.486 118.276 144.881 118.276C145.134 118.276 145.424 118.307 145.751 118.368C146.082 118.426 146.401 118.547 146.708 118.732C147.018 118.916 147.276 119.194 147.48 119.566C147.685 119.937 147.787 120.435 147.787 121.06V126.237H146.58V125.173H146.519C146.437 125.344 146.3 125.526 146.109 125.721C145.918 125.915 145.664 126.08 145.347 126.217C145.03 126.353 144.643 126.421 144.185 126.421ZM144.37 125.337C144.847 125.337 145.25 125.243 145.577 125.055C145.908 124.868 146.157 124.626 146.324 124.329C146.495 124.032 146.58 123.72 146.58 123.393V122.287C146.529 122.349 146.416 122.405 146.242 122.456C146.072 122.504 145.874 122.547 145.649 122.584C145.427 122.618 145.21 122.649 144.999 122.676C144.791 122.7 144.622 122.721 144.492 122.738C144.179 122.779 143.885 122.845 143.612 122.937C143.343 123.026 143.125 123.161 142.958 123.341C142.794 123.519 142.712 123.761 142.712 124.068C142.712 124.487 142.867 124.805 143.178 125.02C143.491 125.231 143.889 125.337 144.37 125.337ZM153.163 129.348C152.58 129.348 152.079 129.273 151.659 129.123C151.24 128.976 150.89 128.782 150.61 128.54C150.334 128.301 150.114 128.045 149.95 127.772L150.912 127.097C151.021 127.24 151.16 127.404 151.327 127.588C151.494 127.776 151.722 127.938 152.012 128.074C152.306 128.214 152.689 128.284 153.163 128.284C153.798 128.284 154.321 128.13 154.734 127.823C155.147 127.516 155.353 127.035 155.353 126.381V124.784H155.251C155.162 124.928 155.036 125.105 154.872 125.316C154.712 125.524 154.48 125.71 154.177 125.874C153.876 126.034 153.47 126.115 152.959 126.115C152.324 126.115 151.755 125.964 151.25 125.664C150.749 125.364 150.351 124.928 150.058 124.354C149.768 123.781 149.623 123.086 149.623 122.267C149.623 121.462 149.764 120.761 150.048 120.164C150.331 119.564 150.725 119.1 151.229 118.772C151.734 118.442 152.318 118.276 152.979 118.276C153.491 118.276 153.897 118.361 154.197 118.532C154.501 118.699 154.733 118.89 154.893 119.105C155.057 119.317 155.183 119.49 155.271 119.627H155.394V118.379H156.561V126.462C156.561 127.138 156.407 127.687 156.1 128.11C155.797 128.536 155.387 128.848 154.872 129.046C154.361 129.247 153.791 129.348 153.163 129.348ZM153.123 125.03C153.607 125.03 154.016 124.919 154.35 124.697C154.685 124.476 154.939 124.157 155.113 123.741C155.287 123.324 155.374 122.826 155.374 122.247C155.374 121.68 155.288 121.181 155.118 120.747C154.947 120.314 154.695 119.975 154.361 119.729C154.026 119.484 153.614 119.361 153.123 119.361C152.611 119.361 152.185 119.49 151.843 119.75C151.506 120.009 151.252 120.357 151.081 120.793C150.914 121.23 150.83 121.714 150.83 122.247C150.83 122.792 150.916 123.275 151.086 123.694C151.26 124.111 151.516 124.438 151.854 124.677C152.195 124.912 152.618 125.03 153.123 125.03ZM162.066 126.401C161.309 126.401 160.656 126.234 160.106 125.9C159.561 125.562 159.139 125.091 158.843 124.487C158.549 123.88 158.403 123.174 158.403 122.369C158.403 121.564 158.549 120.855 158.843 120.241C159.139 119.624 159.552 119.143 160.081 118.798C160.613 118.45 161.234 118.276 161.943 118.276C162.353 118.276 162.757 118.344 163.156 118.481C163.555 118.617 163.918 118.839 164.246 119.146C164.573 119.45 164.834 119.852 165.028 120.353C165.223 120.855 165.32 121.472 165.32 122.206V122.717H159.262V121.673H164.092C164.092 121.23 164.003 120.834 163.826 120.486C163.652 120.139 163.403 119.864 163.079 119.663C162.758 119.461 162.38 119.361 161.943 119.361C161.462 119.361 161.046 119.48 160.695 119.719C160.347 119.954 160.079 120.261 159.892 120.64C159.704 121.019 159.61 121.424 159.61 121.858V122.553C159.61 123.147 159.712 123.65 159.917 124.063C160.125 124.472 160.413 124.784 160.782 124.999C161.15 125.211 161.578 125.316 162.066 125.316C162.383 125.316 162.67 125.272 162.926 125.183C163.185 125.091 163.408 124.955 163.596 124.774C163.783 124.59 163.928 124.361 164.031 124.088L165.197 124.416C165.074 124.812 164.868 125.159 164.578 125.46C164.288 125.756 163.93 125.988 163.504 126.155C163.077 126.319 162.598 126.401 162.066 126.401ZM168.364 121.51V126.237H167.157V118.379H168.323V119.606H168.426C168.61 119.207 168.89 118.887 169.265 118.645C169.64 118.399 170.124 118.276 170.718 118.276C171.25 118.276 171.716 118.385 172.115 118.604C172.514 118.819 172.824 119.146 173.046 119.586C173.267 120.023 173.378 120.575 173.378 121.244V126.237H172.171V121.326C172.171 120.708 172.011 120.227 171.69 119.883C171.369 119.535 170.929 119.361 170.37 119.361C169.984 119.361 169.64 119.444 169.336 119.612C169.036 119.779 168.799 120.023 168.625 120.343C168.451 120.664 168.364 121.053 168.364 121.51ZM178.777 126.401C178.041 126.401 177.406 126.227 176.874 125.879C176.342 125.531 175.933 125.052 175.646 124.441C175.36 123.831 175.216 123.133 175.216 122.349C175.216 121.551 175.363 120.846 175.656 120.236C175.953 119.622 176.366 119.143 176.895 118.798C177.427 118.45 178.047 118.276 178.757 118.276C179.31 118.276 179.808 118.379 180.251 118.583C180.694 118.788 181.058 119.074 181.341 119.443C181.624 119.811 181.8 120.241 181.868 120.732H180.66C180.568 120.374 180.364 120.057 180.046 119.78C179.732 119.501 179.31 119.361 178.777 119.361C178.307 119.361 177.894 119.484 177.539 119.729C177.188 119.971 176.913 120.314 176.716 120.758C176.521 121.198 176.424 121.714 176.424 122.308C176.424 122.915 176.519 123.444 176.71 123.894C176.905 124.344 177.178 124.694 177.529 124.943C177.884 125.192 178.3 125.316 178.777 125.316C179.091 125.316 179.376 125.262 179.632 125.153C179.888 125.043 180.104 124.887 180.282 124.682C180.459 124.477 180.585 124.232 180.66 123.945H181.868C181.8 124.409 181.631 124.827 181.361 125.199C181.095 125.567 180.742 125.86 180.302 126.079C179.866 126.294 179.357 126.401 178.777 126.401ZM184.411 129.184C184.206 129.184 184.023 129.167 183.863 129.133C183.703 129.102 183.592 129.072 183.531 129.041L183.838 127.977C184.131 128.052 184.39 128.079 184.615 128.059C184.84 128.038 185.04 127.938 185.214 127.757C185.391 127.58 185.553 127.291 185.7 126.892L185.925 126.278L183.019 118.379H184.329L186.498 124.641H186.58L188.749 118.379H190.059L186.723 127.383C186.573 127.789 186.387 128.125 186.166 128.391C185.944 128.661 185.686 128.86 185.393 128.99C185.103 129.12 184.776 129.184 184.411 129.184ZM195.705 126.237V118.379H196.913V126.237H195.705ZM196.319 117.069C196.084 117.069 195.881 116.989 195.71 116.828C195.543 116.668 195.459 116.475 195.459 116.25C195.459 116.025 195.543 115.832 195.71 115.672C195.881 115.512 196.084 115.431 196.319 115.431C196.554 115.431 196.756 115.512 196.923 115.672C197.093 115.832 197.179 116.025 197.179 116.25C197.179 116.475 197.093 116.668 196.923 116.828C196.756 116.989 196.554 117.069 196.319 117.069ZM200.332 121.51V126.237H199.124V118.379H200.291V119.606H200.393C200.577 119.207 200.857 118.887 201.232 118.645C201.607 118.399 202.092 118.276 202.685 118.276C203.217 118.276 203.683 118.385 204.082 118.604C204.481 118.819 204.791 119.146 205.013 119.586C205.235 120.023 205.346 120.575 205.346 121.244V126.237H204.138V121.326C204.138 120.708 203.978 120.227 203.657 119.883C203.337 119.535 202.897 119.361 202.337 119.361C201.952 119.361 201.607 119.444 201.304 119.612C201.003 119.779 200.766 120.023 200.592 120.343C200.419 120.664 200.332 121.053 200.332 121.51ZM210.745 126.401C210.008 126.401 209.373 126.227 208.841 125.879C208.309 125.531 207.9 125.052 207.613 124.441C207.327 123.831 207.184 123.133 207.184 122.349C207.184 121.551 207.33 120.846 207.624 120.236C207.92 119.622 208.333 119.143 208.862 118.798C209.394 118.45 210.015 118.276 210.724 118.276C211.277 118.276 211.775 118.379 212.218 118.583C212.662 118.788 213.025 119.074 213.308 119.443C213.591 119.811 213.767 120.241 213.835 120.732H212.628C212.535 120.374 212.331 120.057 212.014 119.78C211.7 119.501 211.277 119.361 210.745 119.361C210.274 119.361 209.861 119.484 209.507 119.729C209.155 119.971 208.881 120.314 208.683 120.758C208.488 121.198 208.391 121.714 208.391 122.308C208.391 122.915 208.487 123.444 208.678 123.894C208.872 124.344 209.145 124.694 209.496 124.943C209.851 125.192 210.267 125.316 210.745 125.316C211.058 125.316 211.343 125.262 211.599 125.153C211.855 125.043 212.072 124.887 212.249 124.682C212.426 124.477 212.552 124.232 212.628 123.945H213.835C213.767 124.409 213.598 124.827 213.328 125.199C213.062 125.567 212.709 125.86 212.269 126.079C211.833 126.294 211.325 126.401 210.745 126.401ZM218.793 126.401C218.083 126.401 217.461 126.232 216.925 125.895C216.393 125.557 215.977 125.084 215.677 124.477C215.38 123.87 215.232 123.161 215.232 122.349C215.232 121.53 215.38 120.816 215.677 120.205C215.977 119.595 216.393 119.12 216.925 118.783C217.461 118.445 218.083 118.276 218.793 118.276C219.502 118.276 220.123 118.445 220.655 118.783C221.191 119.12 221.607 119.595 221.904 120.205C222.204 120.816 222.354 121.53 222.354 122.349C222.354 123.161 222.204 123.87 221.904 124.477C221.607 125.084 221.191 125.557 220.655 125.895C220.123 126.232 219.502 126.401 218.793 126.401ZM218.793 125.316C219.332 125.316 219.775 125.178 220.123 124.902C220.471 124.626 220.728 124.262 220.896 123.812C221.063 123.362 221.146 122.874 221.146 122.349C221.146 121.824 221.063 121.334 220.896 120.88C220.728 120.427 220.471 120.06 220.123 119.78C219.775 119.501 219.332 119.361 218.793 119.361C218.254 119.361 217.81 119.501 217.463 119.78C217.115 120.06 216.857 120.427 216.69 120.88C216.523 121.334 216.439 121.824 216.439 122.349C216.439 122.874 216.523 123.362 216.69 123.812C216.857 124.262 217.115 124.626 217.463 124.902C217.81 125.178 218.254 125.316 218.793 125.316ZM224.197 126.237V118.379H225.364V119.606H225.466C225.63 119.187 225.894 118.861 226.259 118.629C226.624 118.394 227.062 118.276 227.574 118.276C228.092 118.276 228.524 118.394 228.868 118.629C229.216 118.861 229.487 119.187 229.682 119.606H229.764C229.965 119.201 230.267 118.878 230.669 118.639C231.072 118.397 231.554 118.276 232.117 118.276C232.82 118.276 233.395 118.496 233.841 118.936C234.288 119.373 234.512 120.053 234.512 120.978V126.237H233.304V120.978C233.304 120.398 233.146 119.983 232.828 119.734C232.511 119.485 232.138 119.361 231.708 119.361C231.155 119.361 230.727 119.528 230.424 119.862C230.12 120.193 229.968 120.613 229.968 121.121V126.237H228.74V120.855C228.74 120.408 228.595 120.048 228.305 119.775C228.016 119.499 227.642 119.361 227.185 119.361C226.871 119.361 226.578 119.444 226.305 119.612C226.035 119.779 225.817 120.011 225.65 120.307C225.486 120.601 225.404 120.94 225.404 121.326V126.237H224.197ZM240.014 126.401C239.257 126.401 238.604 126.234 238.055 125.9C237.509 125.562 237.088 125.091 236.791 124.487C236.498 123.88 236.351 123.174 236.351 122.369C236.351 121.564 236.498 120.855 236.791 120.241C237.088 119.624 237.5 119.143 238.029 118.798C238.561 118.45 239.182 118.276 239.892 118.276C240.301 118.276 240.705 118.344 241.104 118.481C241.503 118.617 241.866 118.839 242.194 119.146C242.521 119.45 242.782 119.852 242.977 120.353C243.171 120.855 243.268 121.472 243.268 122.206V122.717H237.211V121.673H242.04C242.04 121.23 241.952 120.834 241.774 120.486C241.6 120.139 241.351 119.864 241.027 119.663C240.707 119.461 240.328 119.361 239.892 119.361C239.411 119.361 238.994 119.48 238.643 119.719C238.295 119.954 238.027 120.261 237.84 120.64C237.652 121.019 237.558 121.424 237.558 121.858V122.553C237.558 123.147 237.661 123.65 237.865 124.063C238.073 124.472 238.362 124.784 238.73 124.999C239.098 125.211 239.527 125.316 240.014 125.316C240.332 125.316 240.618 125.272 240.874 125.183C241.133 125.091 241.357 124.955 241.544 124.774C241.732 124.59 241.877 124.361 241.979 124.088L243.146 124.416C243.023 124.812 242.816 125.159 242.526 125.46C242.237 125.756 241.878 125.988 241.452 126.155C241.026 126.319 240.546 126.401 240.014 126.401Z" fill="black"/>
<path d="M115.679 143.974L115.137 146.119H105.202L105.744 143.974H115.679ZM110.364 155.19L105.473 149.429L105.488 147.401H107.897C108.404 147.401 108.822 147.298 109.149 147.093C109.48 146.883 109.727 146.61 109.888 146.273C110.054 145.936 110.139 145.57 110.144 145.175C110.139 144.575 109.966 144.077 109.624 143.682C109.288 143.281 108.712 143.081 107.897 143.081H105.202L105.839 140.197H107.897C109.161 140.197 110.22 140.38 111.074 140.746C111.928 141.112 112.572 141.641 113.007 142.334C113.441 143.027 113.661 143.865 113.666 144.846C113.661 145.709 113.529 146.454 113.27 147.079C113.017 147.703 112.621 148.228 112.084 148.653C111.552 149.077 110.862 149.426 110.012 149.7L109.873 149.758L114.193 155.051V155.19H110.364ZM115.701 140.197L115.137 142.386L106.85 142.4L107.413 140.197H115.701ZM124.503 140.197V155.19H120.886V143.579H120.798L117.445 145.629V142.495L121.143 140.197H124.503ZM127.635 152.701V149.875L133.777 140.197H136.288V144.033H134.831L131.237 149.729V149.846H140.132V152.701H127.635ZM134.875 155.19V151.837L134.948 150.6V140.197H138.338V155.19H134.875ZM141.849 152.701V149.875L147.991 140.197H150.502V144.033H149.045L145.451 149.729V149.846H154.346V152.701H141.849ZM149.089 155.19V151.837L149.163 150.6V140.197H152.552V155.19H149.089ZM156.063 152.701V149.875L162.205 140.197H164.716V144.033H163.259L159.665 149.729V149.846H168.56V152.701H156.063ZM163.303 155.19V151.837L163.377 150.6V140.197H166.766V155.19H163.303ZM176.317 155.395C175.15 155.395 174.108 155.21 173.191 154.839C172.278 154.463 171.56 153.956 171.038 153.316C170.521 152.672 170.262 151.945 170.262 151.134C170.262 150.515 170.411 149.946 170.709 149.429C171.007 148.911 171.409 148.482 171.917 148.14C172.429 147.794 173 147.572 173.63 147.474V147.357C172.805 147.205 172.129 146.822 171.602 146.207C171.08 145.592 170.819 144.872 170.819 144.048C170.819 143.267 171.055 142.571 171.529 141.961C172.007 141.351 172.659 140.87 173.484 140.519C174.313 140.167 175.258 139.992 176.317 139.992C177.376 139.992 178.318 140.167 179.143 140.519C179.973 140.87 180.624 141.351 181.098 141.961C181.576 142.571 181.815 143.267 181.815 144.048C181.815 144.877 181.549 145.6 181.017 146.215C180.49 146.825 179.819 147.205 179.004 147.357V147.474C179.628 147.572 180.195 147.794 180.702 148.14C181.215 148.482 181.62 148.911 181.918 149.429C182.22 149.946 182.371 150.515 182.371 151.134C182.371 151.945 182.11 152.672 181.588 153.316C181.066 153.956 180.348 154.463 179.436 154.839C178.528 155.21 177.488 155.395 176.317 155.395ZM176.317 152.826C176.761 152.826 177.151 152.743 177.488 152.577C177.825 152.406 178.089 152.169 178.279 151.867C178.474 151.564 178.572 151.222 178.572 150.842C178.572 150.451 178.474 150.105 178.279 149.802C178.084 149.499 177.815 149.263 177.474 149.092C177.137 148.916 176.751 148.828 176.317 148.828C175.887 148.828 175.502 148.916 175.16 149.092C174.818 149.263 174.55 149.499 174.355 149.802C174.16 150.105 174.062 150.451 174.062 150.842C174.062 151.222 174.157 151.564 174.347 151.867C174.543 152.164 174.809 152.399 175.145 152.569C175.487 152.74 175.878 152.826 176.317 152.826ZM176.317 146.273C176.698 146.273 177.034 146.195 177.327 146.039C177.625 145.883 177.857 145.666 178.023 145.387C178.193 145.109 178.279 144.794 178.279 144.443C178.279 144.092 178.193 143.782 178.023 143.513C177.857 143.245 177.627 143.035 177.334 142.884C177.042 142.727 176.702 142.649 176.317 142.649C175.936 142.649 175.597 142.727 175.299 142.884C175.001 143.035 174.77 143.245 174.604 143.513C174.438 143.782 174.355 144.092 174.355 144.443C174.355 144.794 174.438 145.109 174.604 145.387C174.774 145.661 175.009 145.878 175.307 146.039C175.604 146.195 175.941 146.273 176.317 146.273ZM184.209 152.701V149.875L190.352 140.197H192.863V144.033H191.406L187.811 149.729V149.846H196.706V152.701H184.209ZM191.45 155.19V151.837L191.523 150.6V140.197H194.913V155.19H191.45ZM200.508 155.403C199.981 155.403 199.529 155.217 199.153 154.846C198.783 154.475 198.599 154.026 198.604 153.499C198.599 152.982 198.783 152.54 199.153 152.174C199.529 151.803 199.981 151.618 200.508 151.618C201.006 151.618 201.445 151.803 201.826 152.174C202.211 152.54 202.406 152.982 202.411 153.499C202.406 153.851 202.314 154.17 202.133 154.458C201.957 154.746 201.726 154.976 201.438 155.147C201.155 155.317 200.845 155.403 200.508 155.403ZM210.007 155.395C208.865 155.395 207.852 155.2 206.969 154.81C206.09 154.414 205.397 153.87 204.89 153.177C204.382 152.484 204.123 151.686 204.114 150.783H207.76C207.774 151.11 207.879 151.4 208.074 151.654C208.27 151.903 208.536 152.098 208.872 152.24C209.209 152.382 209.592 152.452 210.022 152.452C210.451 152.452 210.83 152.377 211.157 152.225C211.488 152.069 211.747 151.857 211.933 151.588C212.118 151.315 212.208 151.003 212.203 150.651C212.208 150.3 212.108 149.988 211.903 149.714C211.698 149.441 211.408 149.229 211.032 149.077C210.661 148.926 210.222 148.85 209.714 148.85H208.257V146.273H209.714C210.158 146.273 210.549 146.2 210.886 146.054C211.227 145.907 211.493 145.702 211.684 145.439C211.874 145.17 211.967 144.863 211.962 144.516C211.967 144.179 211.886 143.884 211.72 143.63C211.559 143.372 211.332 143.171 211.039 143.03C210.751 142.888 210.417 142.818 210.036 142.818C209.636 142.818 209.273 142.888 208.946 143.03C208.623 143.171 208.367 143.372 208.177 143.63C207.986 143.889 207.886 144.189 207.877 144.531H204.414C204.423 143.638 204.672 142.852 205.16 142.173C205.649 141.49 206.312 140.956 207.152 140.57C207.996 140.184 208.958 139.992 210.036 139.992C211.11 139.992 212.055 140.18 212.87 140.555C213.685 140.931 214.319 141.444 214.773 142.093C215.227 142.737 215.454 143.467 215.454 144.282C215.459 145.126 215.183 145.822 214.627 146.368C214.075 146.915 213.365 147.252 212.496 147.379V147.496C213.658 147.633 214.534 148.008 215.125 148.623C215.72 149.238 216.015 150.007 216.01 150.929C216.01 151.798 215.754 152.569 215.242 153.243C214.734 153.912 214.026 154.439 213.119 154.824C212.216 155.205 211.178 155.395 210.007 155.395ZM223.7 139.992C224.52 139.992 225.303 140.126 226.05 140.394C226.796 140.658 227.463 141.08 228.048 141.661C228.634 142.237 229.095 142.996 229.432 143.938C229.769 144.88 229.937 146.029 229.937 147.386C229.942 148.636 229.796 149.756 229.498 150.746C229.2 151.732 228.773 152.572 228.217 153.265C227.665 153.958 227.001 154.488 226.225 154.854C225.449 155.215 224.583 155.395 223.626 155.395C222.572 155.395 221.642 155.193 220.837 154.788C220.037 154.378 219.395 153.826 218.912 153.133C218.433 152.44 218.148 151.664 218.055 150.805H221.62C221.733 151.303 221.969 151.679 222.33 151.933C222.692 152.181 223.124 152.306 223.626 152.306C224.544 152.306 225.23 151.908 225.684 151.113C226.138 150.317 226.364 149.236 226.364 147.869H226.277C226.067 148.318 225.769 148.704 225.383 149.026C225.003 149.348 224.561 149.595 224.058 149.765C223.556 149.936 223.026 150.022 222.47 150.022C221.572 150.022 220.778 149.817 220.09 149.407C219.407 148.997 218.87 148.433 218.48 147.715C218.094 146.998 217.899 146.178 217.894 145.256C217.889 144.221 218.131 143.308 218.619 142.517C219.107 141.722 219.788 141.102 220.661 140.658C221.535 140.209 222.548 139.987 223.7 139.992ZM223.722 142.774C223.272 142.774 222.872 142.879 222.521 143.089C222.174 143.298 221.901 143.581 221.701 143.938C221.501 144.294 221.403 144.694 221.408 145.138C221.413 145.583 221.513 145.983 221.708 146.339C221.908 146.695 222.179 146.978 222.521 147.188C222.867 147.398 223.263 147.503 223.707 147.503C224.039 147.503 224.346 147.442 224.629 147.32C224.912 147.198 225.159 147.03 225.369 146.815C225.579 146.595 225.742 146.342 225.859 146.054C225.981 145.766 226.04 145.458 226.035 145.131C226.03 144.697 225.928 144.301 225.728 143.945C225.527 143.589 225.252 143.306 224.9 143.096C224.554 142.881 224.161 142.774 223.722 142.774ZM237.667 155.395C236.573 155.395 235.602 155.198 234.753 154.802C233.903 154.407 233.232 153.863 232.739 153.17C232.251 152.477 231.998 151.681 231.978 150.783H235.492C235.521 151.335 235.746 151.779 236.166 152.116C236.585 152.447 237.086 152.613 237.667 152.613C238.12 152.613 238.523 152.513 238.875 152.313C239.226 152.113 239.502 151.832 239.702 151.471C239.902 151.105 240 150.685 239.995 150.212C240 149.729 239.9 149.307 239.695 148.945C239.494 148.584 239.216 148.304 238.86 148.104C238.508 147.899 238.103 147.796 237.645 147.796C237.21 147.791 236.798 147.886 236.407 148.082C236.022 148.277 235.729 148.543 235.529 148.88L232.329 148.279L232.981 140.197H242.601V143.118H235.961L235.617 146.654H235.704C235.953 146.239 236.354 145.897 236.905 145.629C237.462 145.356 238.094 145.219 238.801 145.219C239.699 145.219 240.5 145.429 241.203 145.849C241.91 146.263 242.467 146.839 242.872 147.576C243.282 148.313 243.487 149.158 243.487 150.11C243.487 151.139 243.243 152.052 242.755 152.848C242.272 153.643 241.593 154.268 240.719 154.722C239.851 155.171 238.833 155.395 237.667 155.395Z" fill="#ED1B24"/>
<path style="mix-blend-mode:multiply" fill-rule="evenodd" clip-rule="evenodd" d="M285.053 30.4868V80.1234L292.823 76.9813V30.4868C292.823 27.0475 292.823 23.4808 292.993 19.9141H285.223C285.095 23.1411 285.095 26.6229 285.095 30.4868H285.053Z" fill="url(#paint10_linear_198_10817)"/>
<path style="mix-blend-mode:multiply" fill-rule="evenodd" clip-rule="evenodd" d="M292.78 30.4868V76.9813L300.551 90.3564V30.4868C300.551 26.3681 300.593 22.9288 300.763 19.9141H292.95C292.78 23.4808 292.78 27.0475 292.78 30.4868Z" fill="url(#paint11_linear_198_10817)"/>
<path style="mix-blend-mode:multiply" fill-rule="evenodd" clip-rule="evenodd" d="M67.9929 30.3174V79.954L60.2226 76.8543V30.3598C60.2226 26.9205 60.2226 23.3538 60.0527 19.7871H67.823C67.9504 23.0141 67.9504 26.4959 67.9504 30.3598L67.9929 30.3174Z" fill="url(#paint12_linear_198_10817)"/>
<path style="mix-blend-mode:multiply" fill-rule="evenodd" clip-rule="evenodd" d="M60.2653 30.3169V76.8113L52.495 90.1865V30.3169C52.495 26.1982 52.4526 22.7589 52.2827 19.7441H60.0955C60.2653 23.3108 60.2653 26.8775 60.2653 30.3169Z" fill="url(#paint13_linear_198_10817)"/>
<path fill-rule="evenodd" clip-rule="evenodd" d="M176.523 0C106.675 0 48.3339 9.85089 34.7889 22.9712C32.4536 25.2217 31.7742 28.4487 32.9631 31.4634C38.5255 45.348 41.5402 71.0792 41.5402 81.1424C41.5402 66.2812 101.962 54.2648 176.48 54.2648C250.999 54.2648 311.421 66.2812 311.421 81.1424C311.421 71.0792 314.435 45.348 319.998 31.4634C321.187 28.4911 320.507 25.2217 318.172 22.9712C304.627 9.85089 246.328 0 176.438 0H176.523Z" fill="#1181C7"/>
<path fill-rule="evenodd" clip-rule="evenodd" d="M176.523 54.2648V0C246.371 0 304.712 9.85089 318.257 22.9712C320.593 25.2217 321.272 28.4487 320.083 31.4634C314.521 45.348 311.506 71.0792 311.506 81.1424C311.506 66.2812 251.084 54.2648 176.566 54.2648H176.523Z" fill="url(#paint14_radial_198_10817)"/>
<path style="mix-blend-mode:screen" fill-rule="evenodd" clip-rule="evenodd" d="M314.478 26.7931C309.637 40.2107 306.241 61.9082 306.368 73.7547C304.797 72.6507 302.886 71.5467 300.636 70.5277C301.06 59.403 303.905 36.5591 308.364 23.5237C309.17 21.1883 309.001 18.7681 307.897 16.6875C310.147 17.6641 312.143 18.6407 313.883 19.7022C315.837 20.9336 315.412 24.3729 314.563 26.7931H314.478Z" fill="url(#paint15_radial_198_10817)"/>
<path fill-rule="evenodd" clip-rule="evenodd" d="M176.523 54.2648V0C106.675 0 48.3339 9.85089 34.7889 22.9712C32.4536 25.2217 31.7742 28.4487 32.9631 31.4634C38.5255 45.348 41.5402 71.0792 41.5402 81.1424C41.5402 66.2812 101.962 54.2648 176.48 54.2648H176.523Z" fill="url(#paint16_radial_198_10817)"/>
<path style="mix-blend-mode:screen" fill-rule="evenodd" clip-rule="evenodd" d="M38.5684 26.7931C43.4089 40.2107 46.8057 61.9082 46.6784 73.7547C48.2494 72.6507 50.1601 71.5467 52.4105 70.5277C51.9859 59.403 49.1411 36.5591 44.6827 23.5237C43.8759 21.1883 44.0458 18.7681 45.1498 16.6875C42.8993 17.6641 40.9037 18.6407 39.1628 19.7022C37.2096 20.9336 37.6342 24.3729 38.4834 26.7931H38.5684Z" fill="url(#paint17_radial_198_10817)"/>
<path style="mix-blend-mode:screen" fill-rule="evenodd" clip-rule="evenodd" d="M176.523 0C106.675 0 48.3339 9.85089 34.7889 22.9712C32.4536 25.2217 31.7742 28.4487 32.9631 31.4634C38.5255 45.348 41.5402 71.0792 41.5402 81.1424C41.5402 66.2812 101.962 54.2648 176.48 54.2648C250.999 54.2648 311.421 66.2812 311.421 81.1424C311.421 71.0792 314.435 45.348 319.998 31.4634C321.187 28.4911 320.507 25.2217 318.172 22.9712C304.627 9.85089 246.328 0 176.438 0H176.523Z" fill="url(#paint18_radial_198_10817)"/>
<path style="mix-blend-mode:screen" fill-rule="evenodd" clip-rule="evenodd" d="M176.523 1.14644C246.795 1.14644 305.434 10.9973 319.021 24.1177C319.233 24.33 319.446 24.5423 319.615 24.7546C319.233 24.1177 318.766 23.5232 318.214 22.9712C304.669 9.85089 246.371 0 176.48 0C106.59 0 48.2914 9.85089 34.7464 22.9712C34.1944 23.5232 33.7274 24.1177 33.3452 24.7546C33.5151 24.5423 33.7274 24.33 33.9397 24.1177C47.5696 10.9973 106.208 1.14644 176.438 1.14644H176.523Z" fill="url(#paint19_radial_198_10817)"/>
<path fill-rule="evenodd" clip-rule="evenodd" d="M35.1288 32.0576C45.192 18.3003 104.679 7.72759 176.523 7.72759V2.58984C100.306 2.58984 37.9737 14.3939 33.0058 29.3401C32.8784 29.7222 32.751 30.4016 32.7935 30.9111C32.8359 31.1234 32.9209 31.2933 33.0058 31.5056C33.3455 32.3548 33.6852 33.2465 33.9824 34.1806C34.2372 33.4163 34.6618 32.6945 35.1288 32.1V32.0576Z" fill="url(#paint20_linear_198_10817)"/>
<path fill-rule="evenodd" clip-rule="evenodd" d="M43.4081 73.8822C54.2356 61.1865 109.732 51.5479 176.522 51.5479V46.4102C109.137 46.4102 53.2165 56.1761 42.4315 68.9993C42.2192 69.254 41.37 70.2731 41.0303 71.2497C41.2426 73.4576 41.37 75.4957 41.4549 77.2791C41.7521 75.9628 42.6438 74.8164 43.4081 73.9247V73.8822Z" fill="url(#paint21_linear_198_10817)"/>
<path fill-rule="evenodd" clip-rule="evenodd" d="M317.918 32.0576C307.854 18.3003 248.367 7.72759 176.523 7.72759V2.58984C252.74 2.58984 315.073 14.3939 320.041 29.3401C320.168 29.7222 320.295 30.4016 320.253 30.9111C320.211 31.1234 320.126 31.2933 320.041 31.5056C319.701 32.3548 319.361 33.2465 319.064 34.1806C318.809 33.4163 318.385 32.6945 317.918 32.1V32.0576Z" fill="url(#paint22_linear_198_10817)"/>
<path fill-rule="evenodd" clip-rule="evenodd" d="M309.638 73.8822C298.81 61.1865 243.314 51.5479 176.523 51.5479V46.4102C243.909 46.4102 299.829 56.1761 310.614 68.9993C310.827 69.254 311.676 70.2731 312.058 71.2497C311.846 73.4576 311.718 75.4957 311.633 77.2791C311.336 75.9628 310.445 74.8164 309.68 73.9247L309.638 73.8822Z" fill="url(#paint23_linear_198_10817)"/>
<path d="M62.0353 41.6082L64.8849 41.0743L65.4302 43.985L63.3246 45.7911L57.5642 46.8703L54.9475 45.9488L52.7511 34.2245L54.8568 32.4184L60.6172 31.3393L63.2338 32.2607L63.7791 35.1714L60.9294 35.7053L60.5862 33.8734L55.8029 34.7695L57.5951 44.3362L62.3785 43.4401L62.0353 41.6082Z" fill="white"/>
<path d="M83.9279 40.9431L81.7721 42.689L75.3699 43.702L72.7803 42.7069L70.9162 30.9252L73.072 29.1794L79.4742 28.1664L82.0638 29.1614L83.9279 40.9431ZM73.9513 31.5562L75.4724 41.1698L80.8928 40.3121L79.3717 30.6986L73.9513 31.5562Z" fill="white"/>
<path d="M93.2907 31.4572L94.4835 40.7622L91.6078 41.1308L89.7646 26.7523L92.4554 26.4074L99.8515 34.9171L99.8926 34.9118L98.6998 25.6069L101.575 25.2382L103.419 39.6167L100.728 39.9617L93.3317 31.4519L93.2907 31.4572Z" fill="white"/>
<path d="M115.714 33.1949L115.469 30.722L120.724 30.2018L121.342 36.4461L119.088 38.0634L113.256 38.6407L110.729 37.4965L109.554 25.6263L111.808 24.0089L117.64 23.4317L120.167 24.5758L120.459 27.5228L117.574 27.8083L117.39 25.9536L112.547 26.4329L113.506 36.1187L118.349 35.6394L118.084 32.9604L115.714 33.1949Z" fill="white"/>
<path d="M140.041 36.2931L136.86 36.5192L133.374 31.2861L131.577 31.4138L131.964 36.8672L129.072 37.0728L128.045 22.6131L135.874 22.0566L138.368 23.2703L138.812 29.5086L136.514 31.0629L140.041 36.2931ZM131.113 24.8863L131.401 28.935L135.842 28.6193L135.554 24.5706L131.113 24.8863Z" fill="white"/>
<path d="M153.2 21.1178L159 35.3764L156.144 35.5L154.913 32.4234L149.492 32.6581L148.531 35.8297L145.676 35.9533L150.221 21.2467L153.2 21.1178ZM151.847 24.8245L150.253 30.1377L153.915 29.9792L151.889 24.8227L151.847 24.8245Z" fill="white"/>
<path d="M170.565 23.1115L170.773 35.1208L167.874 35.171L167.666 23.1617L163.753 23.2294L163.71 20.7447L174.436 20.5591L174.479 23.0438L170.565 23.1115Z" fill="white"/>
<path d="M189.548 20.6021L192.447 20.6288L192.325 33.8405L189.91 35.2057L183.428 35.1459L181.039 33.7363L181.161 20.5247L184.06 20.5514L183.95 32.4585L189.438 32.5091L189.548 20.6021Z" fill="white"/>
<path d="M199.873 35.3153L200.374 20.8278L203.272 20.9282L202.856 32.9321L207.803 33.1034L207.717 35.5869L199.873 35.3153Z" fill="white"/>
<path d="M221.737 21.8061L226.044 36.5841L223.192 36.4144L222.282 33.2277L216.866 32.9055L215.584 35.9618L212.732 35.7921L218.761 21.629L221.737 21.8061ZM220.012 25.3546L217.881 30.4765L221.54 30.6942L220.053 25.3571L220.012 25.3546Z" fill="white"/>
<path d="M238.807 25.5689L237.783 37.5363L234.894 37.289L235.918 25.3217L232.018 24.9879L232.23 22.5119L242.918 23.4267L242.707 25.9027L238.807 25.5689Z" fill="white"/>
<path d="M247.999 38.5122L249.527 24.0968L252.41 24.4023L250.882 38.8177L247.999 38.5122Z" fill="white"/>
<path d="M269.838 39.8261L267.278 40.8954L260.849 40.0674L258.644 38.3845L260.167 26.5539L262.727 25.4846L269.156 26.3125L271.361 27.9955L269.838 39.8261ZM262.903 28.0128L261.659 37.6662L267.102 38.3672L268.346 28.7138L262.903 28.0128Z" fill="white"/>
<path d="M281.49 33.3547L280.019 42.6197L277.155 42.1649L279.429 27.8482L282.108 28.2737L286.814 38.5196L286.855 38.5261L288.326 29.2611L291.189 29.7159L288.916 44.0326L286.236 43.6071L281.531 33.3612L281.49 33.3547Z" fill="white"/>
<path d="M297.851 38.1316L298.933 32.3719L301.551 31.4519L306.7 32.4197L308.804 34.227L308.296 36.9339L305.446 36.3984L305.752 34.7702L301.58 33.986L300.941 37.3849L305.602 38.2608L307.707 40.0681L306.601 45.95L303.984 46.8699L298.631 45.864L296.527 44.0567L297.036 41.3498L299.885 41.8853L299.579 43.5135L303.955 44.3358L304.616 40.8149L299.956 39.9389L297.851 38.1316Z" fill="white"/>
<defs>
<filter id="filter0_i_198_10817" x="78.102" y="168.523" width="193.286" height="40.4282" filterUnits="userSpaceOnUse" color-interpolation-filters="sRGB">
<feFlood flood-opacity="0" result="BackgroundImageFix"/>
<feBlend mode="normal" in="SourceGraphic" in2="BackgroundImageFix" result="shape"/>
<feColorMatrix in="SourceAlpha" type="matrix" values="0 0 0 0 0 0 0 0 0 0 0 0 0 0 0 0 0 0 127 0" result="hardAlpha"/>
<feOffset dx="-1.28571" dy="-1.71429"/>
<feGaussianBlur stdDeviation="1.5"/>
<feComposite in2="hardAlpha" operator="arithmetic" k2="-1" k3="1"/>
<feColorMatrix type="matrix" values="0 0 0 0 1 0 0 0 0 1 0 0 0 0 1 0 0 0 0.15 0"/>
<feBlend mode="normal" in2="shape" result="effect1_innerShadow_198_10817"/>
</filter>
<filter id="filter1_d_198_10817" x="150.131" y="183.233" width="51.8068" height="12.8825" filterUnits="userSpaceOnUse" color-interpolation-filters="sRGB">
<feFlood flood-opacity="0" result="BackgroundImageFix"/>
<feColorMatrix in="SourceAlpha" type="matrix" values="0 0 0 0 0 0 0 0 0 0 0 0 0 0 0 0 0 0 127 0" result="hardAlpha"/>
<feOffset dx="0.428571" dy="0.428571"/>
<feGaussianBlur stdDeviation="0.214286"/>
<feColorMatrix type="matrix" values="0 0 0 0 0 0 0 0 0 0 0 0 0 0 0 0 0 0 0.25 0"/>
<feBlend mode="normal" in2="BackgroundImageFix" result="effect1_dropShadow_198_10817"/>
<feBlend mode="normal" in="SourceGraphic" in2="effect1_dropShadow_198_10817" result="shape"/>
</filter>
<linearGradient id="paint0_linear_198_10817" x1="5.39251" y1="111.722" x2="75.113" y2="93.0397" gradientUnits="userSpaceOnUse">
<stop stop-color="#C4353C"/>
<stop offset="0.09" stop-color="#B22D33"/>
<stop offset="0.33" stop-color="#891D1F"/>
<stop offset="0.51" stop-color="#6F1213"/>
<stop offset="0.63" stop-color="#660F0F"/>
</linearGradient>
<linearGradient id="paint1_linear_198_10817" x1="1.69871" y1="80.3015" x2="67.6402" y2="80.3015" gradientUnits="userSpaceOnUse">
<stop stop-color="#FFC261"/>
<stop offset="0.75" stop-color="#6B4200"/>
</linearGradient>
<linearGradient id="paint2_linear_198_10817" x1="14.1392" y1="123.187" x2="75.7497" y2="123.187" gradientUnits="userSpaceOnUse">
<stop stop-color="#FFC261"/>
<stop offset="0.75" stop-color="#6B4200"/>
</linearGradient>
<linearGradient id="paint3_linear_198_10817" x1="39.998" y1="89.6851" x2="76.217" y2="89.6851" gradientUnits="userSpaceOnUse">
<stop stop-color="#420000"/>
<stop offset="0.47" stop-color="#8A1F1F"/>
</linearGradient>
<linearGradient id="paint4_linear_198_10817" x1="276.648" y1="92.1403" x2="346.368" y2="110.823" gradientUnits="userSpaceOnUse">
<stop offset="0.37" stop-color="#660F0F"/>
<stop offset="0.49" stop-color="#6F1213"/>
<stop offset="0.67" stop-color="#891D1F"/>
<stop offset="0.91" stop-color="#B22D33"/>
<stop offset="1" stop-color="#C4353C"/>
</linearGradient>
<linearGradient id="paint5_linear_198_10817" x1="284.121" y1="79.4021" x2="350.062" y2="79.4021" gradientUnits="userSpaceOnUse">
<stop offset="0.25" stop-color="#6B4200"/>
<stop offset="1" stop-color="#FFC261"/>
</linearGradient>
<linearGradient id="paint6_linear_198_10817" x1="276.011" y1="122.287" x2="337.621" y2="122.287" gradientUnits="userSpaceOnUse">
<stop offset="0.25" stop-color="#6B4200"/>
<stop offset="1" stop-color="#FFC261"/>
</linearGradient>
<linearGradient id="paint7_linear_198_10817" x1="275.543" y1="88.7857" x2="311.762" y2="88.7857" gradientUnits="userSpaceOnUse">
<stop offset="0.53" stop-color="#8A1F1F"/>
<stop offset="1" stop-color="#420000"/>
</linearGradient>
<radialGradient id="paint8_radial_198_10817" cx="0" cy="0" r="1" gradientUnits="userSpaceOnUse" gradientTransform="translate(140.765 177.853) rotate(16.6245) scale(85.406 50.4808)">
<stop stop-color="white"/>
<stop offset="0.697917" stop-color="white" stop-opacity="0"/>
<stop offset="1" stop-color="white" stop-opacity="0"/>
</radialGradient>
<radialGradient id="paint9_radial_198_10817" cx="0" cy="0" r="1" gradientUnits="userSpaceOnUse" gradientTransform="translate(165.83 183.832) rotate(27.9612) scale(25.5757 22.8372)">
<stop stop-color="white"/>
<stop offset="0.697917" stop-color="white" stop-opacity="0"/>
<stop offset="1" stop-color="white" stop-opacity="0"/>
</radialGradient>
<linearGradient id="paint10_linear_198_10817" x1="289.002" y1="80.0809" x2="289.002" y2="19.8716" gradientUnits="userSpaceOnUse">
<stop stop-color="white"/>
<stop offset="0.23" stop-color="#CBBBA0"/>
</linearGradient>
<linearGradient id="paint11_linear_198_10817" x1="296.772" y1="90.3564" x2="296.772" y2="-73.9241" gradientUnits="userSpaceOnUse">
<stop stop-color="white"/>
<stop offset="0.23" stop-color="#CBBBA0"/>
</linearGradient>
<linearGradient id="paint12_linear_198_10817" x1="64.044" y1="79.954" x2="64.044" y2="19.7446" gradientUnits="userSpaceOnUse">
<stop stop-color="white"/>
<stop offset="0.23" stop-color="#CBBBA0"/>
</linearGradient>
<linearGradient id="paint13_linear_198_10817" x1="56.274" y1="90.1865" x2="56.274" y2="19.7441" gradientUnits="userSpaceOnUse">
<stop stop-color="white"/>
<stop offset="0.23" stop-color="#CBBBA0"/>
</linearGradient>
<radialGradient id="paint14_radial_198_10817" cx="0" cy="0" r="1" gradientUnits="userSpaceOnUse" gradientTransform="translate(379.019 63.8609) rotate(-180) scale(201.519 201.519)">
<stop offset="0.33" stop-color="#701D24"/>
<stop offset="0.37" stop-color="#CC4545"/>
<stop offset="0.38" stop-color="#B22D2D"/>
<stop offset="0.4" stop-color="#9C1919"/>
<stop offset="0.41" stop-color="#8C0B0B"/>
<stop offset="0.43" stop-color="#820202"/>
<stop offset="0.46" stop-color="#800000"/>
<stop offset="0.66" stop-color="#980C0C"/>
<stop offset="0.85" stop-color="#A71414"/>
<stop offset="1" stop-color="#AD1717"/>
</radialGradient>
<radialGradient id="paint15_radial_198_10817" cx="0" cy="0" r="1" gradientUnits="userSpaceOnUse" gradientTransform="translate(318.427 19.4899) rotate(-180) scale(57.5768 57.5767)">
<stop stop-color="#ED6161"/>
<stop offset="1"/>
</radialGradient>
<radialGradient id="paint16_radial_198_10817" cx="0" cy="0" r="1" gradientUnits="userSpaceOnUse" gradientTransform="translate(-25.9723 -71.8011) scale(201.519 201.519)">
<stop offset="0.33" stop-color="#701D24"/>
<stop offset="0.37" stop-color="#CC4545"/>
<stop offset="0.38" stop-color="#B22D2D"/>
<stop offset="0.4" stop-color="#9C1919"/>
<stop offset="0.41" stop-color="#8C0B0B"/>
<stop offset="0.43" stop-color="#820202"/>
<stop offset="0.46" stop-color="#800000"/>
<stop offset="0.66" stop-color="#980C0C"/>
<stop offset="0.85" stop-color="#A71414"/>
<stop offset="1" stop-color="#AD1717"/>
</radialGradient>
<radialGradient id="paint17_radial_198_10817" cx="0" cy="0" r="1" gradientUnits="userSpaceOnUse" gradientTransform="translate(34.577 -71.8006) scale(57.5767 57.5767)">
<stop stop-color="#ED6161"/>
<stop offset="1"/>
</radialGradient>
<radialGradient id="paint18_radial_198_10817" cx="0" cy="0" r="1" gradientUnits="userSpaceOnUse" gradientTransform="translate(176.99 170.565) scale(199.905 199.905)">
<stop stop-color="#FF9999"/>
<stop offset="0.25" stop-color="#A86565"/>
<stop offset="0.47" stop-color="#603939"/>
<stop offset="0.66" stop-color="#2C1A1A"/>
<stop offset="0.8" stop-color="#0C0707"/>
<stop offset="0.87"/>
</radialGradient>
<radialGradient id="paint19_radial_198_10817" cx="0" cy="0" r="1" gradientUnits="userSpaceOnUse" gradientTransform="translate(176.523 12.3985) scale(255.147 255.146)">
<stop stop-color="#A62626"/>
<stop offset="1"/>
</radialGradient>
<linearGradient id="paint20_linear_198_10817" x1="32.7935" y1="18.3428" x2="176.523" y2="18.3428" gradientUnits="userSpaceOnUse">
<stop stop-color="#D69705"/>
<stop offset="0.07" stop-color="#FFDD6E"/>
<stop offset="0.52" stop-color="#EBA605"/>
<stop offset="1" stop-color="#FFD570"/>
</linearGradient>
<linearGradient id="paint21_linear_198_10817" x1="41.0303" y1="61.7809" x2="5.74541" y2="61.7809" gradientUnits="userSpaceOnUse">
<stop stop-color="#D69705"/>
<stop offset="0.07" stop-color="#FFDD6E"/>
<stop offset="0.52" stop-color="#EBA605"/>
<stop offset="1" stop-color="#FFD570"/>
</linearGradient>
<linearGradient id="paint22_linear_198_10817" x1="176.523" y1="18.3428" x2="320.253" y2="18.3428" gradientUnits="userSpaceOnUse">
<stop stop-color="#FFD570"/>
<stop offset="0.48" stop-color="#EBA605"/>
<stop offset="0.93" stop-color="#FFDD6E"/>
<stop offset="1" stop-color="#D69705"/>
</linearGradient>
<linearGradient id="paint23_linear_198_10817" x1="1.50034" y1="61.7809" x2="312.016" y2="61.7809" gradientUnits="userSpaceOnUse">
<stop stop-color="#FFD570"/>
<stop offset="0.48" stop-color="#EBA605"/>
<stop offset="0.93" stop-color="#FFDD6E"/>
<stop offset="1" stop-color="#D69705"/>
</linearGradient>
</defs>
</svg>
