<svg width="143" height="35" viewBox="0 0 143 35" fill="none" xmlns="http://www.w3.org/2000/svg">
<path d="M0.613314 34V3.59971H23.761V9.85348H8.0831V15.8467H19.0272V21.9267H8.0831V34H0.613314ZM51.448 34.4343C49.2476 34.4343 47.2498 33.9276 45.4548 32.9143C43.6887 31.872 42.27 30.4823 41.1987 28.7451C40.1564 26.979 39.6353 25.0102 39.6353 22.8387C39.6353 20.6383 40.1275 18.6696 41.1119 16.9324C42.0963 15.1952 43.4426 13.82 45.1508 12.8067C46.859 11.7644 48.7843 11.2432 50.9268 11.2432C53.0983 11.2432 55.0091 11.7499 56.6594 12.7632C58.3097 13.7766 59.5981 15.1808 60.5246 16.9758C61.4801 18.7419 61.9578 20.7831 61.9578 23.0993V24.6193H46.5405C46.7721 25.459 47.134 26.1973 47.6262 26.8342C48.1184 27.4712 48.7264 27.9634 49.4502 28.3108C50.174 28.6582 50.9558 28.832 51.7954 28.832C52.7219 28.832 53.5615 28.6727 54.3143 28.3542C55.096 28.0358 55.733 27.5725 56.2252 26.9645L60.8721 30.8297C59.4244 32.1036 57.9623 33.0301 56.4857 33.6091C55.0091 34.1592 53.3299 34.4343 51.448 34.4343ZM46.5405 20.6239H55.4434C55.2408 19.8132 54.9223 19.1183 54.488 18.5393C54.0537 17.9602 53.5326 17.5115 52.9246 17.193C52.3165 16.8745 51.6362 16.7153 50.8834 16.7153C50.1596 16.7153 49.4937 16.8745 48.8857 17.193C48.3066 17.4825 47.8144 17.9168 47.4091 18.4958C47.0327 19.0749 46.7432 19.7842 46.5405 20.6239ZM70.7864 34L64.0115 3.59971H71.6984L75.3899 22.4479L80.6882 3.59971H87.6803L92.9786 22.4479L96.6701 3.59971H104.096L97.3215 34H89.4175L84.0757 14.4135L78.6905 34H70.7864ZM120.664 34V11.5906H127.699V15.2387C128.568 13.9358 129.596 12.9514 130.783 12.2855C131.999 11.5906 133.331 11.2432 134.778 11.2432C136.226 11.2432 137.5 11.5762 138.6 12.2421C139.729 12.879 140.612 13.7766 141.249 14.9347C141.886 16.0638 142.205 17.3812 142.205 18.8867V34H135.169V20.9279C135.169 19.654 134.822 18.6406 134.127 17.8878C133.461 17.1351 132.563 16.7587 131.434 16.7587C130.682 16.7587 129.987 16.9179 129.35 17.2364C128.742 17.5259 128.192 17.9892 127.699 18.6261V34H120.664Z" fill="black"/>
<path d="M28.1229 34V11.5906H35.1584V34H28.1229ZM31.6406 8.15975C30.5694 8.15975 29.6429 7.76889 28.8612 6.98717C28.0794 6.20544 27.6886 5.27896 27.6886 4.20771C27.6886 3.10751 28.0794 2.18103 28.8612 1.42826C29.6429 0.646535 30.5694 0.255675 31.6406 0.255675C32.7408 0.255675 33.6673 0.646535 34.4201 1.42826C35.2018 2.18103 35.5927 3.10751 35.5927 4.20771C35.5927 5.27896 35.2018 6.20544 34.4201 6.98717C33.6673 7.76889 32.7408 8.15975 31.6406 8.15975Z" fill="#FF0000"/>
<path d="M108.153 34V11.5906H115.188V34H108.153ZM111.67 8.15975C110.599 8.15975 109.673 7.76889 108.891 6.98717C108.109 6.20544 107.718 5.27896 107.718 4.20771C107.718 3.10751 108.109 2.18103 108.891 1.42826C109.673 0.646535 110.599 0.255675 111.67 0.255675C112.771 0.255675 113.697 0.646535 114.45 1.42826C115.232 2.18103 115.622 3.10751 115.622 4.20771C115.622 5.27896 115.232 6.20544 114.45 6.98717C113.697 7.76889 112.771 8.15975 111.67 8.15975Z" fill="#3C96FF"/>
</svg>
