<svg width="182" height="72" viewBox="0 0 182 72" fill="none" xmlns="http://www.w3.org/2000/svg">
<circle cx="36" cy="36" r="36" fill="#CE1948"/>
<path d="M36.1847 47.2983C34.5085 47.2983 33.0206 47.0036 31.7209 46.4141C30.4283 45.8175 29.4091 44.9972 28.6634 43.9531C27.9247 42.9091 27.5483 41.7088 27.5341 40.3523H33.2869C33.3082 41.1051 33.5994 41.7053 34.1605 42.1527C34.7287 42.6001 35.4034 42.8239 36.1847 42.8239C36.7884 42.8239 37.321 42.696 37.7827 42.4403C38.2443 42.1776 38.6065 41.8082 38.8693 41.3324C39.1321 40.8565 39.2599 40.3026 39.2528 39.6705C39.2599 39.0312 39.1321 38.4773 38.8693 38.0085C38.6065 37.5327 38.2443 37.1669 37.7827 36.9112C37.321 36.6484 36.7884 36.517 36.1847 36.517C35.5597 36.517 34.9808 36.6697 34.4482 36.9751C33.9226 37.2734 33.5355 37.6889 33.2869 38.2216L28.0881 37.1989L28.9403 25.1818H43.5994V29.9119H33.7983L33.3722 34.7273H33.5C33.8409 34.0668 34.4304 33.5199 35.2685 33.0866C36.1065 32.6463 37.0795 32.4261 38.1875 32.4261C39.4872 32.4261 40.6449 32.728 41.6605 33.3317C42.6832 33.9354 43.4893 34.7699 44.0788 35.8352C44.6754 36.8935 44.9702 38.1151 44.9631 39.5C44.9702 41.0199 44.608 42.3693 43.8764 43.5483C43.152 44.7202 42.1328 45.6399 40.8189 46.3075C39.505 46.968 37.9602 47.2983 36.1847 47.2983Z" fill="white"/>
<circle cx="91" cy="36" r="36" fill="#013D88"/>
<path d="M99 20H86.5L79 37H88.5L84.5 52L103 30H95L99 20Z" fill="white"/>
<circle cx="146" cy="36" r="36" fill="#007A61"/>
<path d="M137.449 47V42.7386L145.588 36.0057C146.128 35.5582 146.589 35.1392 146.973 34.7486C147.364 34.3509 147.662 33.9425 147.868 33.5234C148.081 33.1044 148.188 32.6392 148.188 32.1278C148.188 31.5668 148.067 31.0874 147.825 30.6896C147.591 30.2919 147.264 29.9865 146.845 29.7734C146.426 29.5533 145.943 29.4432 145.396 29.4432C144.849 29.4432 144.366 29.5533 143.947 29.7734C143.536 29.9936 143.216 30.3168 142.989 30.7429C142.761 31.169 142.648 31.6875 142.648 32.2983H137.023C137.023 30.7642 137.367 29.4432 138.056 28.3352C138.745 27.2273 139.718 26.375 140.975 25.7784C142.232 25.1818 143.706 24.8835 145.396 24.8835C147.143 24.8835 148.656 25.1641 149.935 25.7251C151.22 26.2791 152.211 27.0604 152.907 28.0689C153.61 29.0774 153.962 30.2599 153.962 31.6165C153.962 32.4545 153.788 33.2891 153.44 34.12C153.092 34.9439 152.467 35.8565 151.565 36.858C150.663 37.8594 149.381 39.0526 147.719 40.4375L145.673 42.142V42.2699H154.196V47H137.449Z" fill="white"/>
</svg>
