<svg width="132" height="67" viewBox="0 0 132 67" fill="none" xmlns="http://www.w3.org/2000/svg">
<path d="M4.5 65.5L18 1H121V39.5L4.5 65.5Z" stroke="black"/>
<path d="M129 6.5L0 10L15 56L132 32L129 6.5Z" fill="#8D51FF"/>
<path d="M24.7173 41.1547L22.2739 26.866L25.1316 26.3773L27.1562 38.2165L32.0348 37.3823L32.4537 39.8317L24.7173 41.1547ZM36.5148 32.8344L37.1432 36.5087L42.8382 35.5348L43.2571 37.9843L34.7043 39.4469L32.2608 25.1581L40.8137 23.6956L41.2325 26.145L35.5375 27.1189L36.096 30.3849L40.5663 29.6205L40.9852 32.07L36.5148 32.8344ZM55.3847 21.2038L52.725 36.3652L49.5815 36.9028L42.0349 23.4867L44.9335 22.991L50.5563 33.1435L50.5972 33.1365L52.4861 21.6995L55.3847 21.2038ZM61.6716 28.5325L62.2999 32.2067L67.995 31.2328L68.4139 33.6823L59.8611 35.1449L57.4176 20.8562L65.9704 19.3936L66.3893 21.8431L60.6942 22.817L61.2528 26.083L65.7231 25.3185L66.142 27.768L61.6716 28.5325ZM71.064 33.2291L68.6206 18.9404L71.4783 18.4517L73.5029 30.2909L78.3815 29.4567L78.8004 31.9062L71.064 33.2291ZM90.7013 29.871L87.7007 30.3842L91.174 17.6468L91.1671 17.6059L86.5742 18.3913L86.8884 20.2285L84.0307 20.7172L83.2976 16.4305L94.0142 14.5979L94.3283 16.4351L90.7013 29.871Z" fill="white"/>
</svg>
