<svg width="132" height="67" viewBox="0 0 132 67" fill="none" xmlns="http://www.w3.org/2000/svg">
<path d="M4.5 65.5L18 1H121V39.5L4.5 65.5Z" stroke="black"/>
<path d="M129 6.5L0 10L15 56L132 32L129 6.5Z" fill="#8D51FF"/>
<path d="M24.9012 41.1233L22.4577 26.8345L25.3155 26.3458L27.3401 38.1851L32.2186 37.3508L32.6375 39.8003L24.9012 41.1233ZM36.6987 32.803L37.327 36.4772L43.0221 35.5033L43.441 37.9528L34.8882 39.4154L32.4447 25.1267L40.9975 23.6641L41.4164 26.1136L35.7213 27.0875L36.2798 30.3535L40.7502 29.589L41.169 32.0385L36.6987 32.803ZM55.5685 21.1724L52.9089 36.3338L49.7654 36.8713L42.2188 23.4553L45.1173 22.9596L50.7402 33.112L50.781 33.105L52.67 21.668L55.5685 21.1724ZM61.8555 28.501L62.4838 32.1753L68.1789 31.2014L68.5978 33.6509L60.045 35.1135L57.6015 20.8247L66.1543 19.3621L66.5732 21.8116L60.8781 22.7855L61.4366 26.0515L65.907 25.2871L66.3258 27.7366L61.8555 28.501ZM71.2479 33.1977L68.8044 18.909L71.6622 18.4203L73.6868 30.2595L78.5653 29.4252L78.9842 31.8747L71.2479 33.1977ZM87.7787 18.1854L88.2465 20.9206L92.5127 20.1911L95.1144 21.1538L96.221 27.6246L94.087 29.3971L88.9226 30.2803L86.3209 29.3175L85.8217 26.3985L88.6795 25.9099L88.9936 27.747L93.1782 27.0314L92.4417 22.7244L85.8076 23.8588L84.5021 16.2246L93.7898 14.6363L94.2087 17.0858L87.7787 18.1854Z" fill="white"/>
</svg>
