<svg width="132" height="67" viewBox="0 0 132 67" fill="none" xmlns="http://www.w3.org/2000/svg">
<path d="M4.5 65.5L18 1H121V39.5L4.5 65.5Z" stroke="black"/>
<path d="M129 6.5L0 10L15 56L132 32L129 6.5Z" fill="#8D51FF"/>
<path d="M24.5673 41.1803L22.1239 26.8915L24.9816 26.4028L27.0062 38.2421L31.8848 37.4078L32.3037 39.8573L24.5673 41.1803ZM36.3648 32.86L36.9932 36.5343L42.6882 35.5604L43.1071 38.0099L34.5543 39.4724L32.1108 25.1837L40.6637 23.7211L41.0825 26.1706L35.3875 27.1445L35.946 30.4105L40.4163 29.6461L40.8352 32.0956L36.3648 32.86ZM55.2347 21.2294L52.575 36.3908L49.4315 36.9284L41.8849 23.5123L44.7835 23.0166L50.4063 33.169L50.4472 33.1621L52.3361 21.7251L55.2347 21.2294ZM61.5216 28.558L62.15 32.2323L67.845 31.2584L68.2639 33.7079L59.7111 35.1705L57.2676 20.8817L65.8205 19.4191L66.2393 21.8686L60.5443 22.8425L61.1028 26.1085L65.5731 25.3441L65.992 27.7936L61.5216 28.558ZM70.914 33.2547L68.4706 18.966L71.3283 18.4773L73.3529 30.3165L78.2315 29.4822L78.6504 31.9317L70.914 33.2547ZM88.6423 27.7019L95.3784 26.55L95.7973 28.9995L86.2035 30.6401L85.055 23.9244L87.189 22.1519L91.5573 21.4049L90.915 17.649L87.0366 18.3122L87.3508 20.1493L84.493 20.638L83.9939 17.719L86.1278 15.9465L90.986 15.1157L93.5877 16.0784L94.6 21.998L92.4661 23.7706L88.0978 24.5176L88.6423 27.7019Z" fill="white"/>
</svg>
