<svg width="132" height="67" viewBox="0 0 132 67" fill="none" xmlns="http://www.w3.org/2000/svg">
<path d="M4.5 65.5L18 1H121V39.5L4.5 65.5Z" stroke="black"/>
<path d="M129 6.5L0 10L15 56L132 32L129 6.5Z" fill="#8D51FF"/>
<path d="M24.6077 41.1735L22.1642 26.8847L25.022 26.396L27.0466 38.2353L31.9251 37.401L32.344 39.8505L24.6077 41.1735ZM36.4052 32.8532L37.0335 36.5274L42.7286 35.5535L43.1475 38.003L34.5947 39.4656L32.1512 25.1769L40.704 23.7143L41.1229 26.1638L35.4278 27.1377L35.9863 30.4037L40.4567 29.6392L40.8755 32.0887L36.4052 32.8532ZM55.275 21.2226L52.6154 36.384L49.4718 36.9215L41.9253 23.5055L44.8238 23.0098L50.4467 33.1622L50.4875 33.1552L52.3765 21.7182L55.275 21.2226ZM61.562 28.5512L62.1903 32.2255L67.8854 31.2516L68.3043 33.7011L59.7514 35.1637L57.308 20.8749L65.8608 19.4123L66.2797 21.8618L60.5846 22.8357L61.1431 26.1017L65.6134 25.3373L66.0323 27.7868L61.562 28.5512ZM70.9544 33.2479L68.5109 18.9591L71.3687 18.4705L73.3933 30.3097L78.2718 29.4754L78.6907 31.9249L70.9544 33.2479ZM94.276 26.0033L94.8171 29.1672L92.0001 29.6489L91.4591 26.485L84.6821 27.6439L84.3331 25.6026L89.8629 15.3078L92.3736 14.8785L93.8816 23.6967L95.637 23.3965L96.0315 25.7031L94.276 26.0033ZM87.4516 24.7962L91.0646 24.1784L90.2758 19.5652L90.2349 19.5721L87.4446 24.7554L87.4516 24.7962Z" fill="white"/>
</svg>
