<svg width="132" height="67" viewBox="0 0 132 67" fill="none" xmlns="http://www.w3.org/2000/svg">
<path d="M4.5 65.5L18 1H121V39.5L4.5 65.5Z" stroke="black"/>
<path d="M129 6.5L0 10L15 56L132 32L129 6.5Z" fill="#8D51FF"/>
<path d="M25.6683 40.9907L23.2249 26.7019L26.0826 26.2132L28.1072 38.0525L32.9858 37.2182L33.4046 39.6677L25.6683 40.9907ZM37.4658 32.6704L38.0942 36.3446L43.7892 35.3707L44.2081 37.8202L35.6553 39.2828L33.2118 24.9941L41.7647 23.5315L42.1835 25.981L36.4884 26.9549L37.047 30.2209L41.5173 29.4564L41.9362 31.9059L37.4658 32.6704ZM56.3357 21.0398L53.676 36.2012L50.5325 36.7387L42.9859 23.3227L45.8845 22.827L51.5073 32.9794L51.5482 32.9724L53.4371 21.5354L56.3357 21.0398ZM62.6226 28.3684L63.2509 32.0427L68.946 31.0688L69.3649 33.5183L60.8121 34.9809L58.3686 20.6921L66.9214 19.2295L67.3403 21.679L61.6452 22.6529L62.2037 25.9189L66.6741 25.1545L67.093 27.604L62.6226 28.3684ZM72.015 33.0651L69.5716 18.7764L72.4293 18.2877L74.4539 30.1269L79.3325 29.2926L79.7514 31.7421L72.015 33.0651ZM85.6778 20.9383L85.2205 18.2643L88.5352 15.5334L90.9847 15.1146L93.0093 26.9538L96.2753 26.3953L96.6942 28.8448L87.3044 30.4505L86.8856 28.001L90.1516 27.4425L88.6227 18.5018L85.6778 20.9383Z" fill="white"/>
</svg>
