<svg width="132" height="67" viewBox="0 0 132 67" fill="none" xmlns="http://www.w3.org/2000/svg">
<path d="M4.5 65.5L18 1H121V39.5L4.5 65.5Z" stroke="black"/>
<path d="M129 6.5L0 10L15 56L132 32L129 6.5Z" fill="#8D51FF"/>
<path d="M24.518 41.1888L22.0745 26.9001L24.9323 26.4114L26.9569 38.2506L31.8354 37.4163L32.2543 39.8658L24.518 41.1888ZM36.3155 32.8685L36.9438 36.5428L42.6389 35.5689L43.0578 38.0184L34.505 39.481L32.0615 25.1922L40.6143 23.7296L41.0332 26.1791L35.3381 27.153L35.8966 30.419L40.367 29.6546L40.7858 32.1041L36.3155 32.8685ZM55.1853 21.2379L52.5257 36.3993L49.3821 36.9369L41.8356 23.5208L44.7341 23.0251L50.357 33.1776L50.3978 33.1706L52.2868 21.7336L55.1853 21.2379ZM61.4723 28.5666L62.1006 32.2408L67.7957 31.2669L68.2146 33.7164L59.6617 35.179L57.2183 20.8903L65.7711 19.4277L66.19 21.8772L60.4949 22.8511L61.0534 26.1171L65.5237 25.3526L65.9426 27.8021L61.4723 28.5666ZM70.8647 33.2632L68.4212 18.9745L71.279 18.4858L73.3036 30.325L78.1821 29.4908L78.601 31.9403L70.8647 33.2632ZM86.9698 18.2186L87.6714 22.3216L88.9776 21.2368L91.9987 20.7202L94.6004 21.6829L95.6336 27.725L93.4997 29.4976L88.5394 30.3458L85.9377 29.3831L83.9271 17.6255L86.061 15.8529L91.0213 15.0047L93.623 15.9674L94.1222 18.8864L91.2644 19.3751L90.9503 17.538L86.9698 18.2186ZM87.9472 23.9341L88.6104 27.8125L92.5909 27.1318L91.9276 23.2535L87.9472 23.9341Z" fill="white"/>
</svg>
