<svg width="140" height="75" viewBox="0 0 140 75" fill="none" xmlns="http://www.w3.org/2000/svg">
<g filter="url(#filter0_d_3017_1086)">
<path d="M8.5 65.5L22 1H125V39.5L8.5 65.5Z" stroke="black"/>
<path d="M133 6.5L4 10L19 56L136 32L133 6.5Z" fill="#8D51FF"/>
<path d="M28.8414 41.1335L26.3979 26.8448L29.2557 26.3561L31.2803 38.1953L36.1588 37.361L36.5777 39.8105L28.8414 41.1335ZM40.6389 32.8132L41.2672 36.4875L46.9623 35.5136L47.3812 37.9631L38.8284 39.4257L36.3849 25.1369L44.9377 23.6743L45.3566 26.1238L39.6615 27.0977L40.22 30.3637L44.6904 29.5993L45.1092 32.0488L40.6389 32.8132ZM59.5087 21.1826L56.8491 36.344L53.7055 36.8816L46.159 23.4655L49.0575 22.9698L54.6804 33.1223L54.7212 33.1153L56.6102 21.6783L59.5087 21.1826ZM65.7957 28.5113L66.424 32.1855L72.1191 31.2116L72.538 33.6611L63.9851 35.1237L61.5417 20.835L70.0945 19.3724L70.5134 21.8219L64.8183 22.7958L65.3768 26.0618L69.8472 25.2973L70.266 27.7468L65.7957 28.5113ZM75.1881 33.2079L72.7446 18.9192L75.6024 18.4305L77.627 30.2697L82.5055 29.4355L82.9244 31.885L75.1881 33.2079ZM98.1497 29.3864L92.8628 30.2905L90.2611 29.3278L89.7619 26.4088L92.6197 25.9201L92.9338 27.7572L97.2409 27.0207L96.5881 23.2035L93.0159 23.8144L92.5971 21.3649L96.1692 20.754L95.6003 17.4268L91.2932 18.1633L91.6074 20.0005L88.7496 20.4892L88.2505 17.5702L90.3845 15.7976L95.6713 14.8935L98.273 15.8563L99.0584 20.4491L97.4571 21.7734L97.464 21.8142L99.4145 22.5311L100.284 27.6138L98.1497 29.3864Z" fill="white"/>
</g>
<defs>
<filter id="filter0_d_3017_1086" x="0" y="0.5" width="140" height="73.6562" filterUnits="userSpaceOnUse" color-interpolation-filters="sRGB">
<feFlood flood-opacity="0" result="BackgroundImageFix"/>
<feColorMatrix in="SourceAlpha" type="matrix" values="0 0 0 0 0 0 0 0 0 0 0 0 0 0 0 0 0 0 127 0" result="hardAlpha"/>
<feOffset dy="4"/>
<feGaussianBlur stdDeviation="2"/>
<feComposite in2="hardAlpha" operator="out"/>
<feColorMatrix type="matrix" values="0 0 0 0 0 0 0 0 0 0 0 0 0 0 0 0 0 0 0.25 0"/>
<feBlend mode="normal" in2="BackgroundImageFix" result="effect1_dropShadow_3017_1086"/>
<feBlend mode="normal" in="SourceGraphic" in2="effect1_dropShadow_3017_1086" result="shape"/>
</filter>
</defs>
</svg>
