<svg width="229" height="164" viewBox="0 0 229 164" fill="none" xmlns="http://www.w3.org/2000/svg">
<g filter="url(#filter0_d_182_7450)">
<g filter="url(#filter1_d_182_7450)">
<g clip-path="url(#clip0_182_7450)">
<path d="M59.1009 58.5874L173.968 59.1145C177.714 59.1145 181.346 60.4121 182.084 61.9935L216.135 137.698C217.894 141.631 214.376 144.875 208.247 144.875L20.4524 144.834C14.2096 144.834 10.8045 141.509 12.7341 137.576L50.7583 61.4258C51.5528 59.8039 55.2985 58.5874 59.1009 58.5874Z" fill="#FE9138"/>
<path d="M59.1585 59.2769L173.912 59.804C176.92 59.804 179.814 60.8583 180.382 62.1153L213.128 137.009C214.49 140.09 211.653 142.685 206.829 142.685L22.0423 142.645C17.1049 142.645 14.324 140.05 15.8563 136.887L52.4617 61.5881C53.086 60.2906 56.0938 59.2769 59.1585 59.2769Z" fill="#BE5D30"/>
<path d="M59.7245 60.3716L173.003 60.8582C175.386 60.8582 177.656 61.6691 178.053 62.6829L208.7 135.954C209.721 138.347 207.508 140.333 203.706 140.333L24.7649 140.252C20.9625 140.252 18.7491 138.266 19.8842 135.833L54.5032 62.1557C54.9573 61.142 57.2841 60.3716 59.7245 60.3716Z" fill="black" stroke="white" stroke-width="2.93778"/>
<path d="M104.446 61.1421L112.448 61.1826L112.278 64.5482L104.049 64.5076L104.446 61.1421Z" fill="white" stroke="black" stroke-width="0.587557"/>
<path d="M112.448 61.1829L120.507 61.2234V64.5889L112.278 64.5484L112.448 61.1829Z" fill="white" stroke="black" stroke-width="0.587557"/>
<path d="M120.506 61.2231L128.508 61.2637L128.735 64.6292L120.506 64.5887V61.2231Z" fill="white" stroke="black" stroke-width="0.587557"/>
<path d="M104.049 64.5078L112.278 64.5484L112.108 68.0761L103.708 68.0355L104.049 64.5078Z" fill="white" stroke="black" stroke-width="0.587557"/>
<path d="M112.278 64.5481L120.507 64.5886L120.564 68.1164L112.107 68.0758L112.278 64.5481Z" fill="#019B46" stroke="black" stroke-width="0.587557"/>
<path d="M120.506 64.5891L128.735 64.6297L128.962 68.1574L120.563 68.1168L120.506 64.5891Z" fill="#019B46" stroke="black" stroke-width="0.587557"/>
<path d="M103.708 68.0354L112.107 68.0759L111.937 71.8064L103.254 71.7659L103.708 68.0354Z" fill="white" stroke="black" stroke-width="0.587557"/>
<path d="M112.108 68.0759L120.564 68.1165V71.8064H111.938L112.108 68.0759Z" fill="#019B46" stroke="black" stroke-width="0.587557"/>
<path d="M120.563 68.1167L128.962 68.1572L129.189 71.8472L120.563 71.8066V68.1167Z" fill="white" stroke="black" stroke-width="0.587557"/>
<path d="M103.253 71.7661L111.936 71.8067L111.709 75.6993L102.856 75.6588L103.253 71.7661Z" fill="white" stroke="black" stroke-width="0.587557"/>
<path d="M111.937 71.8066L120.563 71.8472V75.7399L111.71 75.6993L111.937 71.8066Z" fill="#019B46" stroke="black" stroke-width="0.587557"/>
<path d="M120.563 71.8467H129.189L129.416 75.7799L120.563 75.7393V71.8467Z" fill="white" stroke="black" stroke-width="0.587557"/>
<path d="M102.856 75.6587L111.71 75.6992L111.483 79.8352L102.402 79.7947L102.856 75.6587Z" fill="white" stroke="black" stroke-width="0.587557"/>
<path d="M111.711 75.6987L120.564 75.7393L120.621 79.8347H111.484L111.711 75.6987Z" fill="#019B46" stroke="black" stroke-width="0.587557"/>
<path d="M120.563 75.7395L129.416 75.7801L129.7 79.8755L120.62 79.8349L120.563 75.7395Z" fill="white" stroke="black" stroke-width="0.587557"/>
<path d="M102.402 79.7942L111.482 79.8347L111.255 84.1734L101.891 84.1329L102.402 79.7942Z" fill="white" stroke="black" stroke-width="0.587557"/>
<path d="M111.483 79.8352L120.62 79.8758V84.2145L111.256 84.1739L111.483 79.8352Z" fill="#019B46" stroke="black" stroke-width="0.587557"/>
<path d="M120.621 79.8755H129.701L129.985 84.2547L120.621 84.2142V79.8755Z" fill="white" stroke="black" stroke-width="0.587557"/>
<path d="M100.19 99.501H110.462L110.179 105.056L99.5659 105.016L100.19 99.501Z" fill="white" stroke="black" stroke-width="0.587557"/>
<path d="M110.462 99.501L120.734 99.5415V105.056H110.178L110.462 99.501Z" fill="#06A0FF" stroke="black" stroke-width="0.587557"/>
<path d="M120.734 99.5417L130.95 99.5823L131.29 105.097L120.734 105.056V99.5417Z" fill="white" stroke="black" stroke-width="0.587557"/>
<path d="M99.5652 105.016L110.178 105.056L109.894 110.936L98.9409 110.895L99.5652 105.016Z" fill="white" stroke="black" stroke-width="0.587557"/>
<path d="M110.178 105.056H120.734L120.791 110.936H109.894L110.178 105.056Z" fill="#06A0FF" stroke="black" stroke-width="0.587557"/>
<path d="M120.734 105.056L131.29 105.097L131.688 110.976L120.791 110.936L120.734 105.056Z" fill="white" stroke="black" stroke-width="0.587557"/>
<path d="M98.9408 110.896L109.894 110.936L109.554 117.221L98.2598 117.181L98.9408 110.896Z" fill="white" stroke="black" stroke-width="0.587557"/>
<path d="M109.894 110.936H120.791L120.847 117.221H109.554L109.894 110.936Z" fill="#06A0FF" stroke="black" stroke-width="0.587557"/>
<path d="M120.791 110.936L131.687 110.976L132.085 117.261L120.848 117.221L120.791 110.936Z" fill="white" stroke="black" stroke-width="0.587557"/>
<path d="M98.2593 117.221H109.553L109.212 123.952L97.5215 123.911L98.2593 117.221Z" fill="white" stroke="black" stroke-width="0.587557"/>
<path d="M109.554 117.221H120.848V123.952H109.214L109.554 117.221Z" fill="#06A0FF" stroke="black" stroke-width="0.587557"/>
<path d="M120.847 117.221L132.084 117.261L132.538 123.952H120.847V117.221Z" fill="white" stroke="black" stroke-width="0.587557"/>
<path d="M97.5216 123.911L109.213 123.952L108.815 131.129H96.7271L97.5216 123.911Z" fill="#06A0FF" stroke="black" stroke-width="0.587557"/>
<path d="M109.213 123.952H120.847L120.904 131.129H108.816L109.213 123.952Z" fill="#06A0FF" stroke="black" stroke-width="0.587557"/>
<path d="M120.847 123.952H132.538L132.992 131.17L120.904 131.129L120.847 123.952Z" fill="white" stroke="black" stroke-width="0.587557"/>
<path d="M96.7274 131.129H108.816L108.418 138.874H95.8193L96.7274 131.129Z" fill="white" stroke="black" stroke-width="0.587557"/>
<path d="M108.815 131.129L120.904 131.17L120.96 138.874H108.418L108.815 131.129Z" fill="white" stroke="black" stroke-width="0.587557"/>
<path d="M120.904 131.17H132.992L133.446 138.874H120.961L120.904 131.17Z" fill="white" stroke="black" stroke-width="0.587557"/>
<path d="M38.9536 99.0958L41.394 93.8245L51.2122 93.865L49.1123 99.1363L38.9536 99.0958Z" fill="white" stroke="black" stroke-width="0.587557"/>
<path d="M41.3945 93.8249L43.6646 88.8374L53.1991 88.878L51.2127 93.8654L41.3945 93.8249Z" fill="white" stroke="black" stroke-width="0.587557"/>
<path d="M43.6641 88.8364L45.8207 84.1733H55.1281L53.1985 88.877L43.6641 88.8364Z" fill="white" stroke="black" stroke-width="0.587557"/>
<path d="M49.1123 99.1363L51.2121 93.865H61.0871L59.271 99.1363H49.1123Z" fill="white" stroke="black" stroke-width="0.587557"/>
<path d="M51.2119 93.8649L53.1983 88.8774L62.7894 88.918L61.0869 93.8649H51.2119Z" fill="#ED1B24" stroke="black" stroke-width="0.587557"/>
<path d="M53.1982 88.877L55.1278 84.1733L64.3785 84.2139L62.7894 88.9175L53.1982 88.877Z" fill="#ED1B24" stroke="black" stroke-width="0.587557"/>
<path d="M59.271 99.1363L61.0871 93.865L70.9053 93.9055L69.4297 99.1769L59.271 99.1363Z" fill="white" stroke="black" stroke-width="0.587557"/>
<path d="M61.0869 93.8649L62.7895 88.918H72.3239L70.9051 93.9055L61.0869 93.8649Z" fill="#ED1B24" stroke="black" stroke-width="0.587557"/>
<path d="M62.7896 88.918L64.3786 84.2144L73.686 84.2549L72.324 88.918H62.7896Z" fill="white" stroke="black" stroke-width="0.587557"/>
<path d="M69.4302 99.1766L70.9057 93.9053L80.7239 93.9458L79.5321 99.2171L69.4302 99.1766Z" fill="white" stroke="black" stroke-width="0.587557"/>
<path d="M70.9058 93.9055L72.3246 88.918L81.859 88.9585L80.7239 93.946L70.9058 93.9055Z" fill="#ED1B24" stroke="black" stroke-width="0.587557"/>
<path d="M72.3242 88.918L73.6863 84.2549L82.9369 84.2954L81.8586 88.9585L72.3242 88.918Z" fill="white" stroke="black" stroke-width="0.587557"/>
<path d="M79.5317 99.2174L80.7803 93.946H90.5417L89.6904 99.2174H79.5317Z" fill="white" stroke="black" stroke-width="0.587557"/>
<path d="M80.7803 93.9462L81.8586 88.9587L91.393 88.9993L90.5417 93.9462H80.7803Z" fill="#ED1B24" stroke="black" stroke-width="0.587557"/>
<path d="M81.8579 88.9587L82.9362 84.2957H92.1869L91.3923 88.9993L81.8579 88.9587Z" fill="white" stroke="black" stroke-width="0.587557"/>
<path d="M89.6904 99.2174L90.5985 93.946L100.36 93.9866L99.7924 99.2579L89.6904 99.2174Z" fill="white" stroke="black" stroke-width="0.587557"/>
<path d="M90.5986 93.946L91.3932 88.999L100.928 89.0396L100.36 93.9865L90.5986 93.946Z" fill="#ED1B24" stroke="black" stroke-width="0.587557"/>
<path d="M91.3936 88.9993L92.2448 84.2957L101.496 84.3362L100.928 89.0398L91.3936 88.9993Z" fill="white" stroke="black" stroke-width="0.587557"/>
<path d="M131.403 99.3392L131.062 94.0679L140.824 94.1084L141.448 99.3392H131.403Z" fill="white" stroke="black" stroke-width="0.587557"/>
<path d="M131.063 94.0678L130.722 89.1208H140.2L140.824 94.1083L131.063 94.0678Z" fill="#FBDF1A" stroke="black" stroke-width="0.587557"/>
<path d="M130.722 89.1206L130.381 84.417L139.632 84.4575L140.2 89.1206H130.722Z" fill="white" stroke="black" stroke-width="0.587557"/>
<path d="M141.449 99.3392L140.825 94.1084H150.586L151.494 99.3797L141.449 99.3392Z" fill="white" stroke="black" stroke-width="0.587557"/>
<path d="M140.824 94.1083L140.2 89.1208L149.677 89.1614L150.585 94.1083H140.824Z" fill="#FBDF1A" stroke="black" stroke-width="0.587557"/>
<path d="M140.2 89.1209L139.633 84.4578L148.827 84.4983L149.678 89.1614L140.2 89.1209Z" fill="white" stroke="black" stroke-width="0.587557"/>
<path d="M151.55 99.3797L150.585 94.1084L160.29 94.1489L161.539 99.4203L151.55 99.3797Z" fill="white" stroke="black" stroke-width="0.587557"/>
<path d="M150.586 94.1081L149.678 89.1611L159.155 89.2017L160.29 94.1486L150.586 94.1081Z" fill="#FBDF1A" stroke="black" stroke-width="0.587557"/>
<path d="M149.678 89.1614L148.827 84.4983L158.021 84.5388L159.156 89.2019L149.678 89.1614Z" fill="white" stroke="black" stroke-width="0.587557"/>
<path d="M161.596 99.42L160.347 94.1487L170.052 94.1892L171.584 99.42H161.596Z" fill="white" stroke="black" stroke-width="0.587557"/>
<path d="M160.347 94.1488L159.155 89.2019L168.576 89.2425L170.052 94.1894L160.347 94.1488Z" fill="#FBDF1A" stroke="black" stroke-width="0.587557"/>
<path d="M159.155 89.2017L158.02 84.5386H167.214L168.576 89.2422L159.155 89.2017Z" fill="white" stroke="black" stroke-width="0.587557"/>
<path d="M171.584 99.4202L170.052 94.1895H179.813L181.629 99.4608L171.584 99.4202Z" fill="#FBDF1A" stroke="black" stroke-width="0.587557"/>
<path d="M170.052 94.1894L168.633 89.2424H178.054L179.813 94.1894H170.052Z" fill="#FBDF1A" stroke="black" stroke-width="0.587557"/>
<path d="M168.633 89.2422L167.214 84.5386L176.408 84.5791L178.054 89.2422H168.633Z" fill="white" stroke="black" stroke-width="0.587557"/>
<path d="M181.63 99.4608L179.813 94.1895L189.518 94.23L191.675 99.4608H181.63Z" fill="white" stroke="black" stroke-width="0.587557"/>
<path d="M179.813 94.1894L178.054 89.2424L187.475 89.283L189.518 94.2299L179.813 94.1894Z" fill="white" stroke="black" stroke-width="0.587557"/>
<path d="M178.054 89.2422L176.408 84.5791L185.602 84.6196L187.475 89.2827L178.054 89.2422Z" fill="white" stroke="black" stroke-width="0.587557"/>
<path d="M128.85 61.2642L173.173 61.4669C174.819 61.4669 176.351 62.0346 176.635 62.7239L185.489 84.4174L130.382 84.2552L128.85 61.2642Z" fill="#019B46" stroke="black" stroke-width="0.587557"/>
<path d="M134.865 63.6965L168.86 63.8587C170.392 63.8587 171.868 64.4264 172.152 65.0752L178.167 81.4163L136.795 81.2946L134.865 63.6965Z" fill="white" stroke="black" stroke-width="1.17511"/>
<path d="M146.386 66.5754C148.883 66.5754 151.097 67.4675 151.324 68.5623C151.551 69.6977 149.678 70.5898 147.124 70.5898C144.57 70.5898 142.357 69.6571 142.187 68.5218C142.016 67.4675 143.889 66.5754 146.386 66.5754Z" fill="#019B46" stroke="black" stroke-width="0.587557"/>
<path d="M147.634 73.469C150.245 73.469 152.572 74.4422 152.856 75.6586C153.139 76.8751 151.153 77.8888 148.486 77.8888C145.818 77.8888 143.435 76.8751 143.264 75.6181C143.094 74.4016 145.024 73.4284 147.634 73.469Z" fill="#019B46" stroke="black" stroke-width="0.587557"/>
<path d="M161.539 66.6567C164.036 66.6567 166.307 67.5488 166.704 68.6436C167.044 69.779 165.285 70.6711 162.731 70.6711C160.177 70.6711 157.85 69.7384 157.567 68.6031C157.283 67.5083 159.042 66.6567 161.539 66.6567Z" fill="#019B46" stroke="black" stroke-width="0.587557"/>
<path d="M163.526 73.5093C166.136 73.5093 168.577 74.4824 168.974 75.6989C169.371 76.9154 167.498 77.9291 164.831 77.9291C162.164 77.9291 159.723 76.9154 159.383 75.6584C159.042 74.4824 160.915 73.5093 163.526 73.5093Z" fill="#019B46" stroke="black" stroke-width="0.587557"/>
<path d="M131.403 99.582L191.731 99.7442L206.373 135.67C207.111 137.495 205.409 138.955 202.571 138.955L134.014 138.874L131.403 99.582Z" fill="#FBDF1A" stroke="black" stroke-width="0.587557"/>
<path d="M139.179 103.556L186.34 103.678L196.385 130.927C196.896 132.386 195.477 133.562 193.15 133.562L142.357 133.522L139.179 103.556Z" fill="white" stroke="black" stroke-width="1.17511"/>
<path d="M154.161 108.3C157.396 108.3 160.29 109.76 160.687 111.625C161.085 113.491 158.758 115.031 155.409 115.031C152.061 115.031 149.11 113.45 148.826 111.585C148.542 109.76 150.926 108.3 154.161 108.3Z" fill="#FBDF1A" stroke="black" stroke-width="0.587557"/>
<path d="M156.318 119.897C159.723 119.897 162.844 121.559 163.298 123.627C163.752 125.736 161.255 127.52 157.736 127.52C154.161 127.52 151.04 125.736 150.699 123.627C150.359 121.559 152.856 119.897 156.318 119.897Z" fill="#FBDF1A" stroke="black" stroke-width="0.587557"/>
<path d="M173.684 108.341C176.919 108.341 179.983 109.8 180.551 111.666C181.175 113.531 178.962 115.072 175.613 115.072C172.265 115.072 169.2 113.531 168.69 111.625C168.236 109.8 170.506 108.341 173.684 108.341Z" fill="#FBDF1A" stroke="black" stroke-width="0.587557"/>
<path d="M177.089 119.938C180.494 119.938 183.785 121.6 184.466 123.668C185.147 125.777 182.877 127.561 179.302 127.561C175.783 127.561 172.435 125.817 171.867 123.668C171.3 121.56 173.683 119.938 177.089 119.938Z" fill="#FBDF1A" stroke="black" stroke-width="0.587557"/>
<path d="M59.4413 60.9395L104.106 61.1422L101.495 84.1333L45.8774 83.9711L55.9226 62.1965C56.2064 61.5071 57.7955 60.9395 59.4413 60.9395Z" fill="#ED1B24" stroke="black" stroke-width="0.587557"/>
<path d="M64.0952 63.4131L98.317 63.5753L95.6496 81.1328L53.9365 80.9707L60.7468 64.589C61.0306 63.9402 62.5062 63.4131 64.0952 63.4131Z" fill="white" stroke="black" stroke-width="1.17511"/>
<path d="M71.3593 66.2916C73.8564 66.2916 75.6158 67.1837 75.2752 68.2785C74.9347 69.4139 72.5511 70.3059 69.9973 70.3059C67.3867 70.3059 65.6841 69.3733 66.0813 68.2379C66.4786 67.1431 68.8622 66.2511 71.3593 66.2916Z" fill="#ED1B24" stroke="black" stroke-width="0.587557"/>
<path d="M69.0328 73.1443C71.6434 73.1443 73.5162 74.1175 73.1189 75.3339C72.7217 76.5504 70.2246 77.5641 67.5004 77.5641C64.7763 77.5641 62.9602 76.5504 63.4143 75.2934C63.925 74.1175 66.3654 73.1443 69.0328 73.1443Z" fill="#ED1B24" stroke="black" stroke-width="0.587557"/>
<path d="M86.6258 66.332C89.1229 66.332 90.9957 67.2241 90.7687 68.3189C90.5417 69.4543 88.2716 70.3463 85.7178 70.3463C83.1639 70.3463 81.2911 69.4137 81.5748 68.2784C81.8586 67.1836 84.1287 66.332 86.6258 66.332Z" fill="#ED1B24" stroke="black" stroke-width="0.587557"/>
<path d="M85.0368 73.2258C87.6474 73.2258 89.577 74.199 89.35 75.4155C89.123 76.6319 86.6826 77.6456 84.0152 77.6456C81.2911 77.6456 79.3615 76.6319 79.702 75.3749C80.0426 74.1585 82.4262 73.2258 85.0368 73.2258Z" fill="#ED1B24" stroke="black" stroke-width="0.587557"/>
<path d="M38.8396 99.3391L99.735 99.5013L95.2516 138.874L25.9 138.833C23.0056 138.833 21.3598 137.333 22.2111 135.508L38.8396 99.3391Z" fill="#06A0FF" stroke="black" stroke-width="0.587557"/>
<path d="M44.5721 103.353L92.1875 103.475L87.5905 133.521L36.2862 133.481C33.9026 133.481 32.4838 132.264 33.1081 130.804L44.5721 103.353Z" fill="white" stroke="black" stroke-width="1.17511"/>
<path d="M57.2275 108.098C60.4624 108.098 62.6757 109.598 62.1082 111.423C61.5407 113.328 58.3058 114.869 54.9574 114.869C51.609 114.869 49.4524 113.288 50.1334 111.423C50.8144 109.557 53.9926 108.098 57.2275 108.098Z" fill="#06A0FF" stroke="black" stroke-width="0.587557"/>
<path d="M53.2552 119.735C56.7171 119.735 58.9872 121.398 58.3629 123.506C57.6819 125.655 54.2767 127.399 50.6446 127.399C47.0692 127.399 44.7991 125.615 45.5936 123.506C46.3882 121.398 49.7933 119.735 53.2552 119.735Z" fill="#06A0FF" stroke="black" stroke-width="0.587557"/>
<path d="M76.9776 108.138C80.2125 108.138 82.5393 109.638 82.1988 111.463C81.8015 113.328 78.7937 114.91 75.4453 114.91C72.0969 114.91 69.77 113.328 70.2808 111.463C70.6781 109.598 73.7427 108.138 76.9776 108.138Z" fill="#06A0FF" stroke="black" stroke-width="0.587557"/>
<path d="M74.2534 119.775C77.7153 119.775 80.1557 121.438 79.7584 123.546C79.3044 125.695 76.0695 127.439 72.4941 127.439C68.9187 127.439 66.4783 125.655 67.0458 123.546C67.6133 121.438 70.7915 119.775 74.2534 119.775Z" fill="#06A0FF" stroke="black" stroke-width="0.587557"/>
<path d="M101.891 84.3357L129.984 84.4168L130.949 99.3387L100.246 99.2576L101.891 84.3357Z" fill="white" stroke="black" stroke-width="0.587557"/>
<path d="M115.796 91.3506L102.175 84.3357L129.7 84.4168L115.796 91.3506Z" fill="#019B46" stroke="black" stroke-width="0.587557"/>
<path d="M116.08 91.5129L130.949 99.1766L130.041 84.5791L116.08 91.5129Z" fill="#FBDF1A" stroke="black" stroke-width="0.587557"/>
<path d="M115.455 91.5132L101.835 84.4983L100.246 99.0958L115.455 91.5132Z" fill="#ED1B24" stroke="black" stroke-width="0.587557"/>
<path d="M115.796 91.6755L100.586 99.2581L130.665 99.3392L115.796 91.6755Z" fill="#06A0FF" stroke="black" stroke-width="0.587557"/>
<path d="M107.851 68.9275L108.418 69.4546L108.475 69.4952H108.589L109.894 69.5763L108.929 69.9818L108.872 70.0223V70.0629L109.043 70.6711L107.851 70.3872H107.794H107.681L106.432 70.6711L106.716 70.0629V70.0223L106.659 69.9818L105.751 69.5763L107.113 69.4952H107.227L107.283 69.4546L107.851 68.9275Z" stroke="black" stroke-width="0.587557"/>
<path d="M163.015 85.6335L163.866 86.2823L163.923 86.3229H164.036L165.569 86.4445L164.66 86.9717L164.604 87.0122L164.66 87.0527L165.114 87.7826L163.696 87.4582L163.582 87.4177L163.469 87.4582L162.22 87.7826L162.277 87.0527V87.0122L162.22 86.9717L161.028 86.4445L162.447 86.3229H162.561L162.617 86.2823L163.015 85.6335Z" stroke="black" stroke-width="0.587557"/>
<path d="M65.5137 95.1216L66.0244 95.8515L66.0812 95.892H66.1947L67.727 96.0137L66.4217 96.5813L66.3082 96.703V96.7435V97.5545L65.0029 97.149L64.8894 97.1085L64.7759 97.149L63.2436 97.514L63.7543 96.703L63.8111 96.6624L63.7543 96.6219L62.7896 96.0137L64.4354 95.892H64.5489L64.6056 95.8515L65.5137 95.1216Z" stroke="black" stroke-width="0.587557"/>
<path d="M126.523 118.843L127.374 119.775L127.431 119.856H127.545L129.361 120.019L128.112 120.789L127.999 120.83V120.911L128.339 121.965L126.693 121.478L126.58 121.438L126.466 121.478L124.877 121.965L125.104 120.911V120.83L124.991 120.789L123.686 120.019L125.445 119.856H125.558L125.615 119.775L126.523 118.843Z" stroke="black" stroke-width="0.587557"/>
<path d="M115.002 133.765C114.889 133.684 114.719 133.684 114.605 133.765L112.903 134.86C112.789 134.941 112.789 135.022 112.903 135.103C113.016 135.184 113.186 135.184 113.3 135.103L114.832 134.13L116.308 135.103C116.421 135.184 116.591 135.184 116.705 135.103C116.818 135.022 116.818 134.941 116.705 134.86L115.002 133.765ZM114.946 138.712L115.059 133.887H114.548L114.435 138.712H114.946Z" fill="black"/>
<path d="M116.591 63.3727C116.534 63.4132 116.42 63.4132 116.364 63.3727L115.229 62.8861C115.172 62.8456 115.172 62.805 115.229 62.7645C115.285 62.7239 115.399 62.7239 115.456 62.7645L116.42 63.1699L117.442 62.7645C117.499 62.7239 117.612 62.7239 117.669 62.7645C117.726 62.805 117.726 62.8456 117.669 62.8861L116.591 63.3727ZM116.647 61.2642L116.591 63.3321H116.25L116.307 61.2642H116.647Z" fill="black"/>
<path d="M182.197 91.635C182.14 91.6756 182.14 91.7567 182.254 91.7972L183.843 92.4865C183.956 92.5271 184.07 92.5271 184.127 92.4865C184.183 92.446 184.183 92.3649 184.07 92.3243L182.651 91.7161L183.616 91.1079C183.673 91.0673 183.673 90.9862 183.559 90.9457C183.445 90.9051 183.332 90.9051 183.275 90.9457L182.197 91.635ZM188.213 91.5945H182.31L182.367 91.7972H188.269L188.213 91.5945Z" fill="black"/>
<path d="M48.8848 91.3912C48.9983 91.3507 48.9983 91.2696 48.9415 91.229L47.8632 90.5397C47.8065 90.4991 47.6362 90.4991 47.5794 90.5397C47.4659 90.5802 47.4659 90.6613 47.5227 90.7019L48.4875 91.3101L47.0119 91.9183C46.8984 91.9589 46.8984 92.04 46.9552 92.0805C47.0119 92.1211 47.1822 92.1211 47.2389 92.0805L48.8848 91.3912ZM42.6987 91.3912H48.7145L48.828 91.1885H42.8122L42.6987 91.3912Z" fill="black"/>
<path d="M70.7913 68.5223C70.6778 68.5628 70.5075 68.5628 70.4508 68.5223L70.394 68.5628L70.4508 68.5223C70.394 68.4817 69.6562 68.0762 69.032 67.5085C68.6915 67.2247 68.4077 66.9409 68.2374 66.6165C68.0672 66.3326 67.9537 66.0082 68.0672 65.7649C68.3509 64.9134 70.167 64.2646 72.0966 64.2646C74.0262 64.2646 75.3883 64.954 75.1045 65.8055C75.0477 66.0488 74.7072 66.3732 74.31 66.657C73.9127 66.9409 73.4019 67.2652 72.8911 67.5491C71.8696 68.0357 70.848 68.4817 70.7913 68.5223Z" fill="url(#paint0_linear_182_7450)" stroke="#454545" stroke-width="0.293778"/>
<path d="M71.8128 64.8323C72.9479 64.8323 73.7424 65.2378 73.5722 65.7243C73.4019 66.2109 72.3236 66.6164 71.1886 66.6164C70.0535 66.6164 69.259 66.2109 69.4292 65.7243C69.5995 65.2378 70.6778 64.8323 71.8128 64.8323Z" fill="url(#paint1_linear_182_7450)" stroke="#470E0E" stroke-width="0.293778"/>
<path d="M68.4077 75.6177C68.2942 75.6583 68.1239 75.6583 68.0104 75.6177H67.9537L68.0104 75.5772C67.9537 75.5366 67.2159 75.05 66.5348 74.4418C66.1943 74.158 65.9106 73.793 65.6836 73.4686C65.4565 73.1443 65.3998 72.8199 65.5133 72.536C65.8538 71.6034 67.7834 70.8735 69.7697 70.8735C71.8128 70.8735 73.1749 71.644 72.8911 72.536C72.7776 72.8199 72.4939 73.1443 72.0398 73.4686C71.5858 73.793 71.075 74.1174 70.5643 74.4418C69.5427 75.0906 68.4644 75.5772 68.4077 75.6177Z" fill="url(#paint2_linear_182_7450)" stroke="#454545" stroke-width="0.293778"/>
<path d="M69.5437 71.6029C70.7355 71.6029 71.5868 72.0489 71.4165 72.5761C71.2463 73.1032 70.1112 73.5492 68.9194 73.5492C67.7276 73.5492 66.8763 73.1032 67.0466 72.5355C67.2169 72.0084 68.3519 71.5624 69.5437 71.6029Z" fill="url(#paint3_linear_182_7450)" stroke="#470E0E" stroke-width="0.293778"/>
<path d="M86.2847 68.5623C86.1712 68.6028 86.0009 68.6028 85.9442 68.5623L85.8874 68.6028L85.9442 68.5623C85.8874 68.5217 85.1496 68.1163 84.4118 67.5486C84.0713 67.2647 83.7308 66.9809 83.5038 66.6565C83.2768 66.3727 83.1633 66.0483 83.22 65.805C83.447 64.9535 85.1496 64.3047 87.0792 64.3047C89.0088 64.3047 90.4276 64.994 90.2574 65.8455C90.2006 66.0888 89.9168 66.4132 89.5763 66.6971C89.1791 66.9809 88.725 67.3053 88.271 67.5891C87.3062 68.1163 86.3414 68.5217 86.2847 68.5623Z" fill="url(#paint4_linear_182_7450)" stroke="#454545" stroke-width="0.293778"/>
<path d="M86.9668 64.9128C88.1018 64.9128 88.9531 65.3183 88.8396 65.8049C88.7261 66.2915 87.7046 66.697 86.5695 66.697C85.4345 66.697 84.5832 66.2915 84.6967 65.8049C84.8102 65.2778 85.8317 64.9128 86.9668 64.9128Z" fill="url(#paint5_linear_182_7450)" stroke="#470E0E" stroke-width="0.293778"/>
<path d="M84.6395 75.6587C84.526 75.6993 84.3557 75.6993 84.2422 75.6587L84.1855 75.6993L84.2422 75.6587C84.1855 75.6182 83.3909 75.1316 82.6532 74.5234C82.3126 74.2395 81.9154 73.8746 81.6884 73.5502C81.4614 73.2258 81.3478 72.9014 81.4046 72.6176C81.6316 71.685 83.4477 70.9551 85.4908 70.9551C87.5339 70.9551 89.0094 71.7255 88.7824 72.6176C88.7257 72.9014 88.4419 73.2258 88.0446 73.5502C87.6474 73.8746 87.1366 74.199 86.6258 74.5234C85.7178 75.1721 84.753 75.6182 84.6395 75.6587Z" fill="url(#paint6_linear_182_7450)" stroke="#454545" stroke-width="0.293778"/>
<path d="M85.3778 71.645C86.5696 71.645 87.4777 72.0911 87.3074 72.6182C87.1939 73.1453 86.1156 73.5914 84.9238 73.5914C83.732 73.5914 82.8239 73.1453 82.9942 72.5776C83.1077 72.0911 84.186 71.645 85.3778 71.645Z" fill="url(#paint7_linear_182_7450)" stroke="#470E0E" stroke-width="0.293778"/>
<path d="M56.2064 111.828C56.0362 111.909 55.8659 111.909 55.7524 111.828L55.6389 111.868L55.7524 111.828C55.6957 111.787 54.7876 111.058 54.0498 110.125C53.6526 109.679 53.3121 109.152 53.0851 108.665C52.858 108.179 52.8013 107.651 52.9716 107.246C53.4823 105.827 55.9227 104.732 58.4198 104.732C60.9169 104.732 62.5627 105.867 62.1087 107.246C61.9952 107.692 61.5412 108.179 61.0304 108.665C60.4629 109.152 59.7819 109.679 59.1008 110.125C57.6253 111.058 56.32 111.787 56.2064 111.828Z" fill="url(#paint8_linear_182_7450)" stroke="#454545" stroke-width="0.293778"/>
<path d="M58.0229 105.705C59.4985 105.705 60.4633 106.354 60.2363 107.206C59.9525 108.017 58.5337 108.706 57.0581 108.706C55.5826 108.706 54.561 108.017 54.8448 107.206C55.1285 106.354 56.5474 105.705 58.0229 105.705Z" fill="url(#paint9_linear_182_7450)" stroke="#052F6F" stroke-width="0.293778"/>
<path d="M52.1202 123.993C51.95 124.074 51.723 124.074 51.6095 123.993L51.496 124.033L51.6095 123.993C51.5527 123.911 50.6447 123.1 49.8501 122.046C49.4529 121.519 49.1124 120.951 48.8854 120.384C48.6583 119.816 48.6016 119.248 48.7718 118.762C49.3394 117.18 51.95 115.923 54.5606 115.923C57.1712 115.923 58.9306 117.18 58.4765 118.762C58.3063 119.248 57.8523 119.816 57.2847 120.384C56.6604 120.951 55.9227 121.519 55.1849 122.046C53.6526 123.1 52.2338 123.911 52.1202 123.993Z" fill="url(#paint10_linear_182_7450)" stroke="#454545" stroke-width="0.293778"/>
<path d="M54.1635 117.059C55.7526 117.059 56.7741 117.788 56.4904 118.721C56.2066 119.654 54.6743 120.424 53.0285 120.424C51.4394 120.424 50.4178 119.654 50.7584 118.721C51.0989 117.788 52.6312 117.059 54.1635 117.059Z" fill="url(#paint11_linear_182_7450)" stroke="#052F6F" stroke-width="0.293778"/>
<path d="M76.3535 111.868C76.24 111.95 76.013 111.95 75.8995 111.868L75.786 111.909L75.8995 111.868C75.8427 111.828 74.8779 111.098 74.0267 110.165C73.5726 109.719 73.1754 109.192 72.9484 108.706C72.6646 108.219 72.5511 107.692 72.6646 107.286C73.0051 105.867 75.332 104.772 77.8291 104.772C80.3262 104.772 82.0855 105.908 81.8017 107.286C81.6882 107.733 81.3477 108.219 80.837 108.706C80.3262 109.192 79.7019 109.719 79.0776 110.165C77.7156 111.098 76.4103 111.828 76.3535 111.868Z" fill="url(#paint12_linear_182_7450)" stroke="#454545" stroke-width="0.293778"/>
<path d="M77.4883 105.746C78.9639 105.746 79.9854 106.394 79.8152 107.205C79.6449 108.016 78.2829 108.706 76.8073 108.706C75.3317 108.706 74.2534 108.016 74.4804 107.205C74.7074 106.394 76.0128 105.746 77.4883 105.746Z" fill="url(#paint13_linear_182_7450)" stroke="#052F6F" stroke-width="0.293778"/>
<path d="M73.5156 123.993C73.3453 124.074 73.1183 124.074 73.0048 123.993L72.8913 124.033L73.0048 123.993C72.948 123.911 71.9265 123.1 71.0185 122.087C70.5644 121.56 70.1672 120.992 69.8834 120.424C69.5996 119.857 69.4861 119.289 69.5996 118.802C69.9969 117.221 72.494 115.964 75.1046 115.964C77.7153 115.964 79.5881 117.221 79.3043 118.802C79.1908 119.289 78.7936 119.857 78.2828 120.424C77.7153 120.992 77.0342 121.56 76.3532 122.087C74.9911 123.141 73.6291 123.952 73.5156 123.993Z" fill="url(#paint14_linear_182_7450)" stroke="#454545" stroke-width="0.293778"/>
<path d="M74.8777 117.1C76.4668 117.1 77.5451 117.829 77.3748 118.762C77.1478 119.695 75.729 120.465 74.1399 120.465C72.5509 120.465 71.4726 119.695 71.6996 118.762C71.8698 117.829 73.3454 117.1 74.8777 117.1Z" fill="url(#paint15_linear_182_7450)" stroke="#052F6F" stroke-width="0.293778"/>
<path d="M146.953 68.8057C146.84 68.8463 146.726 68.8463 146.613 68.8057L146.556 68.8463L146.613 68.8057C146.556 68.7652 145.591 68.3597 144.683 67.792C144.229 67.5081 143.775 67.2243 143.435 66.8999C143.094 66.6161 142.811 66.2917 142.811 66.0484C142.697 65.1969 144.116 64.5481 146.045 64.5481C147.975 64.5481 149.678 65.2374 149.848 66.0889C149.905 66.3322 149.791 66.6566 149.507 66.9405C149.28 67.2243 148.94 67.5487 148.543 67.8325C147.805 68.3597 147.01 68.7652 146.953 68.8057Z" fill="url(#paint16_linear_182_7450)" stroke="#454545" stroke-width="0.293778"/>
<path d="M146.102 65.1562C147.237 65.1562 148.259 65.5617 148.316 66.0483C148.429 66.5349 147.578 66.9404 146.386 66.9404C145.251 66.9404 144.229 66.5349 144.173 66.0483C144.116 65.5617 144.967 65.1562 146.102 65.1562Z" fill="url(#paint17_linear_182_7450)" stroke="#075C00" stroke-width="0.293778"/>
<path d="M148.315 75.9016C148.202 75.9422 148.031 75.9422 147.918 75.9016L147.861 75.9422L147.918 75.9016C147.861 75.8611 146.84 75.3745 145.875 74.7663C145.364 74.4824 144.91 74.1175 144.513 73.7931C144.116 73.4687 143.889 73.1443 143.832 72.8605C143.662 71.9279 145.194 71.198 147.18 71.198C149.167 71.198 150.983 71.9684 151.153 72.8605C151.21 73.1443 151.096 73.4687 150.812 73.7931C150.585 74.1175 150.188 74.4419 149.848 74.7663C149.167 75.4151 148.372 75.8611 148.315 75.9016Z" fill="url(#paint18_linear_182_7450)" stroke="#454545" stroke-width="0.293778"/>
<path d="M147.351 71.8879C148.543 71.8879 149.564 72.334 149.678 72.8611C149.791 73.3882 148.883 73.8343 147.691 73.8343C146.5 73.8343 145.421 73.3882 145.364 72.8611C145.308 72.334 146.159 71.8879 147.351 71.8879Z" fill="url(#paint19_linear_182_7450)" stroke="#075C00" stroke-width="0.293778"/>
<path d="M162.333 68.887C162.277 68.9276 162.106 68.9276 161.993 68.887L161.936 68.9276L161.993 68.887C161.936 68.8465 160.971 68.441 159.95 67.8733C159.439 67.5894 158.985 67.3056 158.588 66.9812C158.19 66.6974 157.907 66.373 157.85 66.1297C157.623 65.2782 158.985 64.6294 160.915 64.6294C162.844 64.6294 164.603 65.3187 164.83 66.1702C164.887 66.4135 164.83 66.7379 164.603 67.0218C164.376 67.3056 164.093 67.63 163.752 67.9138C163.128 68.441 162.39 68.8465 162.333 68.887Z" fill="url(#paint20_linear_182_7450)" stroke="#454545" stroke-width="0.293778"/>
<path d="M161.141 65.2373C162.277 65.2373 163.298 65.6428 163.468 66.1294C163.639 66.616 162.787 67.0214 161.652 67.0214C160.517 67.0214 159.439 66.616 159.325 66.1294C159.155 65.6022 160.006 65.2373 161.141 65.2373Z" fill="url(#paint21_linear_182_7450)" stroke="#075C00" stroke-width="0.293778"/>
<path d="M164.434 75.9421C164.377 75.9827 164.15 75.9827 164.036 75.9421L163.98 75.9827L164.036 75.9421C163.98 75.9016 162.901 75.415 161.88 74.8473C161.369 74.5635 160.858 74.1986 160.461 73.8742C160.064 73.5498 159.78 73.2254 159.666 72.9415C159.439 72.0089 160.858 71.2791 162.845 71.2791C164.831 71.2791 166.704 72.0495 166.988 72.9415C167.101 73.2254 166.988 73.5498 166.76 73.8742C166.533 74.1986 166.25 74.5229 165.909 74.8473C165.228 75.4556 164.49 75.9421 164.434 75.9421Z" fill="url(#paint22_linear_182_7450)" stroke="#454545" stroke-width="0.293778"/>
<path d="M163.071 71.9686C164.263 71.9686 165.341 72.4147 165.512 72.9418C165.682 73.4689 164.831 73.915 163.639 73.915C162.447 73.915 161.312 73.4689 161.198 72.9418C161.028 72.3741 161.879 71.9281 163.071 71.9686Z" fill="url(#paint23_linear_182_7450)" stroke="#075C00" stroke-width="0.293778"/>
<path d="M155.069 112.03C154.956 112.111 154.729 112.111 154.615 112.03L154.558 112.071L154.615 112.03C154.502 111.99 153.31 111.26 152.061 110.327C151.437 109.881 150.813 109.354 150.359 108.868C149.905 108.381 149.564 107.854 149.507 107.448C149.28 106.07 151.097 104.934 153.537 104.934C155.977 104.934 158.247 106.07 158.531 107.448C158.645 107.894 158.474 108.381 158.191 108.868C157.907 109.354 157.453 109.881 157.056 110.327C156.091 111.26 155.126 111.949 155.069 112.03Z" fill="url(#paint24_linear_182_7450)" stroke="#454545" stroke-width="0.293778"/>
<path d="M153.706 105.907C155.182 105.907 156.487 106.556 156.658 107.367C156.828 108.178 155.75 108.867 154.274 108.867C152.798 108.867 151.493 108.178 151.323 107.367C151.153 106.556 152.231 105.907 153.706 105.907Z" fill="url(#paint25_linear_182_7450)" stroke="#533200" stroke-width="0.293778"/>
<path d="M157.339 124.114C157.225 124.195 156.998 124.195 156.828 124.114L156.771 124.155L156.828 124.114C156.714 124.033 155.409 123.222 154.104 122.209C153.423 121.681 152.798 121.114 152.288 120.546C151.777 119.978 151.436 119.411 151.323 118.924C151.096 117.343 152.969 116.086 155.579 116.086C158.19 116.086 160.573 117.343 160.914 118.924C161.027 119.411 160.857 119.978 160.573 120.546C160.29 121.114 159.836 121.681 159.382 122.209C158.417 123.222 157.395 124.033 157.339 124.114Z" fill="url(#paint26_linear_182_7450)" stroke="#454545" stroke-width="0.293778"/>
<path d="M155.807 117.221C157.339 117.221 158.758 117.951 158.928 118.884C159.098 119.816 157.963 120.587 156.431 120.546C154.842 120.546 153.423 119.776 153.309 118.843C153.139 117.951 154.274 117.221 155.807 117.221Z" fill="url(#paint27_linear_182_7450)" stroke="#533200" stroke-width="0.293778"/>
<path d="M174.989 112.03C174.876 112.111 174.649 112.111 174.535 112.03L174.479 112.071L174.535 112.03C174.422 111.99 173.117 111.26 171.811 110.327C171.13 109.881 170.506 109.354 169.938 108.868C169.428 108.381 169.03 107.854 168.917 107.448C168.52 106.07 170.222 104.934 172.719 104.934C175.16 104.934 177.543 106.07 177.941 107.448C178.054 107.894 177.997 108.381 177.77 108.868C177.543 109.354 177.146 109.881 176.749 110.327C175.954 111.3 175.046 111.99 174.989 112.03Z" fill="url(#paint28_linear_182_7450)" stroke="#454545" stroke-width="0.293778"/>
<path d="M173.003 105.948C174.479 105.948 175.841 106.597 176.068 107.408C176.295 108.219 175.33 108.908 173.855 108.908C172.379 108.908 170.96 108.219 170.733 107.408C170.563 106.597 171.528 105.948 173.003 105.948Z" fill="url(#paint29_linear_182_7450)" stroke="#533200" stroke-width="0.293778"/>
<path d="M178.565 124.114C178.451 124.195 178.224 124.195 178.054 124.114L177.997 124.155L178.054 124.114C177.94 124.033 176.521 123.263 175.103 122.209C174.365 121.681 173.684 121.114 173.116 120.546C172.549 119.978 172.152 119.411 171.981 118.924C171.584 117.343 173.343 116.086 175.954 116.086C178.565 116.086 181.062 117.343 181.572 118.924C181.743 119.411 181.629 119.978 181.402 120.546C181.175 121.114 180.778 121.681 180.381 122.209C179.529 123.263 178.621 124.074 178.565 124.114Z" fill="url(#paint30_linear_182_7450)" stroke="#454545" stroke-width="0.293778"/>
<path d="M176.295 117.262C177.827 117.262 179.303 117.992 179.587 118.924C179.871 119.857 178.849 120.587 177.26 120.587C175.671 120.587 174.195 119.816 173.968 118.884C173.685 117.992 174.763 117.262 176.295 117.262Z" fill="url(#paint31_linear_182_7450)" stroke="#533200" stroke-width="0.293778"/>
</g>
</g>
<g style="mix-blend-mode:multiply">
<path d="M134.122 82.3069C100.739 80.8627 74.0067 73.6419 74.2675 65.8959C74.5283 58.2812 101.913 53.1609 135.165 54.6051C168.548 56.0493 195.28 63.2701 195.019 71.0161C194.758 78.6308 167.504 83.6198 134.122 82.3069Z" fill="url(#paint32_radial_182_7450)"/>
</g>
<path d="M171.025 20.9951C168.156 15.7436 160.984 10.3608 155.246 8.91659L140.641 5.24053C134.773 3.79636 127.601 6.81598 124.602 11.9362L117.039 24.9338C114.039 30.054 112.866 39.1129 114.561 44.8896L118.603 59.2C120.168 64.9767 126.427 69.703 132.426 69.8343L147.552 69.9656C153.551 69.9656 161.766 66.5521 165.809 62.2196L176.11 51.3227C180.283 46.9902 181.196 39.2442 178.327 33.9926L171.025 20.9951Z" fill="url(#paint33_radial_182_7450)"/>
<path d="M116.125 45.0212C114.56 39.2446 115.604 30.3169 118.603 25.0654L124.34 15.0875C127.34 9.96727 131.643 10.2298 133.99 15.744L139.076 28.2163C141.423 33.7304 140.249 42.1329 136.729 46.9906L128.644 57.8875C125.123 62.6139 120.82 61.8261 119.124 56.0494L116.125 45.0212Z" fill="url(#paint34_radial_182_7450)"/>
<path d="M136.598 14.6933C134.251 9.17919 137.119 5.7657 142.987 7.20987L154.332 10.0982C160.07 11.5424 167.242 16.9252 170.111 22.1767L175.718 32.1546C178.587 37.4062 176.24 41.0822 170.241 40.2945L156.549 38.5878C150.681 37.8 143.9 32.6798 141.683 27.1657L136.598 14.6933Z" fill="url(#paint35_radial_182_7450)"/>
<path d="M139.076 48.6974C142.596 43.971 150.42 40.5575 156.288 41.3452L169.981 43.052C175.849 43.8397 177.283 47.9096 173.241 52.2421L165.286 60.6446C161.113 64.9771 152.898 68.5219 147.03 68.3906L135.294 68.2593C129.295 68.2593 127.339 64.1894 130.991 59.463L139.076 48.6974Z" fill="url(#paint36_radial_182_7450)"/>
<path d="M165.81 30.3173C164.897 28.6105 165.418 27.429 166.983 27.5602C168.418 27.6915 170.374 29.0044 171.417 30.5799C172.46 32.1553 172.069 33.4682 170.504 33.4682C168.809 33.4682 166.722 32.024 165.81 30.3173Z" fill="url(#paint37_linear_182_7450)"/>
<path d="M166.529 29.8763C166.167 29.6222 165.769 28.9255 166.209 28.8786C166.245 28.8748 166.285 28.873 166.33 28.873C166.591 28.873 167.113 29.1356 167.243 29.5295C167.374 29.9234 167.374 30.0546 166.982 30.0546C166.853 30.0546 166.691 29.9898 166.529 29.8763Z" fill="white"/>
<path d="M150.29 29.6604C149.638 27.8224 150.681 26.3782 152.768 26.6408C154.724 26.7721 156.941 28.3475 157.723 30.0543C158.636 31.8923 157.723 33.4678 155.637 33.4678C153.55 33.3365 151.073 31.6297 150.29 29.6604Z" fill="url(#paint38_linear_182_7450)"/>
<path d="M151.072 28.6101C150.942 28.2162 151.202 27.9536 151.594 27.9536C151.985 27.9536 152.506 28.3475 152.637 28.7413C152.659 28.8084 152.67 28.8717 152.671 28.9304C152.678 29.4712 151.816 29.3621 151.392 29.0269C151.244 28.9098 151.125 28.7709 151.072 28.6101Z" fill="white"/>
<path d="M160.853 21.652C160.071 20.3391 160.723 19.5514 162.157 19.6827C163.592 19.9452 165.287 20.9956 166.069 22.3084C166.852 23.6213 166.461 24.5403 165.026 24.409C163.592 24.2778 161.636 23.0962 160.853 21.652Z" fill="url(#paint39_linear_182_7450)"/>
<path d="M161.703 21.405C161.363 21.1802 161.097 20.6021 161.505 20.6021C161.766 20.6021 162.157 20.8646 162.288 21.1272C162.418 21.3898 162.288 21.5211 162.027 21.5211C161.919 21.5211 161.811 21.4762 161.703 21.405Z" fill="white"/>
<path d="M146.508 19.814C145.986 18.3698 147.03 17.4508 148.986 17.7134C150.811 17.976 152.767 19.2889 153.419 20.733C154.071 22.1772 153.159 23.2275 151.203 23.0962C149.247 22.8336 147.16 21.2582 146.508 19.814Z" fill="url(#paint40_linear_182_7450)"/>
<path d="M147.29 19.026C147.283 19.0128 147.278 18.9997 147.273 18.9866C147.094 18.4763 148.145 18.6081 148.516 19.0013C148.608 19.0987 148.681 19.2009 148.724 19.2885C148.731 19.3017 148.736 19.3148 148.741 19.3279C148.92 19.8381 147.869 19.7064 147.498 19.3132C147.406 19.2158 147.333 19.1136 147.29 19.026Z" fill="white"/>
<path d="M156.941 14.6935C156.289 13.6432 156.941 12.9867 158.376 13.2493C159.68 13.5119 161.245 14.5622 161.897 15.6125C162.679 16.6628 162.157 17.4505 160.723 17.188C159.289 16.9254 157.593 15.7438 156.941 14.6935Z" fill="url(#paint41_linear_182_7450)"/>
<path d="M157.332 14.1681C157.159 13.82 157.823 13.8935 158.126 14.1381C158.233 14.2251 158.324 14.3279 158.375 14.4307C158.506 14.6932 158.375 14.8245 158.114 14.6932C157.854 14.5619 157.462 14.4307 157.332 14.1681Z" fill="white"/>
<path d="M143.639 12.068C143.248 10.8864 144.291 10.2299 145.986 10.6238C147.682 11.0176 149.377 12.1992 149.899 13.2495C150.42 14.4311 149.507 15.0876 147.812 14.825C145.986 14.5624 144.161 13.2495 143.639 12.068Z" fill="url(#paint42_linear_182_7450)"/>
<path d="M144.798 11.9772C144.437 11.8117 144.368 11.1812 144.761 11.2362C144.817 11.2441 144.879 11.2587 144.944 11.2805C145.12 11.3397 145.297 11.3989 145.437 11.4702C145.711 11.609 145.899 12.0294 145.602 12.1063C145.394 12.1602 145.089 12.0837 144.886 12.0127C144.856 12.0022 144.826 11.9903 144.798 11.9772Z" fill="white"/>
<path d="M122.514 46.4651C123.557 45.4148 124.861 45.8087 125.382 47.3841C125.904 49.0909 125.513 51.454 124.339 52.5044C123.296 53.5547 121.992 53.0295 121.601 51.3228C121.079 49.7473 121.601 47.6467 122.514 46.4651Z" fill="url(#paint43_linear_182_7450)"/>
<path d="M123.425 46.7277C123.432 46.7209 123.438 46.7144 123.445 46.7081C123.836 46.3445 124.127 47.2981 123.882 47.7722C123.83 47.8711 123.764 47.9617 123.686 48.0406C123.425 48.3031 123.164 48.1718 123.164 47.778C123.164 47.3841 123.164 46.9902 123.425 46.7277Z" fill="white"/>
<path d="M118.471 32.4174C119.384 31.2358 120.297 31.3671 120.818 32.68C121.21 33.9928 120.818 35.9622 119.906 37.1438C119.107 38.0631 118.208 38.0771 117.821 37.1859C117.7 36.9074 117.622 36.6103 117.553 36.3147C117.256 35.0535 117.655 33.4733 118.471 32.4174Z" fill="url(#paint44_linear_182_7450)"/>
<path d="M119.124 32.4176C119.255 32.1551 119.516 32.1551 119.646 32.4176C119.776 32.6802 119.646 33.0741 119.516 33.3367C119.385 33.5992 119.124 33.5992 118.994 33.3367C118.864 33.0741 118.994 32.6802 119.124 32.4176Z" fill="white"/>
<path d="M125.253 33.205C126.296 31.8921 127.6 32.0234 128.252 33.4676C128.774 35.043 128.383 37.2749 127.209 38.5878C126.166 39.7694 124.862 39.5068 124.34 38.0627C123.819 36.4872 124.21 34.3866 125.253 33.205Z" fill="url(#paint45_linear_182_7450)"/>
<path d="M126.166 33.2052C126.427 32.9427 126.688 32.9427 126.818 33.2052C126.948 33.4678 126.818 33.993 126.557 34.2555C126.542 34.2711 126.526 34.2858 126.511 34.2995C126.111 34.6539 125.779 33.7991 126.058 33.3435C126.088 33.2947 126.123 33.2482 126.166 33.2052Z" fill="white"/>
<path d="M127.861 19.9446C128.905 18.5004 130.339 18.3692 130.861 19.5507C131.513 20.8636 130.991 23.0955 129.817 24.5397C128.644 25.9839 127.34 25.9839 126.818 24.671C126.427 23.4894 126.818 21.3888 127.861 19.9446Z" fill="url(#paint46_linear_182_7450)"/>
<path d="M128.642 20.1582C128.715 19.9247 128.906 19.635 129.148 19.6001C129.391 19.5653 129.504 19.8016 129.467 20.0433C129.443 20.1943 129.379 20.3606 129.286 20.5311C129.212 20.6685 129.08 20.8352 128.936 20.8968C128.599 21.0415 128.526 20.5397 128.633 20.1884C128.636 20.1783 128.639 20.1682 128.642 20.1582Z" fill="white"/>
<path d="M134.121 34.1237C135.425 32.6796 137.25 32.8108 138.033 34.5176C138.815 36.3556 138.294 38.9814 136.859 40.4256C135.425 41.8697 133.73 41.4759 132.947 39.6378C132.295 37.9311 132.817 35.4366 134.121 34.1237Z" fill="url(#paint47_linear_182_7450)"/>
<path d="M135.293 34.1239C135.554 33.8613 135.945 33.8613 136.075 34.2552C136.206 34.6491 136.075 35.1742 135.815 35.4368C135.554 35.6994 135.163 35.6994 135.032 35.3055C134.902 34.9116 135.032 34.3865 135.293 34.1239Z" fill="white"/>
<path d="M138.554 60.1192C139.728 58.2812 142.336 57.2309 144.422 57.756C146.378 58.1499 147.03 59.9879 145.856 61.6947C144.683 63.4014 142.205 64.4517 140.249 64.0579C138.163 63.5327 137.38 61.826 138.554 60.1192Z" fill="url(#paint48_linear_182_7450)"/>
<path d="M140.38 59.7886C140.22 59.4231 140.488 58.9776 140.853 58.8161C141.298 58.6187 142.055 58.7369 141.933 59.2089C141.913 59.2863 141.873 59.3709 141.813 59.4625C141.552 59.8564 141.03 59.9877 140.639 59.9877C140.523 59.9877 140.433 59.9098 140.38 59.7886Z" fill="white"/>
<path d="M162.548 50.1413C163.852 48.3032 166.329 47.2529 168.025 47.9094C169.72 48.4345 169.85 50.2725 168.546 52.1106C167.242 53.8173 164.895 54.8676 163.2 54.3425C161.505 53.8173 161.244 51.9793 162.548 50.1413Z" fill="url(#paint49_linear_182_7450)"/>
<path d="M164.244 49.3533C164.342 49.2045 164.478 49.0932 164.63 49.0123C165.107 48.7579 165.867 48.9866 165.679 49.4936C165.649 49.5763 165.604 49.6617 165.548 49.7471C165.494 49.829 165.428 49.8995 165.355 49.9598C164.823 50.3985 163.863 49.9283 164.244 49.3533Z" fill="white"/>
<g style="mix-blend-mode:multiply">
<path d="M131.253 43.7082C127.993 58.8063 119.256 69.5719 111.823 67.9965C104.391 66.421 101 52.8983 104.391 37.8002C107.651 22.7021 116.387 11.9364 123.82 13.5119C131.253 15.0873 134.644 28.61 131.253 43.7082Z" fill="url(#paint50_radial_182_7450)"/>
</g>
<g style="mix-blend-mode:multiply">
<path d="M94.2188 85.1953C60.8361 83.7512 34.1039 76.5303 34.3647 68.7843C34.6255 61.1696 62.0097 56.0493 95.262 57.4935C128.645 58.9377 155.377 66.1585 155.116 73.9045C154.725 81.5193 127.471 86.5082 94.2188 85.1953Z" fill="url(#paint51_radial_182_7450)"/>
</g>
<path d="M94.2174 8.78534C88.4797 7.20988 79.6125 8.26019 74.5268 11.4111L61.4867 19.1571C56.401 22.1767 53.4018 29.5289 54.8362 35.3056L58.6179 49.8785C60.0523 55.6552 65.5291 62.8761 70.7452 65.7644L83.6549 73.1166C88.8709 76.1362 96.5646 75.0859 100.868 70.8847L111.691 60.2503C115.994 56.0491 119.385 47.7779 119.254 41.7387L118.994 26.6405C118.863 20.6013 114.169 14.4307 108.431 12.724L94.2174 8.78534Z" fill="url(#paint52_radial_182_7450)"/>
<path d="M72.0496 64.7135C66.8336 61.8252 61.3567 54.6043 59.9223 48.8277L57.0535 37.6682C55.6191 31.8915 58.8791 29.0031 64.3559 31.3663L76.6137 36.6179C82.0905 38.981 87.3065 45.6767 88.089 51.5847L89.9146 65.1074C90.697 71.0154 87.1761 73.5098 81.9601 70.4902L72.0496 64.7135Z" fill="url(#paint53_radial_182_7450)"/>
<path d="M65.3988 28.6097C59.922 26.2465 59.6612 21.914 64.7468 18.7631L74.7877 12.8551C79.8734 9.83547 88.7406 8.65387 94.4783 10.2293L105.432 13.3802C111.17 14.9557 111.952 19.2882 107.258 22.9643L96.3039 31.3667C91.6095 35.0428 83.2638 36.0931 77.7869 33.7299L65.3988 28.6097Z" fill="url(#paint54_radial_182_7450)"/>
<path d="M90.827 51.0602C90.0446 45.1523 93.3046 37.275 97.9991 33.5989L108.953 25.0652C113.647 21.3891 117.559 23.3584 117.69 29.3977L117.82 41.0823C117.95 47.1216 114.43 55.3927 110.257 59.594L101.911 67.8651C97.6079 72.0663 93.435 70.6222 92.6526 64.7142L90.827 51.0602Z" fill="url(#paint55_radial_182_7450)"/>
<path d="M66.8326 23.8831C65.2678 23.0954 65.659 21.6512 67.2238 20.7322C68.6582 19.8132 70.7446 19.4193 72.3094 19.6819C74.1351 20.0758 74.6567 21.3887 73.3526 22.7015C71.7878 24.1457 68.6582 24.6709 66.8326 23.8831Z" fill="url(#paint56_linear_182_7450)"/>
<path d="M66.9625 22.702C66.7017 22.5707 66.7017 22.3081 67.0929 22.0455C67.405 21.836 67.7171 21.7101 68.0292 21.7344C68.1904 21.747 68.3589 21.7921 68.4324 21.9361C68.5989 22.2622 68.1049 22.5389 67.7568 22.6526C67.4275 22.7602 67.1368 22.7897 66.9625 22.702Z" fill="white"/>
<path d="M82.7388 21.6512C81.174 20.8635 81.5652 19.4193 83.13 18.5003C84.5645 17.5813 86.6509 17.1874 88.2157 17.45C90.0413 17.8438 90.5629 19.1567 89.2589 20.4696C87.5637 21.9138 84.434 22.5702 82.7388 21.6512Z" fill="url(#paint57_linear_182_7450)"/>
<path d="M82.7399 20.4691C82.4791 20.3378 82.4791 20.0752 82.8703 19.8126C83.1523 19.6233 83.4343 19.5023 83.7163 19.4986C83.9381 19.4958 84.192 19.5566 84.2343 19.7743C84.293 20.0763 83.9193 20.3068 83.6286 20.4074C83.2892 20.5249 82.9206 20.56 82.7399 20.4691Z" fill="white"/>
<path d="M98.6509 19.682C97.0861 18.8942 97.4773 17.4501 99.0421 16.531C100.477 15.612 102.563 15.2182 104.128 15.4807C105.953 15.8746 106.475 17.1875 105.171 18.5004C103.606 19.9445 100.477 20.601 98.6509 19.682Z" fill="url(#paint58_linear_182_7450)"/>
<path d="M99.0036 18.5517C98.7659 18.5543 98.4386 18.4556 98.4728 18.2204C98.4895 18.1057 98.5873 17.9748 98.7824 17.8439C99.0644 17.6546 99.3464 17.5335 99.6284 17.5299C99.8502 17.527 100.104 17.5879 100.146 17.8056C100.205 18.1076 99.8335 18.3411 99.5446 18.4468C99.3661 18.5121 99.1803 18.5498 99.0036 18.5517Z" fill="white"/>
<path d="M68.9171 49.6161C68.6563 47.5154 69.6995 46.2026 71.5251 46.859C73.6115 47.6467 75.4372 50.4038 75.3068 52.6357C75.3068 54.7363 73.7419 55.3927 71.9163 54.3424C70.4819 53.5547 69.1779 51.4541 68.9171 49.6161Z" fill="url(#paint59_linear_182_7450)"/>
<path d="M69.6997 48.8284C69.6997 48.4345 69.8301 48.1719 70.2213 48.3032C70.6125 48.4345 70.8733 48.9596 70.8733 49.3535C70.8733 49.7474 70.6125 50.0099 70.3517 49.8787C69.9605 49.6161 69.6997 49.2222 69.6997 48.8284Z" fill="white"/>
<path d="M98.1304 60.5128C97.7392 58.8061 98.652 56.1803 100.347 54.8674C101.912 53.5545 103.607 53.8171 103.998 55.6552C104.39 57.3619 103.477 59.8564 101.912 61.1693C100.217 62.4821 98.652 62.2196 98.1304 60.5128Z" fill="url(#paint60_linear_182_7450)"/>
<path d="M98.7842 58.6751C98.7048 58.4353 98.7705 58.1467 98.8929 57.8984C99.0387 57.6027 99.2992 57.3058 99.6289 57.3106C99.7772 57.3127 99.8868 57.4104 99.9578 57.6248C100.088 58.0187 99.8274 58.5439 99.5666 58.8064C99.3058 59.069 98.9146 59.069 98.7842 58.6751Z" fill="white"/>
<path d="M109.998 50.4033C109.607 48.6966 110.65 46.2021 112.085 45.0205C113.519 43.8389 114.954 44.2328 115.214 45.9395C115.475 47.6463 114.562 50.0094 113.128 51.191C111.694 52.5039 110.259 52.1101 109.998 50.4033Z" fill="url(#paint61_linear_182_7450)"/>
<path d="M110.918 48.9705C110.57 48.9714 110.559 48.5118 110.66 48.1789C110.685 48.0982 110.718 48.0207 110.757 47.9504C110.893 47.7065 111.196 47.4455 111.466 47.5149C111.734 47.5838 111.771 47.9211 111.701 48.1893C111.666 48.3285 111.595 48.4613 111.51 48.5813C111.386 48.7566 111.133 48.97 110.918 48.9705Z" fill="white"/>
<path d="M107.26 36.6181C106.869 34.6488 107.912 32.023 109.477 30.8414C111.041 29.6598 112.606 30.185 112.867 32.1543C113.128 34.1236 112.215 36.6181 110.65 37.7997C109.216 38.9813 107.651 38.4561 107.26 36.6181Z" fill="url(#paint62_linear_182_7450)"/>
<path d="M107.911 34.6485C107.78 34.2547 108.041 33.7295 108.302 33.4669C108.563 33.2044 108.954 33.3356 109.084 33.7295C109.164 33.9694 109.098 34.258 108.976 34.5062C108.83 34.8019 108.545 35.126 108.229 35.0342C108.086 34.9928 107.98 34.8577 107.911 34.6485Z" fill="white"/>
<path d="M94.611 46.5964C94.0894 44.627 95.1326 41.87 96.8279 40.5571C98.5231 39.2442 100.349 39.7694 100.74 41.7387C101.131 43.708 100.218 46.3338 98.5231 47.6467C96.9583 48.9595 95.1326 48.5657 94.611 46.5964Z" fill="url(#paint63_linear_182_7450)"/>
<path d="M95.9559 44.9974C95.4463 45.1568 95.2515 44.3135 95.5277 43.8565C95.6255 43.6946 95.76 43.5494 95.9149 43.4454C95.989 43.3957 96.0632 43.3601 96.1347 43.3377C96.6443 43.1783 96.8391 44.0216 96.5629 44.4786C96.4651 44.6405 96.3306 44.7856 96.1757 44.8896C96.1016 44.9394 96.0274 44.975 95.9559 44.9974Z" fill="white"/>
</g>
<defs>
<filter id="filter0_d_182_7450" x="0.472013" y="0.178943" width="227.868" height="163.538" filterUnits="userSpaceOnUse" color-interpolation-filters="sRGB">
<feFlood flood-opacity="0" result="BackgroundImageFix"/>
<feColorMatrix in="SourceAlpha" type="matrix" values="0 0 0 0 0 0 0 0 0 0 0 0 0 0 0 0 0 0 127 0" result="hardAlpha"/>
<feOffset dy="7.05068"/>
<feGaussianBlur stdDeviation="5.87557"/>
<feColorMatrix type="matrix" values="0 0 0 0 0 0 0 0 0 0 0 0 0 0 0 0 0 0 0.39 0"/>
<feBlend mode="normal" in2="BackgroundImageFix" result="effect1_dropShadow_182_7450"/>
<feBlend mode="normal" in="SourceGraphic" in2="effect1_dropShadow_182_7450" result="shape"/>
</filter>
<filter id="filter1_d_182_7450" x="12.2231" y="58.5874" width="204.366" height="88.0908" filterUnits="userSpaceOnUse" color-interpolation-filters="sRGB">
<feFlood flood-opacity="0" result="BackgroundImageFix"/>
<feColorMatrix in="SourceAlpha" type="matrix" values="0 0 0 0 0 0 0 0 0 0 0 0 0 0 0 0 0 0 127 0" result="hardAlpha"/>
<feOffset dy="1.76267"/>
<feColorMatrix type="matrix" values="0 0 0 0 0.700195 0 0 0 0 0.382064 0 0 0 0 0.122306 0 0 0 1 0"/>
<feBlend mode="normal" in2="BackgroundImageFix" result="effect1_dropShadow_182_7450"/>
<feBlend mode="normal" in="SourceGraphic" in2="effect1_dropShadow_182_7450" result="shape"/>
</filter>
<linearGradient id="paint0_linear_182_7450" x1="67.8456" y1="66.3045" x2="73.3161" y2="66.5597" gradientUnits="userSpaceOnUse">
<stop stop-color="#687075"/>
<stop offset="1" stop-color="#F5F7F6"/>
</linearGradient>
<linearGradient id="paint1_linear_182_7450" x1="69.3341" y1="65.7378" x2="73.7298" y2="65.7378" gradientUnits="userSpaceOnUse">
<stop stop-color="#C8141C"/>
<stop offset="1" stop-color="#FF5B62"/>
</linearGradient>
<linearGradient id="paint2_linear_182_7450" x1="65.3555" y1="73.1941" x2="71.0929" y2="73.4618" gradientUnits="userSpaceOnUse">
<stop stop-color="#687075"/>
<stop offset="1" stop-color="#F5F7F6"/>
</linearGradient>
<linearGradient id="paint3_linear_182_7450" x1="66.919" y1="72.5654" x2="71.5304" y2="72.5654" gradientUnits="userSpaceOnUse">
<stop stop-color="#C8141C"/>
<stop offset="1" stop-color="#FF5B62"/>
</linearGradient>
<linearGradient id="paint4_linear_182_7450" x1="83.0824" y1="66.3665" x2="88.5203" y2="66.6203" gradientUnits="userSpaceOnUse">
<stop stop-color="#687075"/>
<stop offset="1" stop-color="#F5F7F6"/>
</linearGradient>
<linearGradient id="paint5_linear_182_7450" x1="84.5634" y1="65.8011" x2="88.9279" y2="65.8011" gradientUnits="userSpaceOnUse">
<stop stop-color="#C8141C"/>
<stop offset="1" stop-color="#FF5B62"/>
</linearGradient>
<linearGradient id="paint6_linear_182_7450" x1="81.3265" y1="73.2544" x2="87.0267" y2="73.5203" gradientUnits="userSpaceOnUse">
<stop stop-color="#687075"/>
<stop offset="1" stop-color="#F5F7F6"/>
</linearGradient>
<linearGradient id="paint7_linear_182_7450" x1="82.8797" y1="72.6282" x2="87.4558" y2="72.6282" gradientUnits="userSpaceOnUse">
<stop stop-color="#C8141C"/>
<stop offset="1" stop-color="#FF5B62"/>
</linearGradient>
<linearGradient id="paint8_linear_182_7450" x1="52.717" y1="108.188" x2="59.8188" y2="108.52" gradientUnits="userSpaceOnUse">
<stop stop-color="#687075"/>
<stop offset="1" stop-color="#F5F7F6"/>
</linearGradient>
<linearGradient id="paint9_linear_182_7450" x1="54.6605" y1="107.197" x2="60.3775" y2="107.197" gradientUnits="userSpaceOnUse">
<stop stop-color="#0E51C2"/>
<stop offset="1" stop-color="#0FAAFD"/>
</linearGradient>
<linearGradient id="paint10_linear_182_7450" x1="48.5007" y1="119.869" x2="56.0617" y2="120.222" gradientUnits="userSpaceOnUse">
<stop stop-color="#687075"/>
<stop offset="1" stop-color="#F5F7F6"/>
</linearGradient>
<linearGradient id="paint11_linear_182_7450" x1="50.5728" y1="118.737" x2="56.663" y2="118.737" gradientUnits="userSpaceOnUse">
<stop stop-color="#0E51C2"/>
<stop offset="1" stop-color="#0FAAFD"/>
</linearGradient>
<linearGradient id="paint12_linear_182_7450" x1="72.414" y1="108.226" x2="79.4489" y2="108.555" gradientUnits="userSpaceOnUse">
<stop stop-color="#687075"/>
<stop offset="1" stop-color="#F5F7F6"/>
</linearGradient>
<linearGradient id="paint13_linear_182_7450" x1="74.3389" y1="107.238" x2="79.9929" y2="107.238" gradientUnits="userSpaceOnUse">
<stop stop-color="#0E51C2"/>
<stop offset="1" stop-color="#0FAAFD"/>
</linearGradient>
<linearGradient id="paint14_linear_182_7450" x1="69.442" y1="119.897" x2="76.9235" y2="120.246" gradientUnits="userSpaceOnUse">
<stop stop-color="#687075"/>
<stop offset="1" stop-color="#F5F7F6"/>
</linearGradient>
<linearGradient id="paint15_linear_182_7450" x1="71.4927" y1="118.769" x2="77.508" y2="118.769" gradientUnits="userSpaceOnUse">
<stop stop-color="#0E51C2"/>
<stop offset="1" stop-color="#0FAAFD"/>
</linearGradient>
<linearGradient id="paint16_linear_182_7450" x1="142.645" y1="66.6096" x2="148.06" y2="66.8623" gradientUnits="userSpaceOnUse">
<stop stop-color="#687075"/>
<stop offset="1" stop-color="#F5F7F6"/>
</linearGradient>
<linearGradient id="paint17_linear_182_7450" x1="144.116" y1="66.0509" x2="148.446" y2="66.0509" gradientUnits="userSpaceOnUse">
<stop stop-color="#056802"/>
<stop offset="1" stop-color="#11FA74"/>
</linearGradient>
<linearGradient id="paint18_linear_182_7450" x1="143.737" y1="73.4862" x2="149.412" y2="73.751" gradientUnits="userSpaceOnUse">
<stop stop-color="#687075"/>
<stop offset="1" stop-color="#F5F7F6"/>
</linearGradient>
<linearGradient id="paint19_linear_182_7450" x1="145.28" y1="72.8678" x2="149.818" y2="72.8678" gradientUnits="userSpaceOnUse">
<stop stop-color="#056802"/>
<stop offset="1" stop-color="#11FA74"/>
</linearGradient>
<linearGradient id="paint20_linear_182_7450" x1="157.73" y1="66.671" x2="163.166" y2="66.9246" gradientUnits="userSpaceOnUse">
<stop stop-color="#687075"/>
<stop offset="1" stop-color="#F5F7F6"/>
</linearGradient>
<linearGradient id="paint21_linear_182_7450" x1="159.205" y1="66.1142" x2="163.55" y2="66.1142" gradientUnits="userSpaceOnUse">
<stop stop-color="#056802"/>
<stop offset="1" stop-color="#11FA74"/>
</linearGradient>
<linearGradient id="paint22_linear_182_7450" x1="159.539" y1="73.5446" x2="165.239" y2="73.8105" gradientUnits="userSpaceOnUse">
<stop stop-color="#687075"/>
<stop offset="1" stop-color="#F5F7F6"/>
</linearGradient>
<linearGradient id="paint23_linear_182_7450" x1="161.087" y1="72.9282" x2="165.642" y2="72.9282" gradientUnits="userSpaceOnUse">
<stop stop-color="#056802"/>
<stop offset="1" stop-color="#11FA74"/>
</linearGradient>
<linearGradient id="paint24_linear_182_7450" x1="149.263" y1="108.372" x2="156.264" y2="108.699" gradientUnits="userSpaceOnUse">
<stop stop-color="#687075"/>
<stop offset="1" stop-color="#F5F7F6"/>
</linearGradient>
<linearGradient id="paint25_linear_182_7450" x1="151.175" y1="107.396" x2="156.769" y2="107.396" gradientUnits="userSpaceOnUse">
<stop stop-color="#E68401"/>
<stop offset="1" stop-color="#FBDF1A"/>
</linearGradient>
<linearGradient id="paint26_linear_182_7450" x1="151.1" y1="120.002" x2="158.544" y2="120.35" gradientUnits="userSpaceOnUse">
<stop stop-color="#687075"/>
<stop offset="1" stop-color="#F5F7F6"/>
</linearGradient>
<linearGradient id="paint27_linear_182_7450" x1="153.137" y1="118.89" x2="159.084" y2="118.89" gradientUnits="userSpaceOnUse">
<stop stop-color="#E68401"/>
<stop offset="1" stop-color="#FBDF1A"/>
</linearGradient>
<linearGradient id="paint28_linear_182_7450" x1="168.69" y1="108.408" x2="175.74" y2="108.737" gradientUnits="userSpaceOnUse">
<stop stop-color="#687075"/>
<stop offset="1" stop-color="#F5F7F6"/>
</linearGradient>
<linearGradient id="paint29_linear_182_7450" x1="170.615" y1="107.437" x2="176.241" y2="107.437" gradientUnits="userSpaceOnUse">
<stop stop-color="#E68401"/>
<stop offset="1" stop-color="#FBDF1A"/>
</linearGradient>
<linearGradient id="paint30_linear_182_7450" x1="171.73" y1="120.028" x2="179.236" y2="120.378" gradientUnits="userSpaceOnUse">
<stop stop-color="#687075"/>
<stop offset="1" stop-color="#F5F7F6"/>
</linearGradient>
<linearGradient id="paint31_linear_182_7450" x1="173.784" y1="118.92" x2="179.77" y2="118.92" gradientUnits="userSpaceOnUse">
<stop stop-color="#E68401"/>
<stop offset="1" stop-color="#FBDF1A"/>
</linearGradient>
<radialGradient id="paint32_radial_182_7450" cx="0" cy="0" r="1" gradientUnits="userSpaceOnUse" gradientTransform="translate(134.686 68.4643) rotate(92.3506) scale(13.8438 60.4211)">
<stop offset="0.0645161" stop-color="#56585A"/>
<stop offset="0.4409" stop-color="#BEC0C2"/>
<stop offset="0.5001" stop-color="#D0D2D3"/>
<stop offset="0.5902" stop-color="#E5E6E7"/>
<stop offset="0.6914" stop-color="#F4F4F4"/>
<stop offset="0.8116" stop-color="#FCFCFD"/>
<stop offset="1" stop-color="white"/>
</radialGradient>
<radialGradient id="paint33_radial_182_7450" cx="0" cy="0" r="1" gradientUnits="userSpaceOnUse" gradientTransform="translate(148.987 37.7733) rotate(37.4009) scale(70.3174 70.444)">
<stop stop-color="white"/>
<stop offset="0.28" stop-color="#E5E5E5"/>
<stop offset="0.4639" stop-color="#D1D1D1"/>
<stop offset="0.6229" stop-color="#CACACA"/>
<stop offset="0.8639" stop-color="#B5B5B5"/>
<stop offset="1" stop-color="#A6A6A6"/>
</radialGradient>
<radialGradient id="paint34_radial_182_7450" cx="0" cy="0" r="1" gradientUnits="userSpaceOnUse" gradientTransform="translate(72.6999 35.4958) rotate(37.4009) scale(70.3979 70.5247)">
<stop stop-color="white"/>
<stop offset="0.28" stop-color="#E5E5E5"/>
<stop offset="0.4639" stop-color="#D1D1D1"/>
<stop offset="0.6229" stop-color="#CACACA"/>
<stop offset="0.8639" stop-color="#B5B5B5"/>
<stop offset="1" stop-color="#A6A6A6"/>
</radialGradient>
<radialGradient id="paint35_radial_182_7450" cx="0" cy="0" r="1" gradientUnits="userSpaceOnUse" gradientTransform="translate(164.771 11.8419) rotate(37.4009) scale(139.7 139.951)">
<stop stop-color="white"/>
<stop offset="0.28" stop-color="#E5E5E5"/>
<stop offset="0.4639" stop-color="#D1D1D1"/>
<stop offset="0.6229" stop-color="#CACACA"/>
<stop offset="0.8639" stop-color="#B5B5B5"/>
<stop offset="1" stop-color="#A6A6A6"/>
</radialGradient>
<radialGradient id="paint36_radial_182_7450" cx="0" cy="0" r="1" gradientUnits="userSpaceOnUse" gradientTransform="translate(156.154 70.8041) rotate(37.4009) scale(46.9669 47.0514)">
<stop stop-color="white"/>
<stop offset="0.28" stop-color="#E5E5E5"/>
<stop offset="0.4639" stop-color="#D1D1D1"/>
<stop offset="0.6229" stop-color="#CACACA"/>
<stop offset="0.8639" stop-color="#B5B5B5"/>
<stop offset="1" stop-color="#A6A6A6"/>
</radialGradient>
<linearGradient id="paint37_linear_182_7450" x1="183.502" y1="16.0096" x2="155.7" y2="42.8466" gradientUnits="userSpaceOnUse">
<stop stop-color="#A6A6A6"/>
<stop offset="0.2455" stop-color="#6F6F6F"/>
<stop offset="0.491" stop-color="#3F3F3F"/>
<stop offset="0.7066" stop-color="#1D1D1D"/>
<stop offset="0.8837" stop-color="#080808"/>
<stop offset="1"/>
</linearGradient>
<linearGradient id="paint38_linear_182_7450" x1="176.139" y1="8.388" x2="148.342" y2="35.2195" gradientUnits="userSpaceOnUse">
<stop stop-color="#A6A6A6"/>
<stop offset="0.2455" stop-color="#6F6F6F"/>
<stop offset="0.491" stop-color="#3F3F3F"/>
<stop offset="0.7066" stop-color="#1D1D1D"/>
<stop offset="0.8837" stop-color="#080808"/>
<stop offset="1"/>
</linearGradient>
<linearGradient id="paint39_linear_182_7450" x1="176.84" y1="9.12627" x2="149.055" y2="35.9456" gradientUnits="userSpaceOnUse">
<stop stop-color="#A6A6A6"/>
<stop offset="0.2455" stop-color="#6F6F6F"/>
<stop offset="0.491" stop-color="#3F3F3F"/>
<stop offset="0.7066" stop-color="#1D1D1D"/>
<stop offset="0.8837" stop-color="#080808"/>
<stop offset="1"/>
</linearGradient>
<linearGradient id="paint40_linear_182_7450" x1="169.396" y1="1.39433" x2="141.593" y2="28.2326" gradientUnits="userSpaceOnUse">
<stop stop-color="#A6A6A6"/>
<stop offset="0.2455" stop-color="#6F6F6F"/>
<stop offset="0.491" stop-color="#3F3F3F"/>
<stop offset="0.7066" stop-color="#1D1D1D"/>
<stop offset="0.8837" stop-color="#080808"/>
<stop offset="1"/>
</linearGradient>
<linearGradient id="paint41_linear_182_7450" x1="171.429" y1="3.50515" x2="143.629" y2="30.3405" gradientUnits="userSpaceOnUse">
<stop stop-color="#A6A6A6"/>
<stop offset="0.2455" stop-color="#6F6F6F"/>
<stop offset="0.491" stop-color="#3F3F3F"/>
<stop offset="0.7066" stop-color="#1D1D1D"/>
<stop offset="0.8837" stop-color="#080808"/>
<stop offset="1"/>
</linearGradient>
<linearGradient id="paint42_linear_182_7450" x1="164.059" y1="-4.12791" x2="136.259" y2="22.707" gradientUnits="userSpaceOnUse">
<stop stop-color="#A6A6A6"/>
<stop offset="0.2455" stop-color="#6F6F6F"/>
<stop offset="0.491" stop-color="#3F3F3F"/>
<stop offset="0.7066" stop-color="#1D1D1D"/>
<stop offset="0.8837" stop-color="#080808"/>
<stop offset="1"/>
</linearGradient>
<linearGradient id="paint43_linear_182_7450" x1="90.1756" y1="49.6856" x2="147.918" y2="49.2996" gradientUnits="userSpaceOnUse">
<stop stop-color="#A6A6A6"/>
<stop offset="0.2455" stop-color="#6F6F6F"/>
<stop offset="0.491" stop-color="#3F3F3F"/>
<stop offset="0.7066" stop-color="#1D1D1D"/>
<stop offset="0.8837" stop-color="#080808"/>
<stop offset="1"/>
</linearGradient>
<linearGradient id="paint44_linear_182_7450" x1="90.0705" y1="34.8879" x2="147.823" y2="34.5017" gradientUnits="userSpaceOnUse">
<stop stop-color="#A6A6A6"/>
<stop offset="0.2455" stop-color="#6F6F6F"/>
<stop offset="0.491" stop-color="#3F3F3F"/>
<stop offset="0.7066" stop-color="#1D1D1D"/>
<stop offset="0.8837" stop-color="#080808"/>
<stop offset="1"/>
</linearGradient>
<linearGradient id="paint45_linear_182_7450" x1="90.0787" y1="35.9828" x2="147.831" y2="35.5967" gradientUnits="userSpaceOnUse">
<stop stop-color="#A6A6A6"/>
<stop offset="0.2455" stop-color="#6F6F6F"/>
<stop offset="0.491" stop-color="#3F3F3F"/>
<stop offset="0.7066" stop-color="#1D1D1D"/>
<stop offset="0.8837" stop-color="#080808"/>
<stop offset="1"/>
</linearGradient>
<linearGradient id="paint46_linear_182_7450" x1="89.987" y1="22.4582" x2="147.742" y2="22.072" gradientUnits="userSpaceOnUse">
<stop stop-color="#A6A6A6"/>
<stop offset="0.2455" stop-color="#6F6F6F"/>
<stop offset="0.491" stop-color="#3F3F3F"/>
<stop offset="0.7066" stop-color="#1D1D1D"/>
<stop offset="0.8837" stop-color="#080808"/>
<stop offset="1"/>
</linearGradient>
<linearGradient id="paint47_linear_182_7450" x1="90.095" y1="37.4174" x2="147.839" y2="37.0314" gradientUnits="userSpaceOnUse">
<stop stop-color="#A6A6A6"/>
<stop offset="0.2455" stop-color="#6F6F6F"/>
<stop offset="0.491" stop-color="#3F3F3F"/>
<stop offset="0.7066" stop-color="#1D1D1D"/>
<stop offset="0.8837" stop-color="#080808"/>
<stop offset="1"/>
</linearGradient>
<linearGradient id="paint48_linear_182_7450" x1="152.915" y1="89.8389" x2="134.756" y2="41.159" gradientUnits="userSpaceOnUse">
<stop stop-color="#A6A6A6"/>
<stop offset="0.2455" stop-color="#6F6F6F"/>
<stop offset="0.491" stop-color="#3F3F3F"/>
<stop offset="0.7066" stop-color="#1D1D1D"/>
<stop offset="0.8837" stop-color="#080808"/>
<stop offset="1"/>
</linearGradient>
<linearGradient id="paint49_linear_182_7450" x1="176.606" y1="81.006" x2="158.444" y2="32.3179" gradientUnits="userSpaceOnUse">
<stop stop-color="#A6A6A6"/>
<stop offset="0.2455" stop-color="#6F6F6F"/>
<stop offset="0.491" stop-color="#3F3F3F"/>
<stop offset="0.7066" stop-color="#1D1D1D"/>
<stop offset="0.8837" stop-color="#080808"/>
<stop offset="1"/>
</linearGradient>
<radialGradient id="paint50_radial_182_7450" cx="0" cy="0" r="1" gradientUnits="userSpaceOnUse" gradientTransform="translate(117.879 40.7365) rotate(12.4639) scale(13.7537 27.8659)">
<stop offset="0.0645161" stop-color="#56585A"/>
<stop offset="0.4409" stop-color="#BEC0C2"/>
<stop offset="0.5001" stop-color="#D0D2D3"/>
<stop offset="0.5902" stop-color="#E5E6E7"/>
<stop offset="0.6914" stop-color="#F4F4F4"/>
<stop offset="0.8116" stop-color="#FCFCFD"/>
<stop offset="1" stop-color="white"/>
</radialGradient>
<radialGradient id="paint51_radial_182_7450" cx="0" cy="0" r="1" gradientUnits="userSpaceOnUse" gradientTransform="translate(94.7333 71.355) rotate(92.3506) scale(13.8435 60.4197)">
<stop offset="0.0645161" stop-color="#56585A"/>
<stop offset="0.4409" stop-color="#BEC0C2"/>
<stop offset="0.5001" stop-color="#D0D2D3"/>
<stop offset="0.5902" stop-color="#E5E6E7"/>
<stop offset="0.6914" stop-color="#F4F4F4"/>
<stop offset="0.8116" stop-color="#FCFCFD"/>
<stop offset="1" stop-color="white"/>
</radialGradient>
<radialGradient id="paint52_radial_182_7450" cx="0" cy="0" r="1" gradientUnits="userSpaceOnUse" gradientTransform="translate(88.1356 35.3396) rotate(-7.53708) scale(79.6739 80.1972)">
<stop stop-color="white"/>
<stop offset="0.28" stop-color="#E5E5E5"/>
<stop offset="0.4639" stop-color="#D1D1D1"/>
<stop offset="0.6229" stop-color="#CACACA"/>
<stop offset="0.8639" stop-color="#B5B5B5"/>
<stop offset="1" stop-color="#A6A6A6"/>
</radialGradient>
<radialGradient id="paint53_radial_182_7450" cx="0" cy="0" r="1" gradientUnits="userSpaceOnUse" gradientTransform="translate(41.0154 86.5935) rotate(-7.53708) scale(65.889 66.3218)">
<stop stop-color="white"/>
<stop offset="0.28" stop-color="#E5E5E5"/>
<stop offset="0.4639" stop-color="#D1D1D1"/>
<stop offset="0.6229" stop-color="#CACACA"/>
<stop offset="0.8639" stop-color="#B5B5B5"/>
<stop offset="1" stop-color="#A6A6A6"/>
</radialGradient>
<radialGradient id="paint54_radial_182_7450" cx="0" cy="0" r="1" gradientUnits="userSpaceOnUse" gradientTransform="translate(83.8208 6.14963) rotate(-7.53708) scale(107.724 108.432)">
<stop stop-color="white"/>
<stop offset="0.28" stop-color="#E5E5E5"/>
<stop offset="0.4639" stop-color="#D1D1D1"/>
<stop offset="0.6229" stop-color="#CACACA"/>
<stop offset="0.8639" stop-color="#B5B5B5"/>
<stop offset="1" stop-color="#A6A6A6"/>
</radialGradient>
<radialGradient id="paint55_radial_182_7450" cx="0" cy="0" r="1" gradientUnits="userSpaceOnUse" gradientTransform="translate(125.298 60.6897) rotate(-7.53708) scale(69.9453 70.4048)">
<stop stop-color="white"/>
<stop offset="0.28" stop-color="#E5E5E5"/>
<stop offset="0.4639" stop-color="#D1D1D1"/>
<stop offset="0.6229" stop-color="#CACACA"/>
<stop offset="0.8639" stop-color="#B5B5B5"/>
<stop offset="1" stop-color="#A6A6A6"/>
</radialGradient>
<linearGradient id="paint56_linear_182_7450" x1="70.6493" y1="1.76461" x2="69.7839" y2="27.4804" gradientUnits="userSpaceOnUse">
<stop stop-color="#A6A6A6"/>
<stop offset="0.2455" stop-color="#6F6F6F"/>
<stop offset="0.491" stop-color="#3F3F3F"/>
<stop offset="0.7066" stop-color="#1D1D1D"/>
<stop offset="0.8837" stop-color="#080808"/>
<stop offset="1"/>
</linearGradient>
<linearGradient id="paint57_linear_182_7450" x1="86.3997" y1="2.29226" x2="85.5342" y2="28.0106" gradientUnits="userSpaceOnUse">
<stop stop-color="#A6A6A6"/>
<stop offset="0.2455" stop-color="#6F6F6F"/>
<stop offset="0.491" stop-color="#3F3F3F"/>
<stop offset="0.7066" stop-color="#1D1D1D"/>
<stop offset="0.8837" stop-color="#080808"/>
<stop offset="1"/>
</linearGradient>
<linearGradient id="paint58_linear_182_7450" x1="102.274" y1="2.82801" x2="101.408" y2="28.5431" gradientUnits="userSpaceOnUse">
<stop stop-color="#A6A6A6"/>
<stop offset="0.2455" stop-color="#6F6F6F"/>
<stop offset="0.491" stop-color="#3F3F3F"/>
<stop offset="0.7066" stop-color="#1D1D1D"/>
<stop offset="0.8837" stop-color="#080808"/>
<stop offset="1"/>
</linearGradient>
<linearGradient id="paint59_linear_182_7450" x1="58.2455" y1="67.2164" x2="78.5552" y2="43.6578" gradientUnits="userSpaceOnUse">
<stop stop-color="#A6A6A6"/>
<stop offset="0.2455" stop-color="#6F6F6F"/>
<stop offset="0.491" stop-color="#3F3F3F"/>
<stop offset="0.7066" stop-color="#1D1D1D"/>
<stop offset="0.8837" stop-color="#080808"/>
<stop offset="1"/>
</linearGradient>
<linearGradient id="paint60_linear_182_7450" x1="133.353" y1="74.3964" x2="78.5529" y2="46.9932" gradientUnits="userSpaceOnUse">
<stop stop-color="#A6A6A6"/>
<stop offset="0.2455" stop-color="#6F6F6F"/>
<stop offset="0.491" stop-color="#3F3F3F"/>
<stop offset="0.7066" stop-color="#1D1D1D"/>
<stop offset="0.8837" stop-color="#080808"/>
<stop offset="1"/>
</linearGradient>
<linearGradient id="paint61_linear_182_7450" x1="139.633" y1="61.8244" x2="84.8467" y2="34.428" gradientUnits="userSpaceOnUse">
<stop stop-color="#A6A6A6"/>
<stop offset="0.2455" stop-color="#6F6F6F"/>
<stop offset="0.491" stop-color="#3F3F3F"/>
<stop offset="0.7066" stop-color="#1D1D1D"/>
<stop offset="0.8837" stop-color="#080808"/>
<stop offset="1"/>
</linearGradient>
<linearGradient id="paint62_linear_182_7450" x1="144.65" y1="51.797" x2="89.8572" y2="24.3975" gradientUnits="userSpaceOnUse">
<stop stop-color="#A6A6A6"/>
<stop offset="0.2455" stop-color="#6F6F6F"/>
<stop offset="0.491" stop-color="#3F3F3F"/>
<stop offset="0.7066" stop-color="#1D1D1D"/>
<stop offset="0.8837" stop-color="#080808"/>
<stop offset="1"/>
</linearGradient>
<linearGradient id="paint63_linear_182_7450" x1="138.236" y1="64.6258" x2="83.4423" y2="37.2254" gradientUnits="userSpaceOnUse">
<stop stop-color="#A6A6A6"/>
<stop offset="0.2455" stop-color="#6F6F6F"/>
<stop offset="0.491" stop-color="#3F3F3F"/>
<stop offset="0.7066" stop-color="#1D1D1D"/>
<stop offset="0.8837" stop-color="#080808"/>
<stop offset="1"/>
</linearGradient>
<clipPath id="clip0_182_7450">
<rect x="12.2231" y="58.5874" width="204.366" height="86.3281" rx="5" fill="white"/>
</clipPath>
</defs>
</svg>
