<svg width="43" height="43" viewBox="0 0 43 43" fill="none" xmlns="http://www.w3.org/2000/svg">
<circle cx="21.0754" cy="21.6506" r="21.0754" fill="#FFF5DA"/>
<path d="M12.4285 29.8471C11.8899 29.8471 11.4403 29.6668 11.0797 29.3061C10.7183 28.9447 10.5376 28.4947 10.5376 27.9561V15.346C10.5376 14.8074 10.7183 14.3578 11.0797 13.9972C11.4403 13.6358 11.8899 13.4551 12.4285 13.4551H29.7221C30.2607 13.4551 30.7103 13.6358 31.0709 13.9972C31.4323 14.3578 31.613 14.8074 31.613 15.346V27.9561C31.613 28.4947 31.4327 28.9443 31.0721 29.305C30.7107 29.6664 30.2607 29.8471 29.7221 29.8471H12.4285ZM21.0753 21.7857L30.4422 15.6621L30.0815 14.6259L21.0753 20.4802L12.0691 14.6259L11.7085 15.6621L21.0753 21.7857Z" fill="#38B6FF"/>
</svg>
