<svg width="50" height="50" viewBox="0 0 50 50" fill="none" xmlns="http://www.w3.org/2000/svg">
<path d="M50 17.1875H45.3125V7.8125C45.3125 6.09375 43.9062 4.6875 42.1875 4.6875H20.3125C18.5938 4.6875 17.1875 6.09375 17.1875 7.8125V14.0625H20.3125V7.8125H42.1875V29.6875H20.3125V23.4375H17.1875V29.6875C17.1875 31.4062 18.5938 32.8125 20.3125 32.8125H42.1875C43.9062 32.8125 45.3125 31.4062 45.3125 29.6875V20.3125H50V17.1875Z" fill="white"/>
<path d="M32.8125 26.5625V20.3125C32.8125 18.5938 31.4062 17.1875 29.6875 17.1875H7.8125C6.09375 17.1875 4.6875 18.5938 4.6875 20.3125V29.6875H0V32.8125H4.6875V42.1875C4.6875 43.9062 6.09375 45.3125 7.8125 45.3125H29.6875C31.4062 45.3125 32.8125 43.9062 32.8125 42.1875V35.9375H29.6875V42.1875H7.8125V20.3125H29.6875V26.5625H32.8125Z" fill="white"/>
</svg>
