<svg width="50" height="50" viewBox="0 0 50 50" fill="none" xmlns="http://www.w3.org/2000/svg">
<path d="M45.3125 12.8906H40.2344V10.9375C40.2344 10.2123 39.9463 9.5168 39.4335 9.00401C38.9207 8.49121 38.2252 8.20313 37.5 8.20312H12.5C11.7748 8.20313 11.0793 8.49121 10.5665 9.00401C10.0537 9.5168 9.76562 10.2123 9.76562 10.9375V12.8906H4.6875C3.9623 12.8906 3.2668 13.1787 2.754 13.6915C2.24121 14.2043 1.95313 14.8998 1.95312 15.625V18.75C1.95313 20.7184 2.73507 22.6062 4.12694 23.9981C5.51881 25.3899 7.4066 26.1719 9.375 26.1719H10.3789C11.2515 29.1369 13.0053 31.7663 15.4074 33.7111C17.8096 35.6559 20.7465 36.8241 23.8281 37.0605V42.5781H18.75C18.4392 42.5781 18.1411 42.7016 17.9214 42.9214C17.7016 43.1411 17.5781 43.4392 17.5781 43.75C17.5781 44.0608 17.7016 44.3589 17.9214 44.5786C18.1411 44.7984 18.4392 44.9219 18.75 44.9219H31.25C31.5608 44.9219 31.8589 44.7984 32.0786 44.5786C32.2984 44.3589 32.4219 44.0608 32.4219 43.75C32.4219 43.4392 32.2984 43.1411 32.0786 42.9214C31.8589 42.7016 31.5608 42.5781 31.25 42.5781H26.1719V37.0605C32.5078 36.5684 37.7793 32.1191 39.5742 26.1719H40.625C42.5934 26.1719 44.4812 25.3899 45.8731 23.9981C47.2649 22.6062 48.0469 20.7184 48.0469 18.75V15.625C48.0469 14.8998 47.7588 14.2043 47.246 13.6915C46.7332 13.1787 46.0377 12.8906 45.3125 12.8906ZM9.375 23.8281C8.0282 23.8281 6.73656 23.2931 5.78422 22.3408C4.83189 21.3884 4.29688 20.0968 4.29688 18.75V15.625C4.29688 15.5214 4.33803 15.422 4.41129 15.3488C4.48454 15.2755 4.5839 15.2344 4.6875 15.2344H9.76562V21.875C9.76753 22.528 9.80993 23.1803 9.89258 23.8281H9.375ZM25.0977 34.7656C23.3966 34.7785 21.7099 34.4546 20.1346 33.8126C18.5594 33.1705 17.1268 32.223 15.9194 31.0247C14.712 29.8265 13.7538 28.4011 13.0999 26.8307C12.446 25.2603 12.1093 23.5761 12.1094 21.875V10.9375C12.1094 10.8339 12.1505 10.7345 12.2238 10.6613C12.297 10.588 12.3964 10.5469 12.5 10.5469H37.5C37.6036 10.5469 37.703 10.588 37.7762 10.6613C37.8495 10.7345 37.8906 10.8339 37.8906 10.9375V21.6992C37.8906 28.8516 32.1523 34.7129 25.0977 34.7656ZM45.7031 18.75C45.7031 20.0968 45.1681 21.3884 44.2158 22.3408C43.2634 23.2931 41.9718 23.8281 40.625 23.8281H40.084C40.1835 23.1228 40.2338 22.4115 40.2344 21.6992V15.2344H45.3125C45.4161 15.2344 45.5155 15.2755 45.5887 15.3488C45.662 15.422 45.7031 15.5214 45.7031 15.625V18.75Z" fill="white"/>
</svg>
