<svg width="12" height="20" viewBox="0 0 12 20" fill="none" xmlns="http://www.w3.org/2000/svg">
<path d="M0.939185 19.5462C0.657978 19.2649 0.500005 18.8834 0.500005 18.4857C0.500005 18.0879 0.657978 17.7065 0.939185 17.4252L8.36418 10.0002L0.939185 2.57517C0.665948 2.29227 0.514756 1.91336 0.518174 1.52007C0.521591 1.12677 0.679344 0.750555 0.957457 0.472442C1.23557 0.19433 1.61179 0.036579 2.00508 0.033161C2.39838 0.0297431 2.77728 0.180935 3.06018 0.454172L11.5457 8.93967C11.8269 9.22096 11.9849 9.60243 11.9849 10.0002C11.9849 10.3979 11.8269 10.7794 11.5457 11.0607L3.06018 19.5462C2.77889 19.8274 2.39743 19.9854 1.99968 19.9854C1.60194 19.9854 1.22048 19.8274 0.939185 19.5462Z" fill="#F2A60C"/>
</svg>
