<svg width="112" height="112" viewBox="0 0 112 112" fill="none" xmlns="http://www.w3.org/2000/svg">
<g clip-path="url(#clip0_638_1091)">
<path d="M56 0C41.1512 0 26.8975 5.90363 16.4062 16.4019C5.90417 26.9043 0.00290911 41.1476 0 56C0 70.8461 5.90625 85.0999 16.4062 95.5981C26.8975 106.096 41.1512 112 56 112C70.8487 112 85.1025 106.096 95.5938 95.5981C106.094 85.0999 112 70.8461 112 56C112 41.1539 106.094 26.9001 95.5938 16.4019C85.1025 5.90363 70.8487 0 56 0Z" fill="url(#paint0_linear_638_1091)"/>
<path d="M25.3489 55.4082C41.6764 48.2962 52.5614 43.6071 58.0039 41.3417C73.5614 34.8728 76.7902 33.7493 78.8989 33.7113C79.3627 33.7038 80.3952 33.8185 81.0689 34.3631C81.6289 34.8225 81.7864 35.4438 81.8652 35.88C81.9352 36.3157 82.0314 37.3088 81.9527 38.0841C81.1127 46.9391 77.4639 68.4273 75.6089 78.3455C74.8302 82.542 73.2814 83.949 71.7852 84.0863C68.5302 84.3856 66.0627 81.9373 62.9127 79.8732C57.9864 76.6418 55.2039 74.6311 50.4177 71.4785C44.8877 67.835 48.4752 65.8321 51.6252 62.5596C52.4477 61.703 66.7802 48.6698 67.0514 47.4877C67.0864 47.3398 67.1214 46.7886 66.7889 46.4981C66.4652 46.2067 65.9839 46.3065 65.6339 46.3852C65.1352 46.4972 57.2689 51.7017 42.0089 61.9978C39.7777 63.5326 37.7564 64.2807 35.9364 64.2413C33.9414 64.1985 30.0914 63.1108 27.2302 62.1816C23.7302 61.0415 20.9389 60.4386 21.1839 58.5022C21.3064 57.4942 22.6977 56.4626 25.3489 55.4082Z" fill="white"/>
</g>
<defs>
<linearGradient id="paint0_linear_638_1091" x1="5600" y1="0" x2="5600" y2="11200" gradientUnits="userSpaceOnUse">
<stop stop-color="#2AABEE"/>
<stop offset="1" stop-color="#229ED9"/>
</linearGradient>
<clipPath id="clip0_638_1091">
<rect width="112" height="112" fill="white"/>
</clipPath>
</defs>
</svg>
