<svg width="513" height="292" viewBox="0 0 513 292" fill="none" xmlns="http://www.w3.org/2000/svg">
<g clip-path="url(#clip0_59_2948)">
<rect width="513" height="291.234" fill="white"/>
<rect width="513" height="256.055" fill="black" fill-opacity="0.8"/>
<rect y="256.055" width="513" height="35.1797" fill="#121212"/>
<rect width="513" height="1.78125" transform="matrix(1 0 0 -1 0 256.055)" fill="#565656"/>
<rect width="365.602" height="1.78125" transform="matrix(1 0 0 -1 0 256.055)" fill="#8B8B8B"/>
<rect width="79.2656" height="1.78125" transform="matrix(1 0 0 -1 0 256.055)" fill="#FF0000"/>
<path d="M272.499 128.006L272.743 127.865L272.499 127.724L246.937 112.966L246.694 112.826L246.694 113.107L246.694 142.623L246.694 142.904L246.937 142.764L272.499 128.006Z" fill="#777777" stroke="#DCDCDC" stroke-width="0.324595"/>
<path d="M20.4844 273.645L12.1348 278.465L12.1348 268.824L20.4844 273.645Z" fill="white"/>
<path d="M34.7822 273.713L43.1256 278.53L43.1256 268.896L34.7822 273.713Z" fill="white"/>
<line x1="34.9092" y1="268.787" x2="34.9092" y2="278.958" stroke="white" stroke-width="0.890625"/>
<path d="M68.7881 273.713L60.4447 278.53L60.4447 268.896L68.7881 273.713Z" fill="white"/>
<line y1="-0.445312" x2="10.171" y2="-0.445312" transform="matrix(-4.37114e-08 1 1 4.37114e-08 69.1064 268.787)" stroke="white" stroke-width="0.890625"/>
<g clip-path="url(#clip1_59_2948)">
<path d="M84.3867 271.863V275.871H87.0586L90.3984 279.211V268.523L87.0586 271.863H84.3867ZM93.4043 273.867C93.4043 272.685 92.723 271.669 91.7344 271.175V276.552C92.723 276.064 93.4043 275.049 93.4043 273.867ZM91.7344 268.009V269.385C93.6648 269.959 95.0742 271.749 95.0742 273.867C95.0742 275.984 93.6648 277.774 91.7344 278.349V279.725C94.4129 279.117 96.4102 276.726 96.4102 273.867C96.4102 271.008 94.4129 268.617 91.7344 268.009Z" fill="white"/>
</g>
<rect width="44.5312" height="0.890625" transform="matrix(1 0 0 -1 99.75 274.313)" fill="#8B8B8B"/>
<rect width="36.5156" height="0.890625" transform="matrix(1 0 0 -1 99.75 274.313)" fill="#FF0000"/>
<path d="M382.897 276.28C382.419 276.28 381.994 276.199 381.622 276.035C381.252 275.871 380.96 275.643 380.745 275.351C380.53 275.058 380.416 274.721 380.403 274.338H381.651C381.663 274.522 381.723 274.682 381.834 274.819C381.945 274.954 382.092 275.06 382.276 275.135C382.46 275.21 382.665 275.248 382.893 275.248C383.137 275.248 383.353 275.206 383.541 275.122C383.729 275.035 383.876 274.916 383.983 274.763C384.089 274.61 384.141 274.434 384.139 274.235C384.141 274.029 384.088 273.847 383.979 273.69C383.871 273.533 383.714 273.41 383.508 273.322C383.304 273.233 383.058 273.189 382.771 273.189H382.17V272.239H382.771C383.007 272.239 383.214 272.198 383.392 272.116C383.571 272.034 383.712 271.919 383.813 271.771C383.915 271.62 383.965 271.446 383.963 271.249C383.965 271.057 383.922 270.89 383.833 270.748C383.747 270.604 383.624 270.492 383.465 270.413C383.307 270.333 383.123 270.293 382.91 270.293C382.702 270.293 382.509 270.331 382.332 270.406C382.155 270.481 382.012 270.589 381.904 270.728C381.795 270.865 381.738 271.029 381.731 271.219H380.546C380.554 270.839 380.664 270.504 380.874 270.217C381.087 269.927 381.37 269.701 381.725 269.539C382.079 269.375 382.476 269.293 382.917 269.293C383.371 269.293 383.765 269.379 384.099 269.549C384.435 269.717 384.696 269.944 384.879 270.23C385.063 270.515 385.155 270.831 385.155 271.176C385.157 271.559 385.044 271.88 384.816 272.139C384.59 272.398 384.294 272.568 383.926 272.647V272.701C384.404 272.767 384.771 272.944 385.025 273.232C385.282 273.518 385.41 273.873 385.407 274.298C385.407 274.679 385.299 275.02 385.082 275.321C384.867 275.62 384.571 275.854 384.192 276.025C383.816 276.195 383.384 276.28 382.897 276.28ZM387.301 275.371C387.1 275.371 386.927 275.3 386.783 275.158C386.639 275.014 386.568 274.841 386.571 274.64C386.568 274.441 386.639 274.27 386.783 274.129C386.927 273.987 387.1 273.916 387.301 273.916C387.496 273.916 387.665 273.987 387.809 274.129C387.955 274.27 388.029 274.441 388.032 274.64C388.029 274.775 387.994 274.898 387.925 275.009C387.859 275.119 387.77 275.208 387.66 275.274C387.551 275.338 387.432 275.371 387.301 275.371ZM387.301 272C387.1 272 386.927 271.929 386.783 271.787C386.639 271.643 386.568 271.471 386.571 271.269C386.568 271.07 386.639 270.9 386.783 270.758C386.927 270.614 387.1 270.542 387.301 270.542C387.496 270.542 387.665 270.614 387.809 270.758C387.955 270.9 388.029 271.07 388.032 271.269C388.029 271.402 387.994 271.524 387.925 271.635C387.859 271.745 387.77 271.834 387.66 271.9C387.551 271.967 387.432 272 387.301 272ZM389.137 274.926V273.946L392.023 269.386H392.839V270.781H392.341L390.399 273.86V273.913H394.427V274.926H389.137ZM392.381 276.188V274.627L392.394 274.188V269.386H393.557V276.188H392.381ZM397.852 276.28C397.41 276.28 397.013 276.197 396.663 276.031C396.314 275.863 396.036 275.633 395.83 275.341C395.626 275.048 395.518 274.714 395.504 274.338H396.7C396.722 274.617 396.843 274.845 397.062 275.022C397.281 275.197 397.545 275.284 397.852 275.284C398.094 275.284 398.308 275.229 398.497 275.118C398.685 275.007 398.833 274.854 398.942 274.657C399.05 274.46 399.103 274.235 399.101 273.982C399.103 273.726 399.049 273.498 398.938 273.298C398.828 273.099 398.676 272.943 398.483 272.83C398.291 272.715 398.069 272.657 397.819 272.657C397.615 272.655 397.415 272.693 397.218 272.77C397.021 272.848 396.865 272.95 396.75 273.076L395.637 272.893L395.993 269.386H399.938V270.416H397.012L396.816 272.219H396.856C396.982 272.071 397.16 271.948 397.391 271.85C397.621 271.751 397.873 271.701 398.148 271.701C398.56 271.701 398.927 271.798 399.25 271.993C399.574 272.186 399.828 272.452 400.014 272.79C400.2 273.129 400.293 273.516 400.293 273.953C400.293 274.402 400.189 274.803 399.981 275.155C399.775 275.505 399.488 275.78 399.121 275.982C398.756 276.181 398.333 276.28 397.852 276.28ZM406.515 269.068L404.323 277.21H403.27L405.462 269.068H406.515ZM412.355 269.386V276.188H411.123V270.585H411.083L409.492 271.601V270.472L411.182 269.386H412.355ZM416.446 276.28C416.003 276.28 415.607 276.197 415.257 276.031C414.907 275.863 414.629 275.633 414.423 275.341C414.22 275.048 414.111 274.714 414.098 274.338H415.294C415.316 274.617 415.436 274.845 415.655 275.022C415.875 275.197 416.138 275.284 416.446 275.284C416.687 275.284 416.902 275.229 417.09 275.118C417.278 275.007 417.427 274.854 417.535 274.657C417.644 274.46 417.697 274.235 417.695 273.982C417.697 273.726 417.642 273.498 417.532 273.298C417.421 273.099 417.269 272.943 417.077 272.83C416.884 272.715 416.663 272.657 416.413 272.657C416.209 272.655 416.009 272.693 415.812 272.77C415.615 272.848 415.458 272.95 415.343 273.076L414.231 272.893L414.586 269.386H418.531V270.416H415.606L415.41 272.219H415.45C415.576 272.071 415.754 271.948 415.984 271.85C416.215 271.751 416.467 271.701 416.741 271.701C417.153 271.701 417.521 271.798 417.844 271.993C418.167 272.186 418.422 272.452 418.608 272.79C418.794 273.129 418.887 273.516 418.887 273.953C418.887 274.402 418.783 274.803 418.575 275.155C418.369 275.505 418.082 275.78 417.714 275.982C417.349 276.181 416.926 276.28 416.446 276.28ZM420.753 275.371C420.552 275.371 420.379 275.3 420.235 275.158C420.091 275.014 420.02 274.841 420.022 274.64C420.02 274.441 420.091 274.27 420.235 274.129C420.379 273.987 420.552 273.916 420.753 273.916C420.948 273.916 421.117 273.987 421.261 274.129C421.407 274.27 421.481 274.441 421.484 274.64C421.481 274.775 421.446 274.898 421.377 275.009C421.311 275.119 421.222 275.208 421.112 275.274C421.003 275.338 420.884 275.371 420.753 275.371ZM420.753 272C420.552 272 420.379 271.929 420.235 271.787C420.091 271.643 420.02 271.471 420.022 271.269C420.02 271.07 420.091 270.9 420.235 270.758C420.379 270.614 420.552 270.542 420.753 270.542C420.948 270.542 421.117 270.614 421.261 270.758C421.407 270.9 421.481 271.07 421.484 271.269C421.481 271.402 421.446 271.524 421.377 271.635C421.311 271.745 421.222 271.834 421.112 271.9C421.003 271.967 420.884 272 420.753 272ZM425.225 276.317C424.679 276.317 424.209 276.179 423.817 275.902C423.428 275.623 423.128 275.221 422.917 274.696C422.709 274.17 422.605 273.535 422.605 272.794C422.607 272.052 422.713 271.421 422.921 270.901C423.131 270.378 423.431 269.98 423.821 269.705C424.213 269.431 424.681 269.293 425.225 269.293C425.77 269.293 426.238 269.431 426.63 269.705C427.022 269.98 427.322 270.378 427.53 270.901C427.74 271.423 427.846 272.054 427.846 272.794C427.846 273.537 427.74 274.173 427.53 274.7C427.322 275.224 427.022 275.625 426.63 275.902C426.24 276.179 425.772 276.317 425.225 276.317ZM425.225 275.278C425.65 275.278 425.986 275.068 426.232 274.65C426.48 274.229 426.604 273.611 426.604 272.794C426.604 272.253 426.547 271.8 426.434 271.432C426.321 271.065 426.162 270.788 425.956 270.602C425.75 270.414 425.507 270.32 425.225 270.32C424.803 270.32 424.468 270.53 424.223 270.95C423.977 271.369 423.853 271.983 423.851 272.794C423.848 273.336 423.903 273.792 424.013 274.162C424.126 274.531 424.286 274.81 424.491 274.999C424.697 275.185 424.942 275.278 425.225 275.278ZM431.463 276.317C430.916 276.317 430.447 276.179 430.055 275.902C429.665 275.623 429.365 275.221 429.155 274.696C428.947 274.17 428.843 273.535 428.843 272.794C428.845 272.052 428.95 271.421 429.158 270.901C429.368 270.378 429.668 269.98 430.058 269.705C430.45 269.431 430.918 269.293 431.463 269.293C432.007 269.293 432.476 269.431 432.868 269.705C433.259 269.98 433.559 270.378 433.768 270.901C433.978 271.423 434.083 272.054 434.083 272.794C434.083 273.537 433.978 274.173 433.768 274.7C433.559 275.224 433.259 275.625 432.868 275.902C432.478 276.179 432.01 276.317 431.463 276.317ZM431.463 275.278C431.888 275.278 432.223 275.068 432.469 274.65C432.717 274.229 432.841 273.611 432.841 272.794C432.841 272.253 432.785 271.8 432.672 271.432C432.559 271.065 432.399 270.788 432.193 270.602C431.988 270.414 431.744 270.32 431.463 270.32C431.04 270.32 430.706 270.53 430.46 270.95C430.214 271.369 430.09 271.983 430.088 272.794C430.086 273.336 430.14 273.792 430.251 274.162C430.364 274.531 430.523 274.81 430.729 274.999C430.935 275.185 431.179 275.278 431.463 275.278Z" fill="#B4B4B4"/>
<path d="M451.027 276.188V269.386H452.874V272.043H455.318V269.386H457.164V276.188H455.318V273.531H452.874V276.188H451.027ZM460.658 276.188H458.041V269.386H460.631C461.331 269.386 461.935 269.523 462.444 269.795C462.956 270.065 463.35 270.455 463.627 270.964C463.906 271.471 464.045 272.078 464.045 272.787C464.045 273.495 463.907 274.104 463.63 274.613C463.353 275.12 462.961 275.51 462.454 275.782C461.947 276.052 461.348 276.188 460.658 276.188ZM459.887 274.62H460.591C460.928 274.62 461.215 274.566 461.451 274.457C461.691 274.349 461.872 274.162 461.996 273.896C462.122 273.63 462.185 273.261 462.185 272.787C462.185 272.313 462.121 271.943 461.993 271.678C461.867 271.412 461.681 271.225 461.435 271.117C461.191 271.008 460.892 270.954 460.538 270.954H459.887V274.62Z" fill="#6D6D6D"/>
<g clip-path="url(#clip2_59_2948)">
<path d="M486.504 274.758H485.168V278.098H488.508V276.762H486.504V274.758ZM485.168 272.086H486.504V270.082H488.508V268.746H485.168V272.086ZM493.184 276.762H491.18V278.098H494.52V274.758H493.184V276.762ZM491.18 268.746V270.082H493.184V272.086H494.52V268.746H491.18Z" fill="white"/>
</g>
</g>
<defs>
<clipPath id="clip0_59_2948">
<rect width="513" height="291.234" fill="white"/>
</clipPath>
<clipPath id="clip1_59_2948">
<rect width="16.0312" height="16.0312" fill="white" transform="translate(82.3828 265.852)"/>
</clipPath>
<clipPath id="clip2_59_2948">
<rect width="16.0312" height="16.0312" fill="white" transform="translate(481.828 265.406)"/>
</clipPath>
</defs>
</svg>
