<svg width="22" height="22" viewBox="0 0 22 22" fill="none" xmlns="http://www.w3.org/2000/svg">
<path d="M7.15969 19.7768C6.9114 19.5284 6.77192 19.1916 6.77192 18.8404C6.77192 18.4892 6.9114 18.1524 7.15969 17.904L13.7157 11.348L7.15969 4.79204C6.91844 4.54225 6.78494 4.20769 6.78796 3.86043C6.79098 3.51316 6.93027 3.18098 7.17583 2.93542C7.42139 2.68985 7.75358 2.55057 8.10084 2.54755C8.44811 2.54453 8.78266 2.67803 9.03245 2.91928L16.5248 10.4116C16.7731 10.66 16.9126 10.9968 16.9126 11.348C16.9126 11.6992 16.7731 12.036 16.5248 12.2844L9.03245 19.7768C8.78408 20.0251 8.44727 20.1646 8.09607 20.1646C7.74488 20.1646 7.40806 20.0251 7.15969 19.7768Z" fill="black"/>
</svg>
